<svg width="1440" height="822" viewBox="0 0 1440 822" fill="none" xmlns="http://www.w3.org/2000/svg">
<mask id="mask0_496_71270" style="mask-type:alpha" maskUnits="userSpaceOnUse" x="0" y="0" width="207" height="207">
<rect width="207" height="207" fill="#D9D9D9"/>
</mask>
<g mask="url(#mask0_496_71270)">
<path d="M132.535 187.773H78.5095L61.2926 229.331L91.2737 233.783C91.0758 238.533 90.4821 244.272 89.4926 251C69.1095 250.802 55.5537 250.703 48.8253 250.703C48.4295 250.703 45.1642 250.802 39.0295 251C33.0926 251 26.4632 251 19.1411 251C19.1411 245.063 19.7347 239.225 20.9221 233.486L39.3263 230.221L117.396 52.4126H146.486L185.669 232.893L200.808 233.486C200.611 238.236 200.017 244.074 199.027 251C182.404 250.802 170.629 250.703 163.703 250.703C163.307 250.703 157.964 250.802 147.674 251C137.383 251 128.28 251 120.364 251C120.364 245.459 120.859 239.819 121.848 234.08L140.253 232.596L132.535 187.773ZM115.615 98.72L84.7432 172.634C86.1284 172.634 88.9979 172.733 93.3516 172.931C97.7053 172.931 101.267 172.931 104.038 172.931C114.526 172.931 123.333 172.733 130.457 172.337L115.615 98.72Z" fill="black"/>
</g>
<mask id="mask1_496_71270" style="mask-type:alpha" maskUnits="userSpaceOnUse" x="0" y="410" width="207" height="207">
<rect y="410" width="207" height="207" fill="#FFA7A7"/>
</mask>
<g mask="url(#mask1_496_71270)">
<path d="M137.783 409.741C162.52 409.741 183.398 417.459 200.417 432.895C217.634 448.331 226.242 469.307 226.242 495.825C226.242 530.655 215.16 559.152 192.996 581.316C170.832 603.282 145.006 614.265 115.52 614.265C104.042 614.265 93.0589 612.484 82.5705 608.922C72.0821 605.36 62.5832 600.116 54.0737 593.189C45.5642 586.263 38.7368 577.259 33.5916 566.177C28.6442 555.095 26.1705 542.528 26.1705 528.478C26.1705 507.501 31.2168 487.909 41.3095 469.703C51.4021 451.497 65.0568 436.952 82.2737 426.067C99.4905 415.183 117.994 409.741 137.783 409.741ZM120.269 594.971C136.497 594.971 150.448 586.461 162.124 569.442C173.8 552.423 179.638 527.192 179.638 493.747C179.638 474.749 175.977 459.215 168.655 447.143C161.531 435.072 150.053 429.036 134.221 429.036C115.223 429.036 100.183 438.535 89.1011 457.533C78.019 476.531 72.4779 500.377 72.4779 529.072C72.4779 550.246 76.8316 566.573 85.539 578.051C94.2463 589.331 105.823 594.971 120.269 594.971Z" fill="black"/>
</g>
<mask id="mask2_496_71270" style="mask-type:alpha" maskUnits="userSpaceOnUse" x="205" y="0" width="208" height="207">
<rect x="205" width="208" height="207" fill="#FFA7A7"/>
</mask>
<g mask="url(#mask2_496_71270)">
<path d="M233.758 -37.4H274.128C313.905 -37.4 333.794 -23.4484 333.794 4.45472C333.794 15.9326 330.133 25.8274 322.811 34.1389C315.488 42.4505 306.484 48.5853 295.798 52.5432C306.484 54.72 315.785 59.7663 323.701 67.6821C331.815 75.4 335.872 85.2947 335.872 97.3663C335.872 108.844 333.398 118.937 328.451 127.644C323.503 136.154 316.775 142.783 308.265 147.533C299.756 152.084 290.752 155.448 281.253 157.625C271.754 159.802 261.661 160.891 250.975 160.891C248.204 160.891 242.465 160.693 233.758 160.297C225.248 159.901 218.025 159.703 212.088 159.703C211.495 159.703 205.162 159.802 193.091 160C181.217 160 172.213 160 166.078 160C166.078 154.459 166.573 148.819 167.562 143.08L191.606 142.189C192.2 138.232 195.465 110.526 201.402 59.0737C201.6 56.5011 202.293 49.08 203.48 36.8105C204.865 24.541 206.053 13.261 207.042 2.97051C208.229 -7.5179 208.922 -15.0379 209.12 -19.5895C206.547 -19.5895 202.392 -19.5895 196.653 -19.5895C190.914 -19.7874 187.055 -19.9853 185.076 -20.1832C185.472 -25.3284 186.164 -31.1663 187.154 -37.6968C195.465 -37.6968 205.261 -37.5979 216.541 -37.4C227.821 -37.4 233.56 -37.4 233.758 -37.4ZM237.32 141.002L249.491 141.596C262.552 141.596 272.347 137.638 278.878 129.722C285.606 121.806 288.971 111.714 288.971 99.4442C288.971 77.4779 277.789 66.4947 255.427 66.4947H250.975C248.204 66.4947 246.225 66.5937 245.038 66.7916C241.278 100.236 238.705 124.973 237.32 141.002ZM261.958 -18.1053H254.537C251.568 2.47578 248.996 24.7389 246.819 48.6842C248.006 48.8821 249.886 48.9811 252.459 48.9811H256.021C266.312 48.3874 274.029 44.2316 279.175 36.5137C284.518 28.7958 287.189 19.6926 287.189 9.20421C287.189 -9.00211 278.779 -18.1053 261.958 -18.1053Z" fill="black"/>
</g>
<mask id="mask3_496_71270" style="mask-type:alpha" maskUnits="userSpaceOnUse" x="205" y="205" width="208" height="207">
<rect x="205" y="205" width="208" height="207" fill="#FFA7A7"/>
</mask>
<g mask="url(#mask3_496_71270)">
<path d="M356.284 250.817L332.834 251.411C330.657 268.429 327.787 294.651 324.225 330.074C320.069 367.278 317.2 394.983 315.617 413.189C318.189 413.189 322.246 413.288 327.787 413.486C333.526 413.486 337.385 413.585 339.364 413.783C339.166 418.533 338.573 424.272 337.583 431C315.221 430.802 299.488 430.703 290.385 430.703C289.792 430.703 283.459 430.802 271.387 431C259.316 431 250.213 431 244.078 431C244.078 425.459 244.573 419.819 245.562 414.08L269.903 413.189C270.497 409.232 273.762 381.526 279.699 330.074C279.897 327.303 280.589 319.882 281.777 307.811C283.162 295.739 284.349 284.558 285.339 274.267C286.328 263.779 287.021 256.259 287.417 251.707L263.076 250.817C263.472 245.672 264.164 239.834 265.154 233.303C268.914 233.303 277.324 233.402 290.385 233.6C303.644 233.6 310.867 233.6 312.055 233.6L358.362 233.303C357.966 238.844 357.274 244.682 356.284 250.817Z" fill="black"/>
</g>
<mask id="mask4_496_71270" style="mask-type:alpha" maskUnits="userSpaceOnUse" x="205" y="410" width="208" height="207">
<rect x="205" y="410" width="208" height="207" fill="#FFA7A7"/>
</mask>
<g mask="url(#mask4_496_71270)">
<path d="M311.488 423.303C353.046 423.303 373.825 441.015 373.825 476.438C373.825 487.718 371.451 497.811 366.701 506.716C361.952 515.423 355.619 522.349 347.703 527.495C339.985 532.442 331.377 536.202 321.878 538.775C312.577 541.347 302.781 542.535 292.491 542.337C289.72 542.337 287.642 542.238 286.257 542.04L283.288 571.131L280.32 602.299L317.128 603.783C316.931 608.533 316.337 614.272 315.347 621C282.101 620.802 262.015 620.703 255.088 620.703C254.495 620.703 248.063 620.802 235.794 621C223.722 621 214.817 621 209.078 621C209.078 615.459 209.573 609.819 210.562 604.08L234.903 603.189C235.695 596.857 236.684 587.853 237.872 576.177C239.257 564.501 240.543 552.924 241.731 541.446C243.116 529.771 244.006 522.646 244.402 520.074C244.6 517.501 245.293 510.08 246.48 497.811C247.865 485.541 249.053 474.261 250.042 463.971C251.032 453.482 251.724 445.962 252.12 441.411L228.076 440.817C228.472 435.672 229.164 429.834 230.154 423.303C235.101 423.303 243.017 423.402 253.901 423.6C264.785 423.6 270.623 423.6 271.415 423.6C272.206 423.6 276.956 423.6 285.663 423.6C294.371 423.402 302.979 423.303 311.488 423.303ZM291.303 495.139L288.335 523.636C289.522 523.834 291.402 523.933 293.975 523.933C306.244 522.349 315.051 517.105 320.394 508.2C325.935 499.097 328.705 488.411 328.705 476.141C328.705 454.373 320.394 443.291 303.771 442.895H297.537C295.756 452.987 293.678 470.402 291.303 495.139Z" fill="black"/>
</g>
<mask id="mask5_496_71270" style="mask-type:alpha" maskUnits="userSpaceOnUse" x="411" y="0" width="207" height="207">
<rect x="411" width="207" height="207" fill="#FFA7A7"/>
</mask>
<g mask="url(#mask5_496_71270)">
<path d="M578.733 81.8589L579.623 53.6589C579.821 48.3158 578.931 44.6547 576.952 42.6758C575.171 40.4989 572.202 39.2126 568.046 38.8168C562.901 38.421 559.339 38.2232 557.36 38.2232C533.613 38.2232 514.912 47.2274 501.257 65.2358C487.602 83.2442 480.775 105.211 480.775 131.135C480.775 154.091 486.811 171.703 498.882 183.973C511.152 196.044 525.895 202.08 543.112 202.08C547.267 202.08 550.434 201.882 552.611 201.486C556.964 200.893 560.131 199.606 562.109 197.627C564.286 195.451 565.968 191.691 567.156 186.347L574.577 151.32C576.358 151.32 578.832 151.32 581.998 151.32C585.362 151.122 587.836 151.023 589.419 151.023C591.002 151.023 593.476 151.122 596.84 151.32C600.204 151.32 602.876 151.32 604.855 151.32L595.356 215.438C588.627 215.042 583.68 214.943 580.514 215.141C576.16 215.537 567.947 216.823 555.876 219C543.804 221.177 534.305 222.265 527.379 222.265C500.465 222.265 478.202 214.646 460.589 199.408C442.977 184.171 434.171 163.491 434.171 137.368C434.171 104.122 445.055 75.9221 466.823 52.7684C488.592 29.4168 516.891 17.741 551.72 17.741C558.844 17.741 567.552 18.8295 577.842 21.0063C588.133 22.9853 595.653 24.0737 600.402 24.2716C601.194 24.2716 603.766 24.2716 608.12 24.2716C612.474 24.0737 614.947 23.9747 615.541 23.9747L609.604 81.8589C604.063 82.4526 599.116 82.7495 594.762 82.7495C590.408 82.7495 585.065 82.4526 578.733 81.8589Z" fill="black"/>
</g>
<mask id="mask6_496_71270" style="mask-type:alpha" maskUnits="userSpaceOnUse" x="411" y="205" width="207" height="207">
<rect x="411" y="205" width="207" height="207" fill="#FFA7A7"/>
</mask>
<g mask="url(#mask6_496_71270)">
<path d="M517.32 315.768C516.331 325.663 513.461 334.964 508.712 343.672C503.962 352.577 497.728 360.493 490.011 367.419C482.293 374.543 474.476 380.678 466.56 385.823C458.644 391.166 449.64 396.411 439.547 401.556C436.381 397.4 434.204 393.541 433.017 389.979C439.152 385.625 443.901 381.865 447.265 378.699C450.629 375.731 454.192 371.476 457.952 365.935C461.909 360.592 464.977 354.061 467.154 346.343C469.528 338.823 471.211 329.621 472.2 318.737L478.731 256.697C483.678 209.796 486.943 178.232 488.526 162.004L456.764 160.817C456.962 155.474 457.655 149.636 458.842 143.303C466.362 143.303 477.246 143.402 491.495 143.6C505.743 143.6 513.065 143.6 513.461 143.6L560.362 143.303C559.966 148.251 559.373 153.989 558.581 160.52L533.943 161.411C531.371 182.585 528.699 206.827 525.928 234.137C521.179 278.465 518.309 305.676 517.32 315.768Z" fill="black"/>
</g>
<mask id="mask7_496_71270" style="mask-type:alpha" maskUnits="userSpaceOnUse" x="411" y="410" width="207" height="207">
<rect x="411" y="410" width="207" height="207" fill="#FFA7A7"/>
</mask>
<g mask="url(#mask7_496_71270)">
<path d="M492.331 345.741C517.067 345.741 537.945 353.459 554.964 368.895C572.181 384.331 580.789 405.307 580.789 431.825C580.789 460.718 572.874 485.455 557.042 506.036C541.408 526.419 521.718 539.876 497.971 546.406C511.625 555.114 521.322 561.149 527.061 564.514C532.8 567.878 541.112 571.539 551.996 575.497C562.88 579.653 572.973 581.731 582.274 581.731C587.617 581.731 596.918 580.939 610.177 579.356C609.979 587.074 609.088 593.901 607.505 599.838C594.048 606.171 581.779 609.337 570.697 609.337C550.907 609.337 532.305 604.192 514.891 593.901C497.476 583.611 479.467 568.966 460.865 549.968C438.305 547.989 419.307 539.678 403.872 525.034C388.436 510.192 380.718 490.006 380.718 464.478C380.718 443.501 385.764 423.909 395.857 405.703C405.949 387.497 419.604 372.952 436.821 362.067C454.038 351.183 472.541 345.741 492.331 345.741ZM474.817 530.971C491.044 530.971 504.996 522.461 516.672 505.442C528.347 488.423 534.185 463.192 534.185 429.747C534.185 410.749 530.524 395.215 523.202 383.143C516.078 371.072 504.6 365.036 488.768 365.036C469.771 365.036 454.731 374.535 443.648 393.533C432.566 412.531 427.025 436.377 427.025 465.072C427.025 486.246 431.379 502.573 440.086 514.051C448.794 525.331 460.371 530.971 474.817 530.971Z" fill="black"/>
</g>
<mask id="mask8_496_71270" style="mask-type:alpha" maskUnits="userSpaceOnUse" x="616" y="205" width="208" height="207">
<rect x="616" y="205" width="208" height="207" fill="#FFA7A7"/>
</mask>
<g mask="url(#mask8_496_71270)">
<path d="M710.225 342.074C705.08 387.787 702.112 415.493 701.32 425.189L722.693 425.783C722.495 430.533 721.901 436.272 720.912 443C697.956 442.802 683.114 442.703 676.385 442.703C676.187 442.703 670.349 442.802 658.872 443C647.592 443 637.994 443 630.078 443C630.078 437.459 630.573 431.819 631.562 426.08L655.903 425.189C656.497 421.232 659.762 393.526 665.699 342.074C665.897 339.501 666.589 332.08 667.777 319.811C669.162 307.541 670.349 296.261 671.339 285.971C672.328 275.482 673.021 267.962 673.417 263.411L649.076 262.817C649.472 257.672 650.164 251.834 651.154 245.303C658.674 245.303 668.272 245.402 679.947 245.6C691.623 245.6 697.659 245.6 698.055 245.6L736.941 245.303C736.743 250.844 736.149 256.583 735.16 262.52L718.537 263.707C715.766 286.069 712.996 312.192 710.225 342.074ZM714.381 345.042L782.655 266.676L755.345 262.817C755.543 257.474 756.236 251.636 757.423 245.303C764.547 245.303 772.463 245.402 781.171 245.6C789.878 245.6 794.528 245.6 795.122 245.6L840.242 245.303C839.846 250.251 839.253 255.989 838.461 262.52L809.667 266.973L752.971 327.825L809.964 424.893L831.337 425.783C831.139 430.533 830.545 436.272 829.556 443C804.819 442.802 788.987 442.703 782.061 442.703C781.269 442.703 774.937 442.802 763.063 443C751.387 443 743.076 443 738.128 443C738.128 437.063 738.722 431.225 739.909 425.486L759.204 425.189L714.381 345.042Z" fill="black"/>
</g>
<mask id="mask9_496_71270" style="mask-type:alpha" maskUnits="userSpaceOnUse" x="616" y="0" width="208" height="207">
<rect x="616" width="208" height="207" fill="#FFA7A7"/>
</mask>
<g mask="url(#mask9_496_71270)">
<path d="M742.24 189.484C741.053 189.484 735.512 189.187 725.617 188.594C715.722 188.198 707.213 187.901 700.088 187.703C699.297 187.703 692.766 187.802 680.497 188C668.425 188 659.619 188 654.078 188C654.078 182.459 654.573 176.819 655.562 171.08L679.903 170.189C680.695 163.857 681.783 154.952 683.168 143.474C684.554 131.798 685.84 120.023 687.027 108.149C688.413 96.2758 689.204 89.2505 689.402 87.0737C689.6 85.4905 690.886 73.5179 693.261 51.1558C695.636 28.5958 697.021 14.3474 697.417 8.41052C694.844 8.41052 690.589 8.41052 684.653 8.41052C678.914 8.21263 675.055 8.01473 673.076 7.81683C673.472 2.67157 674.164 -3.16632 675.154 -9.69684C684.455 -9.69684 693.756 -9.69684 703.057 -9.69684L716.712 -9.4C737.293 -9.4 752.135 -9.49895 761.238 -9.69684C796.067 -9.89475 822.189 -3.06738 839.604 10.7853C857.217 24.6379 866.023 44.9221 866.023 71.6379C866.023 107.259 854.644 135.855 831.886 157.425C809.326 178.798 779.444 189.484 742.24 189.484ZM742.834 169.299C767.768 169.299 786.667 160.394 799.531 142.583C812.592 124.575 819.122 102.213 819.122 75.4968C819.122 53.5305 813.581 37.1053 802.499 26.221C791.417 15.3368 776.575 9.89473 757.973 9.89473H742.537C739.371 38.9853 737.787 54.0253 737.787 55.0147L730.663 119.726C729.872 125.663 728.882 135.162 727.695 148.223C726.507 161.086 725.914 167.914 725.914 168.705C733.434 169.101 739.074 169.299 742.834 169.299Z" fill="black"/>
</g>
<mask id="mask10_496_71270" style="mask-type:alpha" maskUnits="userSpaceOnUse" x="616" y="615" width="208" height="207">
<rect x="616" y="615" width="208" height="207" fill="#FFA7A7"/>
</mask>
<g mask="url(#mask10_496_71270)">
<path d="M711.286 682.817L696.147 683.411L720.785 748.122L757 686.676L731.472 682.817C731.669 677.869 732.263 672.032 733.253 665.303C753.24 665.501 766.697 665.6 773.623 665.6C774.217 665.6 778.373 665.6 786.091 665.6C793.808 665.402 800.537 665.303 806.276 665.303C806.276 671.042 805.682 676.781 804.495 682.52L782.528 686.676L733.549 762.371C729.394 799.377 726.623 826.686 725.238 844.299L755.813 845.783C755.615 850.533 755.021 856.272 754.032 863C724.941 862.802 706.933 862.703 700.006 862.703C699.808 862.703 692.783 862.802 678.931 863C665.078 863 654.491 863 647.168 863C647.168 857.261 647.762 851.522 648.949 845.783L679.821 844.299C680.613 838.956 683.185 817.583 687.539 780.181L648.356 683.707L630.842 682.817C631.04 677.869 631.634 672.032 632.623 665.303C648.455 665.501 659.834 665.6 666.76 665.6C667.354 665.6 673.785 665.6 686.055 665.6C698.522 665.402 707.526 665.303 713.067 665.303C712.869 670.844 712.276 676.682 711.286 682.817Z" fill="black"/>
</g>
<mask id="mask11_496_71270" style="mask-type:alpha" maskUnits="userSpaceOnUse" x="822" y="0" width="207" height="207">
<rect x="822" width="207" height="207" fill="#FFA7A7"/>
</mask>
<g mask="url(#mask11_496_71270)">
<path d="M985.825 177.444L979.295 240.078L948.126 238H905.084C886.68 237.802 874.114 237.703 867.385 237.703C866.594 237.703 864.021 237.802 859.667 238C855.512 238 849.872 238 842.747 238C835.821 238 828.598 238 821.078 238C821.078 232.459 821.573 226.819 822.562 221.08L846.903 220.189C847.497 216.232 850.762 188.526 856.699 137.074C856.897 134.501 857.589 127.575 858.777 116.295C859.964 104.817 861.053 93.9326 862.042 83.6421C863.032 73.1537 863.823 64.7432 864.417 58.4105L840.076 57.8168C840.472 52.6716 841.164 46.8337 842.154 40.3032C847.695 40.3032 856.699 40.4021 869.166 40.6C881.634 40.6 888.362 40.6 889.352 40.6H962.968L994.731 39.1158L989.091 94.3284C983.549 95.12 978.602 95.5158 974.248 95.5158C970.291 95.5158 965.937 95.12 961.187 94.3284L962.375 67.9095C962.573 64.5453 962.078 62.3684 960.891 61.3789C959.901 60.3895 958.021 59.8947 955.251 59.8947C950.897 59.8947 943.278 59.8947 932.394 59.8947C921.707 59.6968 914.088 59.5979 909.537 59.5979C908.745 65.7326 906.272 87.7979 902.116 125.794C913.198 125.794 921.114 125.695 925.863 125.497L930.316 99.6716C932.493 99.4737 935.659 99.3747 939.815 99.3747C945.752 99.3747 950.105 99.4737 952.876 99.6716C951.491 109.962 949.808 124.606 947.829 143.604C946.048 162.602 945.059 173.189 944.861 175.366C939.122 175.564 931.701 175.366 922.598 174.773L924.082 144.792C917.947 144.594 910.032 144.495 900.335 144.495C895.981 182.293 893.507 206.832 892.914 218.112H941.299C948.225 218.112 952.183 214.747 953.173 208.019L957.922 178.038C973.754 177.642 983.055 177.444 985.825 177.444Z" fill="black"/>
</g>
<mask id="mask12_496_71270" style="mask-type:alpha" maskUnits="userSpaceOnUse" x="822" y="205" width="207" height="207">
<rect x="822" y="205" width="207" height="207" fill="#FFA7A7"/>
</mask>
<g mask="url(#mask12_496_71270)">
<path d="M968.455 337.832L973.798 302.804C977.954 302.606 983.099 302.507 989.234 302.507C995.171 302.507 1000.12 302.606 1004.08 302.804L996.358 369.297C991.608 369.297 984.682 369.198 975.579 369C966.476 369 959.648 369 955.097 369C940.651 368.802 919.08 368.703 890.385 368.703C889.989 368.703 883.954 368.802 872.278 369C860.602 369 851.202 369 844.078 369C844.078 363.459 844.573 357.819 845.562 352.08L869.903 351.189C870.695 344.857 871.684 335.853 872.872 324.177C874.257 312.501 875.543 300.924 876.731 289.446C878.116 277.771 879.006 270.646 879.402 268.074C879.798 263.126 881.183 250.164 883.558 229.187C886.131 208.211 887.615 195.149 888.011 190.004L863.076 188.817C863.472 183.672 864.164 177.834 865.154 171.303C870.299 171.303 879.105 171.402 891.573 171.6C904.238 171.6 910.966 171.6 911.758 171.6L958.956 171.303C958.758 176.844 958.164 182.583 957.175 188.52L932.537 190.004C929.766 210.189 926.897 236.114 923.928 267.777C920.366 299.242 917.596 326.354 915.617 349.112H953.909C959.253 349.112 962.716 348.419 964.299 347.034C966.08 345.451 967.465 342.383 968.455 337.832Z" fill="black"/>
</g>
<mask id="mask13_496_71270" style="mask-type:alpha" maskUnits="userSpaceOnUse" x="822" y="410" width="207" height="207">
<rect x="822" y="410" width="207" height="207" fill="#FFA7A7"/>
</mask>
<g mask="url(#mask13_496_71270)">
<path d="M893.853 542.783C903.154 542.783 911.069 540.211 917.6 535.065C924.131 529.92 927.396 521.707 927.396 510.427C927.396 503.897 925.417 498.257 921.459 493.507C917.699 488.758 910.377 482.821 899.493 475.697C883.661 465.208 872.381 456.006 865.653 448.091C859.122 439.977 855.857 430.181 855.857 418.703C855.857 401.091 862.585 386.743 876.042 375.661C889.697 364.381 906.419 358.741 926.208 358.741C930.76 358.741 935.114 359.038 939.269 359.632C943.425 360.225 948.373 361.215 954.112 362.6C959.851 363.787 963.709 364.579 965.688 364.975C967.272 364.975 970.339 364.876 974.891 364.678C979.64 364.48 982.312 364.381 982.905 364.381L976.672 424.937C971.131 425.333 966.876 425.531 963.907 425.531C960.543 425.531 955.299 425.333 948.175 424.937L949.362 397.034C949.56 387.535 946.592 382.093 940.457 380.707C936.499 379.916 932.343 379.52 927.989 379.52C918.886 379.52 911.861 381.895 906.914 386.644C902.164 391.196 899.789 397.133 899.789 404.455C899.789 415.735 908.992 427.707 927.396 440.373C945.404 453.038 957.476 462.834 963.611 469.76C969.745 476.686 972.813 485.789 972.813 497.069C972.813 516.661 965.095 532.592 949.659 544.861C934.421 557.131 915.72 563.265 893.556 563.265C888.015 563.265 880.891 562.375 872.183 560.594C863.674 559.011 857.539 558.12 853.779 557.922L838.937 558.813L845.467 496.773C851.8 496.377 856.451 496.179 859.419 496.179C862.585 496.179 867.335 496.377 873.667 496.773L872.777 525.269C872.579 531.206 873.173 535.263 874.558 537.44C876.141 539.419 878.813 540.903 882.573 541.893C885.145 542.486 888.905 542.783 893.853 542.783Z" fill="black"/>
</g>
<mask id="mask14_496_71270" style="mask-type:alpha" maskUnits="userSpaceOnUse" x="616" y="410" width="208" height="207">
<rect x="616" y="410" width="208" height="207" fill="#FFA7A7"/>
</mask>
<g mask="url(#mask14_496_71270)">
<path d="M689.32 617.299L713.364 618.783L711.583 636C686.648 635.802 670.817 635.703 664.088 635.703C663.297 635.703 656.667 635.802 644.2 636C631.931 636 623.223 636 618.078 636C618.078 630.459 618.573 624.819 619.562 619.08L643.606 618.189C644.2 614.232 647.465 586.526 653.402 535.074C653.6 532.501 654.293 525.08 655.48 512.811C656.865 500.541 658.053 489.261 659.042 478.971C660.229 468.482 660.922 460.962 661.12 456.411L637.076 455.817C637.472 450.672 638.164 444.834 639.154 438.303C646.278 438.303 655.678 438.402 667.354 438.6C679.227 438.6 685.362 438.6 685.758 438.6H721.082C743.048 438.6 759.177 443.251 769.467 452.552C779.758 461.853 784.903 473.627 784.903 487.876C784.903 500.343 781.143 512.019 773.623 522.903C766.103 533.589 756.802 540.813 745.72 544.573C757.594 569.705 764.817 584.646 767.389 589.396C767.587 589.594 768.577 591.474 770.358 595.036C772.337 598.598 773.524 600.874 773.92 601.863C774.514 602.655 775.8 604.634 777.779 607.8C779.758 610.966 781.242 613.143 782.232 614.331C783.419 615.518 785.002 617.299 786.981 619.674C788.96 621.851 790.741 623.434 792.324 624.423C794.105 625.413 796.084 626.402 798.261 627.392C800.636 628.381 802.912 628.975 805.088 629.173C804.297 634.12 803.011 638.474 801.229 642.234C797.865 642.629 793.017 642.827 786.684 642.827C763.531 642.827 747.897 636.495 739.783 623.829C733.648 612.352 722.269 587.813 705.646 550.213C700.501 550.213 697.335 550.114 696.147 549.916C695.949 552.686 694.861 563.175 692.882 581.381C690.903 599.587 689.716 611.56 689.32 617.299ZM702.084 493.219L697.928 532.996C700.699 533.392 702.876 533.589 704.459 533.589C715.739 532.996 724.248 528.444 729.987 519.935C735.726 511.227 738.596 501.234 738.596 489.954C738.596 480.653 736.518 473.034 732.362 467.097C728.404 460.962 722.171 457.895 713.661 457.895H705.943L702.084 493.219Z" fill="black"/>
</g>
<mask id="mask15_496_71270" style="mask-type:alpha" maskUnits="userSpaceOnUse" x="822" y="615" width="207" height="207">
<rect x="822" y="615" width="207" height="207" fill="#FFA7A7"/>
</mask>
<g mask="url(#mask15_496_71270)">
<path d="M868.509 817.002C874.644 817.2 887.507 817.299 907.099 817.299C908.88 817.299 913.135 817.299 919.863 817.299C926.789 817.101 932.034 817.002 935.596 817.002C940.147 817.002 943.413 816.211 945.392 814.627C947.371 812.846 948.756 809.383 949.547 804.238L954 775.444C955.187 775.444 957.265 775.444 960.234 775.444C963.4 775.246 965.973 775.147 967.952 775.147C969.733 775.147 972.404 775.246 975.966 775.444C979.726 775.444 982.596 775.444 984.575 775.444L978.044 837.187C958.453 836.396 943.907 836 934.408 836H815.672L817.453 818.189L940.048 657.895C937.674 657.895 931.737 657.895 922.238 657.895C912.739 657.697 906.703 657.598 904.131 657.598H883.945C879.394 657.598 876.128 658.291 874.149 659.676C872.171 661.061 870.884 663.634 870.291 667.394L865.244 698.265C860.297 699.057 855.646 699.453 851.293 699.453C846.345 699.453 841.002 699.057 835.263 698.265L842.091 636.522C857.328 637.907 870.587 638.6 881.867 638.6H992.589L991.105 655.52L868.509 817.002Z" fill="black"/>
</g>
<mask id="mask16_496_71270" style="mask-type:alpha" maskUnits="userSpaceOnUse" x="1027" y="205" width="208" height="207">
<rect x="1027" y="205" width="208" height="207" fill="#FFA7A7"/>
</mask>
<g mask="url(#mask16_496_71270)">
<path d="M1230.75 230.707L1205.22 231.895C1201.46 264.943 1198.4 292.549 1196.02 314.714C1195.63 318.474 1194.44 329.952 1192.46 349.147C1190.48 368.343 1189.09 382.691 1188.3 392.189C1190.88 392.189 1195.03 392.288 1200.77 392.486C1206.71 392.486 1210.76 392.585 1212.94 392.783C1212.74 397.533 1212.15 403.272 1211.16 410C1187.81 409.802 1172.67 409.703 1165.74 409.703C1165.35 409.703 1160 409.802 1149.71 410C1139.62 410 1130.91 410 1123.59 410C1123.59 404.459 1124.09 398.819 1125.08 393.08L1144.07 392.189C1151.99 326.291 1156.54 288.592 1157.73 279.093L1092.42 412.968H1071.05L1025.34 274.64L1019.7 332.821L1014.35 388.924L1044.63 392.783C1044.43 397.533 1043.84 403.272 1042.85 410C1025.44 409.802 1013.27 409.703 1006.34 409.703C1005.94 409.703 1000.6 409.802 990.309 410C980.217 410 971.411 410 963.891 410C963.891 404.657 964.385 399.017 965.375 393.08L989.122 388.924L1007.82 234.269L980.811 230.707C981.206 223.979 981.899 217.844 982.888 212.303C999.907 212.699 1012.77 212.897 1021.48 212.897C1028.4 212.897 1038.99 212.699 1053.24 212.303L1099.25 356.272L1167.52 212.303C1184.94 212.699 1196.81 212.897 1203.15 212.897C1208.29 212.897 1218.19 212.699 1232.83 212.303C1232.83 217.251 1232.14 223.385 1230.75 230.707Z" fill="black"/>
</g>
<mask id="mask17_496_71270" style="mask-type:alpha" maskUnits="userSpaceOnUse" x="1027" y="0" width="208" height="207">
<rect x="1027" width="208" height="207" fill="#FFA7A7"/>
</mask>
<g mask="url(#mask17_496_71270)">
<path d="M1098.76 -33.4H1173.27L1204.73 -34.8842L1199.09 20.3284C1194.14 21.12 1189.29 21.5158 1184.55 21.5158C1180.19 21.5158 1175.74 21.12 1171.19 20.3284L1172.37 -6.38737C1172.57 -9.3558 1171.98 -11.3347 1170.59 -12.3242C1169.41 -13.5116 1167.03 -14.1053 1163.47 -14.1053C1158.92 -14.1053 1151.5 -14.1053 1141.21 -14.1053C1130.92 -14.3032 1123.69 -14.4021 1119.54 -14.4021C1117.56 -0.747369 1114.79 23.2968 1111.23 57.7305H1134.38L1139.43 29.5305C1143.38 29.3326 1147.44 29.2337 1151.6 29.2337C1155.55 29.2337 1159.61 29.3326 1163.77 29.5305C1159.41 67.9221 1156.64 94.0442 1155.45 107.897L1143.58 108.491L1131.11 107.897L1132.3 77.0253H1109.15C1104.99 115.417 1102.72 138.175 1102.32 145.299L1139.72 146.783C1139.52 151.533 1138.93 157.272 1137.94 164C1104.3 163.802 1084.11 163.703 1077.39 163.703C1076.59 163.703 1069.96 163.802 1057.5 164C1045.03 164 1036.22 164 1031.08 164C1031.08 158.459 1031.57 152.819 1032.56 147.08L1056.9 146.189C1057.69 139.857 1058.68 130.853 1059.87 119.177C1061.26 107.501 1062.54 95.9242 1063.73 84.4463C1065.12 72.7705 1066.01 65.6463 1066.4 63.0737C1066.6 61.4905 1067.89 49.5179 1070.26 27.1558C1072.64 4.59578 1074.02 -9.65264 1074.42 -15.5895L1050.08 -16.1832C1050.47 -21.3284 1051.16 -27.1663 1052.15 -33.6968C1059.87 -33.6968 1069.47 -33.5979 1080.95 -33.4C1092.62 -33.4 1098.56 -33.4 1098.76 -33.4Z" fill="black"/>
</g>
<mask id="mask18_496_71270" style="mask-type:alpha" maskUnits="userSpaceOnUse" x="1027" y="410" width="208" height="207">
<rect x="1027" y="410" width="208" height="207" fill="#FFA7A7"/>
</mask>
<g mask="url(#mask18_496_71270)">
<path d="M1159.39 617C1128.52 616.802 1109.62 616.703 1102.69 616.703C1102.3 616.703 1095.08 616.802 1081.03 617C1066.97 617 1056.68 617 1050.15 617C1050.15 611.261 1050.75 605.522 1051.93 599.783L1082.81 598.299C1085.77 576.728 1088.84 549.32 1092.01 516.074C1092.21 513.501 1093.39 501.528 1095.57 480.156C1097.95 458.783 1099.43 444.931 1100.02 438.598L1079.84 438.895C1074.1 438.895 1070.93 441.764 1070.34 447.503L1065.29 481.64C1059.95 482.432 1055.6 482.827 1052.23 482.827C1048.27 482.827 1043.52 482.432 1037.98 481.64L1044.81 417.819L1074.49 419.6L1124.07 419.897L1175.72 419.6L1206 417.819L1199.76 481.64C1194.22 482.432 1189.57 482.827 1185.81 482.827C1182.45 482.827 1178.09 482.432 1172.75 481.64L1174.23 448.987C1174.43 444.832 1173.84 442.16 1172.45 440.973C1171.27 439.587 1168.89 438.895 1165.33 438.895L1145.44 438.598C1142.27 462.345 1139.4 488.072 1136.83 515.777C1132.48 554.366 1129.61 581.874 1128.22 598.299L1160.88 599.783C1160.48 606.709 1159.99 612.448 1159.39 617Z" fill="black"/>
</g>
<mask id="mask19_496_71270" style="mask-type:alpha" maskUnits="userSpaceOnUse" x="1027" y="615" width="208" height="207">
<rect x="1027" y="615" width="208" height="207" fill="#FFA7A7"/>
</mask>
<g mask="url(#mask19_496_71270)">
<path d="M1091.76 760.088C1091.76 754.349 1093.44 749.006 1096.81 744.059C1100.37 738.914 1104.52 734.461 1109.27 730.701C1114.22 726.743 1119.07 722.884 1123.82 719.124C1128.77 715.166 1132.92 710.813 1136.29 706.063C1139.85 701.116 1141.63 695.971 1141.63 690.627C1141.63 679.347 1133.91 673.707 1118.48 673.707C1103.44 673.707 1089.39 679.248 1076.32 690.331L1068.01 677.566C1074.94 670.046 1084.14 663.912 1095.62 659.162C1107.1 654.413 1118.77 652.038 1130.65 652.038C1144.7 652.038 1156.27 655.204 1165.38 661.537C1174.68 667.869 1179.33 677.072 1179.33 689.143C1179.33 695.872 1177.35 702.303 1173.39 708.438C1169.43 714.573 1164.49 720.114 1158.55 725.061C1152.61 729.811 1146.58 734.461 1140.44 739.013C1134.51 743.564 1128.96 748.611 1123.82 754.152C1118.67 759.693 1115.31 765.234 1113.73 770.775C1113.73 774.535 1114.62 779.185 1116.4 784.726L1100.67 790.96C1094.73 777.701 1091.76 767.411 1091.76 760.088ZM1081.37 835.486C1081.37 827.768 1084.04 821.04 1089.39 815.301C1094.73 809.364 1101.56 806.396 1109.87 806.396C1116.2 806.396 1121.25 808.276 1125.01 812.036C1128.77 815.598 1130.65 820.347 1130.65 826.284C1130.65 835.585 1127.78 842.808 1122.04 847.954C1116.5 853.099 1109.87 855.672 1102.15 855.672C1095.82 855.672 1090.77 853.891 1087.01 850.328C1083.25 846.568 1081.37 841.621 1081.37 835.486Z" fill="black"/>
</g>
<mask id="mask20_496_71270" style="mask-type:alpha" maskUnits="userSpaceOnUse" x="1233" y="410" width="207" height="207">
<rect x="1233" y="410" width="207" height="207" fill="#FFA7A7"/>
</mask>
<g mask="url(#mask20_496_71270)">
<path d="M1358.25 617.375C1351.92 617.375 1345.89 616.979 1340.15 616.187C1334.41 615.594 1328.08 614.109 1321.15 611.735C1314.22 609.162 1308.29 605.897 1303.34 601.939C1298.39 597.783 1294.24 592.143 1290.87 585.019C1287.51 577.697 1285.83 569.187 1285.83 559.491C1285.83 557.512 1286.02 554.147 1286.42 549.398L1298.29 436.004L1276.62 434.817C1276.82 429.474 1277.51 423.636 1278.7 417.303C1283.25 417.303 1288.5 417.402 1294.43 417.6C1300.57 417.6 1309.87 417.6 1322.34 417.6L1370.43 417.303C1370.23 422.844 1369.63 428.583 1368.64 434.52L1341.33 436.004L1330.65 538.712C1330.25 543.461 1330.05 546.825 1330.05 548.804C1330.05 564.24 1333.81 576.015 1341.33 584.128C1348.85 592.242 1358.16 596.299 1369.24 596.299C1384.67 596.299 1396.35 590.857 1404.27 579.973C1412.18 569.088 1417.03 555.137 1418.81 538.118L1429.2 438.973L1394.77 434.817C1394.96 429.474 1395.66 423.636 1396.84 417.303C1403.37 417.303 1409.31 417.303 1414.65 417.303C1420.2 417.303 1424.45 417.402 1427.42 417.6C1430.39 417.6 1432.37 417.6 1433.36 417.6L1478.77 417.303C1478.57 422.844 1477.98 428.583 1476.99 434.52L1451.46 438.973L1440.48 542.274C1438.9 556.324 1435.33 568.495 1429.79 578.785C1424.45 588.878 1417.72 596.596 1409.61 601.939C1401.49 607.282 1393.18 611.24 1384.67 613.813C1376.36 616.187 1367.56 617.375 1358.25 617.375Z" fill="black"/>
</g>
<mask id="mask21_496_71270" style="mask-type:alpha" maskUnits="userSpaceOnUse" x="1233" y="0" width="207" height="205">
<rect x="1233" width="207" height="205" fill="#FFA7A7"/>
</mask>
<g mask="url(#mask21_496_71270)">
<path d="M1384.89 88.9749L1385.48 59.5875C1385.68 53.2549 1382.41 49.198 1375.69 47.417C1370.15 46.0317 1363.91 45.3391 1356.99 45.3391C1341.55 45.3391 1328.09 49.8907 1316.61 58.9938C1305.14 67.8991 1296.63 79.377 1291.09 93.4275C1285.55 107.28 1282.77 122.32 1282.77 138.548C1282.77 158.931 1287.52 175.752 1297.02 189.011C1306.52 202.27 1319.88 208.899 1337.1 208.899C1343.83 208.899 1351.05 207.712 1358.77 205.337L1364.41 152.796L1332.05 151.609C1332.25 146.859 1332.84 141.12 1333.83 134.392C1345.31 134.392 1355.01 134.491 1362.92 134.689C1370.84 134.689 1376.48 134.689 1379.84 134.689C1383.4 134.689 1385.48 134.689 1386.08 134.689L1427.34 134.095C1427.14 139.834 1426.55 145.771 1425.56 151.905L1409.23 152.202L1401.51 222.257L1374.8 221.96C1351.84 226.908 1336.7 229.381 1329.38 229.381C1300.49 229.381 1277.73 221.762 1261.11 206.524C1244.48 191.089 1236.17 170.211 1236.17 143.891C1236.17 109.853 1246.96 81.5538 1268.53 58.9938C1290.1 36.4338 1318.49 25.0549 1353.72 24.857C1360.25 24.857 1369.45 25.8465 1381.33 27.8254C1393.4 29.8044 1401.71 30.9917 1406.26 31.3875C1407.25 31.3875 1409.92 31.3875 1414.28 31.3875C1418.63 31.1896 1421.1 31.0907 1421.7 31.0907L1415.76 88.9749C1409.43 89.5686 1404.18 89.8654 1400.03 89.8654C1396.27 89.8654 1391.22 89.5686 1384.89 88.9749Z" fill="black"/>
</g>
<mask id="mask22_496_71270" style="mask-type:alpha" maskUnits="userSpaceOnUse" x="0" y="205" width="207" height="207">
<rect y="205" width="207" height="207" fill="#FFA7A7"/>
</mask>
<g mask="url(#mask22_496_71270)">
<path d="M170.413 229.817L145.775 230.411C143.598 247.429 140.728 273.651 137.166 309.074C133.011 346.278 130.141 373.983 128.558 392.189C131.131 392.189 135.286 392.288 141.025 392.486C146.962 392.486 150.92 392.585 152.899 392.783C152.701 397.533 152.107 403.272 151.118 410C126.381 409.802 110.549 409.703 103.623 409.703C103.029 409.703 96.5979 409.802 84.3284 410C72.059 410 63.0547 410 57.3158 410C57.3158 404.459 57.8105 398.819 58.8 393.08L83.4379 392.189C83.6358 390.804 86.6042 365.672 92.3432 316.792H27.0379C23.4758 349.444 20.9032 374.577 19.32 392.189C21.8926 392.189 26.0484 392.288 31.7874 392.486C37.5263 392.486 41.3853 392.585 43.3642 392.783L41.5832 410C16.6484 409.802 0.816843 409.703 -5.91158 409.703C-11.6505 409.703 -20.2589 409.802 -31.7368 410C-43.2147 410 -50.0421 410 -52.2189 410C-52.0211 404.855 -51.5263 399.215 -50.7347 393.08L-26.3937 392.189C-25.8 388.232 -22.5347 360.526 -16.5979 309.074C-16.4 306.501 -15.7074 299.08 -14.52 286.811C-13.1347 274.541 -11.9474 263.261 -10.9579 252.971C-9.96842 242.482 -9.27579 234.962 -8.88 230.411L-32.9242 229.817C-32.7263 224.474 -32.0337 218.636 -30.8463 212.303C-26.8884 212.303 -18.3789 212.402 -5.31789 212.6C7.74316 212.6 14.7684 212.6 15.7579 212.6L62.6589 212.303C62.4611 217.844 61.8674 223.583 60.8779 229.52L36.5368 230.411C35.5474 237.139 33.9642 249.903 31.7874 268.703C29.8084 287.305 28.819 297.002 28.819 297.794C45.0463 298.189 56.4253 298.387 62.9558 298.387C69.8821 298.387 80.2716 298.189 94.1242 297.794C97.8842 262.766 100.16 240.305 100.952 230.411L76.6105 229.817C76.8084 224.474 77.5011 218.636 78.6884 212.303C85.6147 212.303 95.0147 212.402 106.888 212.6C118.762 212.6 124.996 212.6 125.589 212.6L172.491 212.303C172.293 218.042 171.6 223.88 170.413 229.817Z" fill="black"/>
</g>
<mask id="mask23_496_71270" style="mask-type:alpha" maskUnits="userSpaceOnUse" x="1233" y="205" width="207" height="207">
<rect x="1233" y="205" width="207" height="207" fill="#FFA7A7"/>
</mask>
<g mask="url(#mask23_496_71270)">
<path d="M1396.09 317.088L1386 414.749H1369.97L1267.56 271.968L1262.21 330.743L1255.98 388.627L1293.08 392.783C1292.89 397.533 1292.29 403.272 1291.3 410C1277.45 409.802 1263.6 409.703 1249.75 409.703C1249.15 409.703 1243.61 409.802 1233.12 410C1222.63 410 1214.52 410 1208.78 410C1208.78 404.657 1209.28 399.017 1210.27 393.08L1233.72 389.221C1235.5 372.796 1238.37 346.971 1242.32 311.745C1246.48 276.52 1249.45 250.695 1251.23 234.269L1223.03 229.817C1223.03 224.078 1223.62 218.339 1224.81 212.6H1280.62L1371.75 340.836C1371.95 339.648 1372.54 332.227 1373.53 318.573C1374.52 304.918 1375.31 295.518 1375.9 290.373L1381.54 233.973L1347.11 230.114C1347.31 225.166 1347.9 219.328 1348.89 212.6C1369.67 212.798 1383.52 212.897 1390.45 212.897C1390.84 212.897 1395.99 212.897 1405.88 212.897C1415.98 212.699 1424.39 212.6 1431.12 212.6C1431.12 218.339 1430.52 224.078 1429.33 229.817L1404.99 233.973C1401.04 271.573 1398.07 299.278 1396.09 317.088Z" fill="black"/>
</g>
<mask id="mask24_496_71270" style="mask-type:alpha" maskUnits="userSpaceOnUse" x="0" y="615" width="207" height="207">
<rect y="615" width="207" height="207" fill="#FFA7A7"/>
</mask>
<g mask="url(#mask24_496_71270)">
<path d="M86.4105 831.891H53.1642L13.3874 651.411L-1.15789 650.817C-0.96 645.869 -0.366315 640.032 0.623158 633.303C16.6526 633.501 28.0316 633.6 34.76 633.6C35.5516 633.6 37.6295 633.6 40.9937 633.6C44.5558 633.402 49.9979 633.303 57.32 633.303C64.6421 633.303 73.4484 633.303 83.739 633.303C83.739 639.042 83.1453 644.781 81.9579 650.52L59.1011 651.707L86.7074 784.396L140.436 654.973L108.971 650.817C109.168 647.255 109.762 641.417 110.752 633.303C129.947 633.501 143.008 633.6 149.935 633.6C150.726 633.6 152.013 633.6 153.794 633.6C155.773 633.402 159.236 633.303 164.183 633.303C169.131 633.303 175.562 633.303 183.478 633.303C183.28 638.053 182.785 643.693 181.994 650.223L163.589 654.379L86.4105 831.891Z" fill="black"/>
</g>
<mask id="mask25_496_71270" style="mask-type:alpha" maskUnits="userSpaceOnUse" x="205" y="615" width="208" height="207">
<rect x="205" y="615" width="208" height="207" fill="#FFA7A7"/>
</mask>
<g mask="url(#mask25_496_71270)">
<path d="M207.739 822.891H174.789L136.794 642.411L122.248 641.817C122.446 636.869 123.04 631.032 124.029 624.303C140.059 624.501 151.537 624.6 158.463 624.6C159.057 624.6 161.135 624.6 164.697 624.6C168.259 624.402 173.701 624.303 181.023 624.303C188.345 624.303 197.053 624.303 207.145 624.303C207.145 630.042 206.552 635.781 205.364 641.52L182.507 642.707L208.333 775.396L244.251 690.202L234.158 642.411L219.613 641.817C219.811 636.869 220.404 631.032 221.394 624.303C237.423 624.501 248.901 624.6 255.827 624.6C256.421 624.6 258.499 624.6 262.061 624.6C265.623 624.402 271.065 624.303 278.387 624.303C285.709 624.303 294.417 624.303 304.509 624.303C304.509 630.042 303.916 635.781 302.728 641.52L279.872 642.707L305.697 775.396L357.644 645.973L326.179 641.817C326.377 638.255 326.971 632.417 327.96 624.303C347.156 624.501 360.217 624.6 367.143 624.6C367.935 624.6 369.221 624.6 371.002 624.6C372.981 624.402 376.444 624.303 381.392 624.303C386.339 624.303 392.771 624.303 400.686 624.303C400.488 629.053 399.994 634.693 399.202 641.223L380.798 645.379L305.4 822.891H272.154L251.078 722.261L207.739 822.891Z" fill="black"/>
</g>
<mask id="mask26_496_71270" style="mask-type:alpha" maskUnits="userSpaceOnUse" x="411" y="615" width="207" height="207">
<rect x="411" y="615" width="207" height="207" fill="#FFA7A7"/>
</mask>
<g mask="url(#mask26_496_71270)">
<path d="M537.379 615.52L521.943 616.411L542.128 664.796L573.297 619.379L553.705 615.817C553.903 610.869 554.497 605.032 555.486 598.303C575.078 598.501 588.238 598.6 594.966 598.6C595.56 598.6 600.013 598.6 608.324 598.6C616.834 598.402 624.156 598.303 630.291 598.303C630.093 603.844 629.499 609.583 628.509 615.52L600.606 619.676L553.408 684.387L600.309 778.189L619.307 778.486C619.109 783.829 618.417 789.766 617.229 796.297C609.314 796.297 602.783 796.198 597.638 796C592.691 796 589.128 796 586.952 796C584.775 796 583.291 796 582.499 796L528.771 796.297C528.968 790.36 529.661 784.423 530.848 778.486H550.143L521.646 717.634L482.463 775.221L507.398 778.783C507.2 784.126 506.507 789.964 505.32 796.297C496.217 796.297 488.598 796.198 482.463 796C476.526 796 472.272 796 469.699 796C467.126 796 465.444 796 464.653 796L427.844 796.297C428.042 790.756 428.636 785.017 429.625 779.08L454.56 775.221L510.96 698.933L472.667 616.707L454.263 615.817C454.263 610.474 454.857 604.636 456.044 598.303C473.855 598.501 486.124 598.6 492.853 598.6C493.248 598.6 499.185 598.6 510.663 598.6C522.339 598.402 531.838 598.303 539.16 598.303C538.962 603.844 538.368 609.583 537.379 615.52Z" fill="black"/>
</g>
<mask id="mask27_496_71270" style="mask-type:alpha" maskUnits="userSpaceOnUse" x="1233" y="615" width="207" height="207">
<rect x="1233" y="615" width="207" height="207" fill="#FFA7A7"/>
</mask>
<g mask="url(#mask27_496_71270)">
<path d="M1342.55 761.486C1342.55 753.571 1345.12 746.941 1350.26 741.598C1355.41 736.255 1362.14 733.187 1370.45 732.396C1376.98 732.396 1382.22 734.276 1386.18 738.036C1390.34 741.796 1392.41 746.545 1392.41 752.284C1392.41 760.2 1389.84 766.928 1384.7 772.469C1379.55 777.813 1372.63 780.88 1363.92 781.672C1357.39 781.672 1352.14 779.891 1348.19 776.328C1344.43 772.568 1342.55 767.621 1342.55 761.486ZM1379.65 705.977H1365.4L1362.73 581.897L1385.88 578.632L1408.44 581.897L1379.65 705.977Z" fill="black"/>
</g>
</svg>
