<svg width="204" height="369" viewBox="0 0 204 369" fill="none" xmlns="http://www.w3.org/2000/svg">
<rect x="3" y="12" width="198" height="12" rx="6" stroke="black" stroke-width="6"/>
<rect x="3" y="120" width="198" height="12" rx="6" stroke="black" stroke-width="6"/>
<rect x="3" y="228" width="198" height="12" rx="6" stroke="black" stroke-width="6"/>
<rect x="3" y="336" width="198" height="12" rx="6" stroke="black" stroke-width="6"/>
<line x1="7.5" y1="29" x2="7.5" y2="39" stroke="black"/>
<line x1="12.5" y1="29" x2="12.5" y2="39" stroke="black"/>
<line x1="17.5" y1="29" x2="17.5" y2="39" stroke="black"/>
<line x1="22.5" y1="29" x2="22.5" y2="39" stroke="black"/>
<line x1="27.5" y1="29" x2="27.5" y2="45" stroke="black"/>
<line x1="32.5" y1="29" x2="32.5" y2="39" stroke="black"/>
<line x1="37.5" y1="29" x2="37.5" y2="39" stroke="black"/>
<line x1="42.5" y1="29" x2="42.5" y2="39" stroke="black"/>
<line x1="47.5" y1="29" x2="47.5" y2="39" stroke="black"/>
<line x1="52.5" y1="29" x2="52.5" y2="45" stroke="black"/>
<line x1="57.5" y1="29" x2="57.5" y2="39" stroke="black"/>
<line x1="62.5" y1="29" x2="62.5" y2="39" stroke="black"/>
<line x1="67.5" y1="29" x2="67.5" y2="39" stroke="black"/>
<line x1="72.5" y1="29" x2="72.5" y2="39" stroke="black"/>
<line x1="77.5" y1="29" x2="77.5" y2="45" stroke="black"/>
<line x1="82.5" y1="29" x2="82.5" y2="39" stroke="black"/>
<line x1="87.5" y1="29" x2="87.5" y2="39" stroke="black"/>
<line x1="92.5" y1="29" x2="92.5" y2="39" stroke="black"/>
<line x1="97.5" y1="29" x2="97.5" y2="39" stroke="black"/>
<line x1="102.5" y1="29" x2="102.5" y2="45" stroke="black"/>
<line x1="107.5" y1="29" x2="107.5" y2="39" stroke="black"/>
<line x1="112.5" y1="29" x2="112.5" y2="39" stroke="black"/>
<line x1="117.5" y1="29" x2="117.5" y2="39" stroke="black"/>
<line x1="122.5" y1="29" x2="122.5" y2="39" stroke="black"/>
<line x1="127.5" y1="29" x2="127.5" y2="45" stroke="black"/>
<line x1="132.5" y1="29" x2="132.5" y2="39" stroke="black"/>
<line x1="137.5" y1="29" x2="137.5" y2="39" stroke="black"/>
<line x1="142.5" y1="29" x2="142.5" y2="39" stroke="black"/>
<line x1="147.5" y1="29" x2="147.5" y2="39" stroke="black"/>
<line x1="152.5" y1="29" x2="152.5" y2="45" stroke="black"/>
<line x1="157.5" y1="29" x2="157.5" y2="39" stroke="black"/>
<line x1="162.5" y1="29" x2="162.5" y2="39" stroke="black"/>
<line x1="167.5" y1="29" x2="167.5" y2="39" stroke="black"/>
<line x1="172.5" y1="29" x2="172.5" y2="39" stroke="black"/>
<line x1="177.5" y1="29" x2="177.5" y2="45" stroke="black"/>
<line x1="182.5" y1="29" x2="182.5" y2="39" stroke="black"/>
<line x1="187.5" y1="29" x2="187.5" y2="39" stroke="black"/>
<line x1="192.5" y1="29" x2="192.5" y2="39" stroke="black"/>
<line x1="197.5" y1="29" x2="197.5" y2="39" stroke="black"/>
<line x1="8.5" y1="137" x2="8.5" y2="147" stroke="black"/>
<line x1="13.5" y1="137" x2="13.5" y2="147" stroke="black"/>
<line x1="18.5" y1="137" x2="18.5" y2="147" stroke="black"/>
<line x1="23.5" y1="137" x2="23.5" y2="147" stroke="black"/>
<line x1="28.5" y1="137" x2="28.5" y2="153" stroke="black"/>
<line x1="33.5" y1="137" x2="33.5" y2="147" stroke="black"/>
<line x1="38.5" y1="137" x2="38.5" y2="147" stroke="black"/>
<line x1="43.5" y1="137" x2="43.5" y2="147" stroke="black"/>
<line x1="48.5" y1="137" x2="48.5" y2="147" stroke="black"/>
<line x1="53.5" y1="137" x2="53.5" y2="153" stroke="black"/>
<line x1="58.5" y1="137" x2="58.5" y2="147" stroke="black"/>
<line x1="63.5" y1="137" x2="63.5" y2="147" stroke="black"/>
<line x1="68.5" y1="137" x2="68.5" y2="147" stroke="black"/>
<line x1="73.5" y1="137" x2="73.5" y2="147" stroke="black"/>
<line x1="78.5" y1="137" x2="78.5" y2="153" stroke="black"/>
<line x1="83.5" y1="137" x2="83.5" y2="147" stroke="black"/>
<line x1="88.5" y1="137" x2="88.5" y2="147" stroke="black"/>
<line x1="93.5" y1="137" x2="93.5" y2="147" stroke="black"/>
<line x1="98.5" y1="137" x2="98.5" y2="147" stroke="black"/>
<line x1="103.5" y1="137" x2="103.5" y2="153" stroke="black"/>
<line x1="108.5" y1="137" x2="108.5" y2="147" stroke="black"/>
<line x1="113.5" y1="137" x2="113.5" y2="147" stroke="black"/>
<line x1="118.5" y1="137" x2="118.5" y2="147" stroke="black"/>
<line x1="123.5" y1="137" x2="123.5" y2="147" stroke="black"/>
<line x1="128.5" y1="137" x2="128.5" y2="153" stroke="black"/>
<line x1="133.5" y1="137" x2="133.5" y2="147" stroke="black"/>
<line x1="138.5" y1="137" x2="138.5" y2="147" stroke="black"/>
<line x1="143.5" y1="137" x2="143.5" y2="147" stroke="black"/>
<line x1="148.5" y1="137" x2="148.5" y2="147" stroke="black"/>
<line x1="153.5" y1="137" x2="153.5" y2="153" stroke="black"/>
<line x1="158.5" y1="137" x2="158.5" y2="147" stroke="black"/>
<line x1="163.5" y1="137" x2="163.5" y2="147" stroke="black"/>
<line x1="168.5" y1="137" x2="168.5" y2="147" stroke="black"/>
<line x1="173.5" y1="137" x2="173.5" y2="147" stroke="black"/>
<line x1="178.5" y1="137" x2="178.5" y2="153" stroke="black"/>
<line x1="183.5" y1="137" x2="183.5" y2="147" stroke="black"/>
<line x1="188.5" y1="137" x2="188.5" y2="147" stroke="black"/>
<line x1="193.5" y1="137" x2="193.5" y2="147" stroke="black"/>
<line x1="198.5" y1="137" x2="198.5" y2="147" stroke="black"/>
<line x1="12.5" y1="245" x2="12.5" y2="255" stroke="black"/>
<line x1="17.5" y1="245" x2="17.5" y2="255" stroke="black"/>
<line x1="22.5" y1="245" x2="22.5" y2="255" stroke="black"/>
<line x1="27.5" y1="245" x2="27.5" y2="255" stroke="black"/>
<line x1="32.5" y1="245" x2="32.5" y2="261" stroke="black"/>
<line x1="37.5" y1="245" x2="37.5" y2="255" stroke="black"/>
<line x1="42.5" y1="245" x2="42.5" y2="255" stroke="black"/>
<line x1="47.5" y1="245" x2="47.5" y2="255" stroke="black"/>
<line x1="52.5" y1="245" x2="52.5" y2="255" stroke="black"/>
<line x1="57.5" y1="245" x2="57.5" y2="261" stroke="black"/>
<line x1="62.5" y1="245" x2="62.5" y2="255" stroke="black"/>
<line x1="67.5" y1="245" x2="67.5" y2="255" stroke="black"/>
<line x1="72.5" y1="245" x2="72.5" y2="255" stroke="black"/>
<line x1="77.5" y1="245" x2="77.5" y2="255" stroke="black"/>
<line x1="82.5" y1="245" x2="82.5" y2="261" stroke="black"/>
<line x1="87.5" y1="245" x2="87.5" y2="255" stroke="black"/>
<line x1="92.5" y1="245" x2="92.5" y2="255" stroke="black"/>
<line x1="97.5" y1="245" x2="97.5" y2="255" stroke="black"/>
<line x1="102.5" y1="245" x2="102.5" y2="255" stroke="black"/>
<line x1="107.5" y1="245" x2="107.5" y2="261" stroke="black"/>
<line x1="112.5" y1="245" x2="112.5" y2="255" stroke="black"/>
<line x1="117.5" y1="245" x2="117.5" y2="255" stroke="black"/>
<line x1="122.5" y1="245" x2="122.5" y2="255" stroke="black"/>
<line x1="127.5" y1="245" x2="127.5" y2="255" stroke="black"/>
<line x1="132.5" y1="245" x2="132.5" y2="261" stroke="black"/>
<line x1="137.5" y1="245" x2="137.5" y2="255" stroke="black"/>
<line x1="142.5" y1="245" x2="142.5" y2="255" stroke="black"/>
<line x1="147.5" y1="245" x2="147.5" y2="255" stroke="black"/>
<line x1="152.5" y1="245" x2="152.5" y2="255" stroke="black"/>
<line x1="157.5" y1="245" x2="157.5" y2="261" stroke="black"/>
<line x1="162.5" y1="245" x2="162.5" y2="255" stroke="black"/>
<line x1="167.5" y1="245" x2="167.5" y2="255" stroke="black"/>
<line x1="172.5" y1="245" x2="172.5" y2="255" stroke="black"/>
<line x1="177.5" y1="245" x2="177.5" y2="255" stroke="black"/>
<line x1="182.5" y1="245" x2="182.5" y2="261" stroke="black"/>
<line x1="187.5" y1="245" x2="187.5" y2="255" stroke="black"/>
<line x1="192.5" y1="245" x2="192.5" y2="255" stroke="black"/>
<line x1="197.5" y1="245" x2="197.5" y2="255" stroke="black"/>
<line x1="202.5" y1="245" x2="202.5" y2="255" stroke="black"/>
<line x1="8.5" y1="353" x2="8.5" y2="363" stroke="black"/>
<line x1="13.5" y1="353" x2="13.5" y2="363" stroke="black"/>
<line x1="18.5" y1="353" x2="18.5" y2="363" stroke="black"/>
<line x1="23.5" y1="353" x2="23.5" y2="363" stroke="black"/>
<line x1="28.5" y1="353" x2="28.5" y2="369" stroke="black"/>
<line x1="33.5" y1="353" x2="33.5" y2="363" stroke="black"/>
<line x1="38.5" y1="353" x2="38.5" y2="363" stroke="black"/>
<line x1="43.5" y1="353" x2="43.5" y2="363" stroke="black"/>
<line x1="48.5" y1="353" x2="48.5" y2="363" stroke="black"/>
<line x1="53.5" y1="353" x2="53.5" y2="369" stroke="black"/>
<line x1="58.5" y1="353" x2="58.5" y2="363" stroke="black"/>
<line x1="63.5" y1="353" x2="63.5" y2="363" stroke="black"/>
<line x1="68.5" y1="353" x2="68.5" y2="363" stroke="black"/>
<line x1="73.5" y1="353" x2="73.5" y2="363" stroke="black"/>
<line x1="78.5" y1="353" x2="78.5" y2="369" stroke="black"/>
<line x1="83.5" y1="353" x2="83.5" y2="363" stroke="black"/>
<line x1="88.5" y1="353" x2="88.5" y2="363" stroke="black"/>
<line x1="93.5" y1="353" x2="93.5" y2="363" stroke="black"/>
<line x1="98.5" y1="353" x2="98.5" y2="363" stroke="black"/>
<line x1="103.5" y1="353" x2="103.5" y2="369" stroke="black"/>
<line x1="108.5" y1="353" x2="108.5" y2="363" stroke="black"/>
<line x1="113.5" y1="353" x2="113.5" y2="363" stroke="black"/>
<line x1="118.5" y1="353" x2="118.5" y2="363" stroke="black"/>
<line x1="123.5" y1="353" x2="123.5" y2="363" stroke="black"/>
<line x1="128.5" y1="353" x2="128.5" y2="369" stroke="black"/>
<line x1="133.5" y1="353" x2="133.5" y2="363" stroke="black"/>
<line x1="138.5" y1="353" x2="138.5" y2="363" stroke="black"/>
<line x1="143.5" y1="353" x2="143.5" y2="363" stroke="black"/>
<line x1="148.5" y1="353" x2="148.5" y2="363" stroke="black"/>
<line x1="153.5" y1="353" x2="153.5" y2="369" stroke="black"/>
<line x1="158.5" y1="353" x2="158.5" y2="363" stroke="black"/>
<line x1="163.5" y1="353" x2="163.5" y2="363" stroke="black"/>
<line x1="168.5" y1="353" x2="168.5" y2="363" stroke="black"/>
<line x1="173.5" y1="353" x2="173.5" y2="363" stroke="black"/>
<line x1="178.5" y1="353" x2="178.5" y2="369" stroke="black"/>
<line x1="183.5" y1="353" x2="183.5" y2="363" stroke="black"/>
<line x1="188.5" y1="353" x2="188.5" y2="363" stroke="black"/>
<line x1="193.5" y1="353" x2="193.5" y2="363" stroke="black"/>
<line x1="198.5" y1="353" x2="198.5" y2="363" stroke="black"/>
<rect x="30" y="111" width="45" height="31" rx="7" fill="white" stroke="black" stroke-width="6"/>
<rect x="80" y="220" width="45" height="31" rx="7" fill="white" stroke="black" stroke-width="6"/>
<rect x="63" y="326" width="45" height="31" rx="7" fill="white" stroke="black" stroke-width="6"/>
<rect x="131" y="3" width="45" height="31" rx="7" fill="white" stroke="black" stroke-width="6"/>
</svg>
