<svg width="1440" height="978" viewBox="0 0 1440 978" fill="none" xmlns="http://www.w3.org/2000/svg">
<mask id="mask0_426_11852" style="mask-type:alpha" maskUnits="userSpaceOnUse" x="0" y="0" width="1440" height="978">
<rect width="1440" height="978" fill="#D9D9D9"/>
</mask>
<g mask="url(#mask0_426_11852)">
<circle cx="273" cy="958" r="5" fill="black"/>
<circle cx="182" cy="938" r="5" fill="black"/>
<circle cx="91" cy="918" r="5" fill="black"/>
<circle cy="898" r="5" fill="black"/>
<circle cx="473" cy="958" r="5" fill="black"/>
<circle cx="382" cy="938" r="5" fill="black"/>
<circle cx="291" cy="918" r="5" fill="black"/>
<circle cx="200" cy="898" r="5" fill="black"/>
<circle cx="109" cy="878" r="5" fill="black"/>
<circle cx="18" cy="858" r="5" fill="black"/>
<circle cx="673" cy="958" r="5" fill="black"/>
<circle cx="582" cy="938" r="5" fill="black"/>
<circle cx="491" cy="918" r="5" fill="black"/>
<circle cx="400" cy="898" r="5" fill="black"/>
<circle cx="309" cy="878" r="5" fill="black"/>
<circle cx="218" cy="858" r="5" fill="black"/>
<circle cx="127" cy="838" r="5" fill="black"/>
<circle cx="36" cy="818" r="5" fill="black"/>
<circle cx="1218" cy="853" r="5" fill="black"/>
<circle cx="1123" cy="833" r="5" fill="black"/>
<circle cx="1028" cy="813" r="5" fill="black"/>
<circle cx="933" cy="793" r="5" fill="black"/>
<circle cx="648" cy="733" r="5" fill="black"/>
<circle cx="873" cy="958" r="5" fill="black"/>
<circle cx="782" cy="938" r="5" fill="black"/>
<circle cx="691" cy="918" r="5" fill="black"/>
<circle cx="600" cy="898" r="5" fill="black"/>
<circle cx="509" cy="878" r="5" fill="black"/>
<circle cx="418" cy="858" r="5" fill="black"/>
<circle cx="327" cy="838" r="5" fill="black"/>
<circle cx="236" cy="818" r="5" fill="black"/>
<circle cx="145" cy="798" r="5" fill="black"/>
<circle cx="54" cy="778" r="5" fill="black"/>
<circle cx="1236" cy="813" r="5" fill="black"/>
<circle cx="1141" cy="793" r="5" fill="black"/>
<circle cx="1046" cy="773" r="5" fill="black"/>
<circle cx="951" cy="753" r="5" fill="black"/>
<circle cx="1073" cy="958" r="5" fill="black"/>
<circle cx="982" cy="938" r="5" fill="black"/>
<circle cx="891" cy="918" r="5" fill="black"/>
<circle cx="800" cy="898" r="5" fill="black"/>
<circle cx="709" cy="878" r="5" fill="black"/>
<circle cx="618" cy="858" r="5" fill="black"/>
<circle cx="527" cy="838" r="5" fill="black"/>
<circle cx="436" cy="818" r="5" fill="black"/>
<circle cx="345" cy="798" r="5" fill="black"/>
<circle cx="254" cy="778" r="5" fill="black"/>
<circle cx="163" cy="758" r="5" fill="black"/>
<circle cx="72" cy="738" r="5" fill="black"/>
<circle cx="1273" cy="958" r="5" fill="black"/>
<circle cx="1182" cy="938" r="5" fill="black"/>
<circle cx="1091" cy="918" r="5" fill="black"/>
<circle cx="1000" cy="898" r="5" fill="black"/>
<circle cx="909" cy="878" r="5" fill="black"/>
<circle cx="818" cy="858" r="5" fill="black"/>
<circle cx="727" cy="838" r="5" fill="black"/>
<circle cx="636" cy="818" r="5" fill="black"/>
<circle cx="545" cy="798" r="5" fill="black"/>
<circle cx="454" cy="778" r="5" fill="black"/>
<circle cx="363" cy="758" r="5" fill="black"/>
<circle cx="272" cy="738" r="5" fill="black"/>
<circle cx="181" cy="718" r="5" fill="black"/>
<circle cx="90" cy="698" r="5" fill="black"/>
<circle cx="-1" cy="678" r="5" fill="black"/>
<circle cx="318" cy="968" r="5" fill="black"/>
<circle cx="227" cy="948" r="5" fill="black"/>
<circle cx="136" cy="928" r="5" fill="black"/>
<circle cx="45" cy="908" r="5" fill="black"/>
<circle cx="518" cy="968" r="5" fill="black"/>
<circle cx="427" cy="948" r="5" fill="black"/>
<circle cx="336" cy="928" r="5" fill="black"/>
<circle cx="245" cy="908" r="5" fill="black"/>
<circle cx="154" cy="888" r="5" fill="black"/>
<circle cx="63" cy="868" r="5" fill="black"/>
<circle cx="718" cy="968" r="5" fill="black"/>
<circle cx="627" cy="948" r="5" fill="black"/>
<circle cx="536" cy="928" r="5" fill="black"/>
<circle cx="445" cy="908" r="5" fill="black"/>
<circle cx="354" cy="888" r="5" fill="black"/>
<circle cx="263" cy="868" r="5" fill="black"/>
<circle cx="172" cy="848" r="5" fill="black"/>
<circle cx="81" cy="828" r="5" fill="black"/>
<circle cx="1168" cy="843" r="5" fill="black"/>
<circle cx="1073" cy="823" r="5" fill="black"/>
<circle cx="978" cy="803" r="5" fill="black"/>
<circle cx="918" cy="968" r="5" fill="black"/>
<circle cx="827" cy="948" r="5" fill="black"/>
<circle cx="736" cy="928" r="5" fill="black"/>
<circle cx="645" cy="908" r="5" fill="black"/>
<circle cx="554" cy="888" r="5" fill="black"/>
<circle cx="463" cy="868" r="5" fill="black"/>
<circle cx="372" cy="848" r="5" fill="black"/>
<circle cx="281" cy="828" r="5" fill="black"/>
<circle cx="190" cy="808" r="5" fill="black"/>
<circle cx="99" cy="788" r="5" fill="black"/>
<circle cx="8" cy="768" r="5" fill="black"/>
<circle cx="1281" cy="823" r="5" fill="black"/>
<circle cx="1186" cy="803" r="5" fill="black"/>
<circle cx="1091" cy="783" r="5" fill="black"/>
<circle cx="996" cy="763" r="5" fill="black"/>
<circle cx="1118" cy="968" r="5" fill="black"/>
<circle cx="1027" cy="948" r="5" fill="black"/>
<circle cx="936" cy="928" r="5" fill="black"/>
<circle cx="845" cy="908" r="5" fill="black"/>
<circle cx="754" cy="888" r="5" fill="black"/>
<circle cx="663" cy="868" r="5" fill="black"/>
<circle cx="572" cy="848" r="5" fill="black"/>
<circle cx="481" cy="828" r="5" fill="black"/>
<circle cx="390" cy="808" r="5" fill="black"/>
<circle cx="299" cy="788" r="5" fill="black"/>
<circle cx="208" cy="768" r="5" fill="black"/>
<circle cx="117" cy="748" r="5" fill="black"/>
<circle cx="26" cy="728" r="5" fill="black"/>
<circle cx="1318" cy="968" r="5" fill="black"/>
<circle cx="1227" cy="948" r="5" fill="black"/>
<circle cx="1136" cy="928" r="5" fill="black"/>
<circle cx="1045" cy="908" r="5" fill="black"/>
<circle cx="954" cy="888" r="5" fill="black"/>
<circle cx="863" cy="868" r="5" fill="black"/>
<circle cx="772" cy="848" r="5" fill="black"/>
<circle cx="681" cy="828" r="5" fill="black"/>
<circle cx="590" cy="808" r="5" fill="black"/>
<circle cx="499" cy="788" r="5" fill="black"/>
<circle cx="408" cy="768" r="5" fill="black"/>
<circle cx="317" cy="748" r="5" fill="black"/>
<circle cx="226" cy="728" r="5" fill="black"/>
<circle cx="135" cy="708" r="5" fill="black"/>
<circle cx="44" cy="688" r="5" fill="black"/>
<circle cx="106" cy="968" r="5" fill="black"/>
<circle cx="60" cy="958" r="5" fill="black"/>
<circle cx="14" cy="948" r="5" fill="black"/>
<circle cx="1313" cy="873" r="5" fill="black"/>
<circle cx="1358" cy="883" r="5" fill="black"/>
<line x1="-22.354" y1="490.07" x2="1460.65" y2="817.07" stroke="black" stroke-width="6"/>
<line x1="-42.354" y1="653.07" x2="1440.65" y2="980.07" stroke="black" stroke-width="6"/>
<line x1="-42.677" y1="643.535" x2="1440.32" y2="970.535" stroke="black" stroke-width="3"/>
<line x1="-42.677" y1="635.535" x2="1440.32" y2="962.535" stroke="black" stroke-width="3"/>
<line x1="-42.677" y1="627.535" x2="1440.32" y2="954.535" stroke="black" stroke-width="3"/>
<line x1="-42.677" y1="619.535" x2="1440.32" y2="946.535" stroke="black" stroke-width="3"/>
<line x1="-42.677" y1="611.535" x2="1440.32" y2="938.535" stroke="black" stroke-width="3"/>
<line x1="-42.677" y1="603.535" x2="1440.32" y2="930.535" stroke="black" stroke-width="3"/>
<line x1="-42.677" y1="595.535" x2="1440.32" y2="922.535" stroke="black" stroke-width="3"/>
<line x1="-42.677" y1="587.535" x2="1440.32" y2="914.535" stroke="black" stroke-width="3"/>
<line x1="-42.677" y1="579.535" x2="1440.32" y2="906.535" stroke="black" stroke-width="3"/>
<line x1="-42.677" y1="571.535" x2="1440.32" y2="898.535" stroke="black" stroke-width="3"/>
<line x1="-42.677" y1="563.535" x2="1440.32" y2="890.535" stroke="black" stroke-width="3"/>
<line x1="-42.677" y1="555.535" x2="1440.32" y2="882.535" stroke="black" stroke-width="3"/>
<line x1="-42.677" y1="547.535" x2="1440.32" y2="874.535" stroke="black" stroke-width="3"/>
<line x1="-42.677" y1="539.535" x2="1440.32" y2="866.535" stroke="black" stroke-width="3"/>
<line x1="-42.677" y1="531.535" x2="1440.32" y2="858.535" stroke="black" stroke-width="3"/>
<line x1="-42.677" y1="523.535" x2="1440.32" y2="850.535" stroke="black" stroke-width="3"/>
<line x1="-42.677" y1="515.535" x2="1440.32" y2="842.535" stroke="black" stroke-width="3"/>
<line x1="-42.677" y1="507.535" x2="1440.32" y2="834.535" stroke="black" stroke-width="3"/>
<line x1="-42.677" y1="499.535" x2="1440.32" y2="826.535" stroke="black" stroke-width="3"/>
<line x1="-42.677" y1="491.535" x2="1440.32" y2="818.535" stroke="black" stroke-width="3"/>
<line x1="-21.354" y1="163.07" x2="1461.65" y2="490.07" stroke="black" stroke-width="6"/>
<circle cx="1424" cy="454" r="5" fill="black"/>
<circle cx="1437" cy="411" r="5" fill="black"/>
<circle cx="1378" cy="444" r="5" fill="black"/>
<circle cx="1396" cy="404" r="5" fill="black"/>
<circle cx="1305" cy="384" r="5" fill="black"/>
<circle cx="1214" cy="364" r="5" fill="black"/>
<circle cx="1123" cy="344" r="5" fill="black"/>
<circle cx="1032" cy="324" r="5" fill="black"/>
<circle cx="941" cy="304" r="5" fill="black"/>
<circle cx="850" cy="284" r="5" fill="black"/>
<circle cx="759" cy="264" r="5" fill="black"/>
<circle cx="668" cy="244" r="5" fill="black"/>
<circle cx="577" cy="224" r="5" fill="black"/>
<circle cx="486" cy="204" r="5" fill="black"/>
<circle cx="395" cy="184" r="5" fill="black"/>
<circle cx="304" cy="164" r="5" fill="black"/>
<circle cx="213" cy="144" r="5" fill="black"/>
<circle cx="122" cy="124" r="5" fill="black"/>
<circle cx="31" cy="104" r="5" fill="black"/>
<circle cx="1414" cy="364" r="5" fill="black"/>
<circle cx="1323" cy="344" r="5" fill="black"/>
<circle cx="1232" cy="324" r="5" fill="black"/>
<circle cx="1141" cy="304" r="5" fill="black"/>
<circle cx="1050" cy="284" r="5" fill="black"/>
<circle cx="959" cy="264" r="5" fill="black"/>
<circle cx="868" cy="244" r="5" fill="black"/>
<circle cx="777" cy="224" r="5" fill="black"/>
<circle cx="686" cy="204" r="5" fill="black"/>
<circle cx="595" cy="184" r="5" fill="black"/>
<circle cx="504" cy="164" r="5" fill="black"/>
<circle cx="413" cy="144" r="5" fill="black"/>
<circle cx="322" cy="124" r="5" fill="black"/>
<circle cx="231" cy="104" r="5" fill="black"/>
<circle cx="140" cy="84" r="5" fill="black"/>
<circle cx="49" cy="64" r="5" fill="black"/>
<circle cx="1432" cy="324" r="5" fill="black"/>
<circle cx="1341" cy="304" r="5" fill="black"/>
<circle cx="1322" cy="119" r="5" fill="black"/>
<circle cx="1227" cy="99" r="5" fill="black"/>
<circle cx="1132" cy="79" r="5" fill="black"/>
<circle cx="1037" cy="59" r="5" fill="black"/>
<circle cx="942" cy="39" r="5" fill="black"/>
<circle cx="847" cy="19" r="5" fill="black"/>
<circle cx="752" cy="4" r="5" fill="black"/>
<circle cx="1250" cy="284" r="5" fill="black"/>
<circle cx="1159" cy="264" r="5" fill="black"/>
<circle cx="1068" cy="244" r="5" fill="black"/>
<circle cx="977" cy="224" r="5" fill="black"/>
<circle cx="886" cy="204" r="5" fill="black"/>
<circle cx="795" cy="184" r="5" fill="black"/>
<circle cx="704" cy="164" r="5" fill="black"/>
<circle cx="613" cy="144" r="5" fill="black"/>
<circle cx="522" cy="124" r="5" fill="black"/>
<circle cx="431" cy="104" r="5" fill="black"/>
<circle cx="340" cy="84" r="5" fill="black"/>
<circle cx="249" cy="64" r="5" fill="black"/>
<circle cx="158" cy="44" r="5" fill="black"/>
<circle cx="67" cy="24" r="5" fill="black"/>
<circle cx="1359" cy="264" r="5" fill="black"/>
<circle cx="1340" cy="79" r="5" fill="black"/>
<circle cx="1245" cy="59" r="5" fill="black"/>
<circle cx="1150" cy="39" r="5" fill="black"/>
<circle cx="1055" cy="19" r="5" fill="black"/>
<circle cx="960" cy="4" r="5" fill="black"/>
<circle cx="1268" cy="244" r="5" fill="black"/>
<circle cx="1177" cy="224" r="5" fill="black"/>
<circle cx="1086" cy="204" r="5" fill="black"/>
<circle cx="995" cy="184" r="5" fill="black"/>
<circle cx="904" cy="164" r="5" fill="black"/>
<circle cx="813" cy="144" r="5" fill="black"/>
<circle cx="722" cy="124" r="5" fill="black"/>
<circle cx="631" cy="104" r="5" fill="black"/>
<circle cx="540" cy="84" r="5" fill="black"/>
<circle cx="449" cy="64" r="5" fill="black"/>
<circle cx="358" cy="44" r="5" fill="black"/>
<circle cx="267" cy="24" r="5" fill="black"/>
<circle cx="176" cy="4" r="5" fill="black"/>
<circle cx="1377" cy="224" r="5" fill="black"/>
<circle cx="1358" cy="39" r="5" fill="black"/>
<circle cx="1263" cy="19" r="5" fill="black"/>
<circle cx="1168" cy="4" r="5" fill="black"/>
<circle cx="1286" cy="204" r="5" fill="black"/>
<circle cx="1195" cy="184" r="5" fill="black"/>
<circle cx="1104" cy="164" r="5" fill="black"/>
<circle cx="1013" cy="144" r="5" fill="black"/>
<circle cx="922" cy="124" r="5" fill="black"/>
<circle cx="831" cy="104" r="5" fill="black"/>
<circle cx="740" cy="84" r="5" fill="black"/>
<circle cx="649" cy="64" r="5" fill="black"/>
<circle cx="558" cy="44" r="5" fill="black"/>
<circle cx="467" cy="24" r="5" fill="black"/>
<circle cx="376" cy="4" r="5" fill="black"/>
<circle cx="1395" cy="184" r="5" fill="black"/>
<circle cx="1376" cy="4" r="5" fill="black"/>
<circle cx="1304" cy="164" r="5" fill="black"/>
<circle cx="1213" cy="144" r="5" fill="black"/>
<circle cx="1122" cy="124" r="5" fill="black"/>
<circle cx="1031" cy="104" r="5" fill="black"/>
<circle cx="940" cy="84" r="5" fill="black"/>
<circle cx="849" cy="64" r="5" fill="black"/>
<circle cx="758" cy="44" r="5" fill="black"/>
<circle cx="667" cy="24" r="5" fill="black"/>
<circle cx="576" cy="4" r="5" fill="black"/>
<circle cx="1332" cy="434" r="5" fill="black"/>
<circle cx="1350" cy="394" r="5" fill="black"/>
<circle cx="1259" cy="374" r="5" fill="black"/>
<circle cx="1168" cy="354" r="5" fill="black"/>
<circle cx="1077" cy="334" r="5" fill="black"/>
<circle cx="986" cy="314" r="5" fill="black"/>
<circle cx="895" cy="294" r="5" fill="black"/>
<circle cx="804" cy="274" r="5" fill="black"/>
<circle cx="713" cy="254" r="5" fill="black"/>
<circle cx="622" cy="234" r="5" fill="black"/>
<circle cx="531" cy="214" r="5" fill="black"/>
<circle cx="440" cy="194" r="5" fill="black"/>
<circle cx="349" cy="174" r="5" fill="black"/>
<circle cx="258" cy="154" r="5" fill="black"/>
<circle cx="167" cy="134" r="5" fill="black"/>
<circle cx="76" cy="114" r="5" fill="black"/>
<circle cx="1368" cy="354" r="5" fill="black"/>
<circle cx="1277" cy="334" r="5" fill="black"/>
<circle cx="1186" cy="314" r="5" fill="black"/>
<circle cx="1095" cy="294" r="5" fill="black"/>
<circle cx="1004" cy="274" r="5" fill="black"/>
<circle cx="913" cy="254" r="5" fill="black"/>
<circle cx="822" cy="234" r="5" fill="black"/>
<circle cx="731" cy="214" r="5" fill="black"/>
<circle cx="640" cy="194" r="5" fill="black"/>
<circle cx="549" cy="174" r="5" fill="black"/>
<circle cx="458" cy="154" r="5" fill="black"/>
<circle cx="367" cy="134" r="5" fill="black"/>
<circle cx="276" cy="114" r="5" fill="black"/>
<circle cx="185" cy="94" r="5" fill="black"/>
<circle cx="94" cy="74" r="5" fill="black"/>
<circle cx="3" cy="54" r="5" fill="black"/>
<circle cx="1386" cy="314" r="5" fill="black"/>
<circle cx="1367" cy="129" r="5" fill="black"/>
<circle cx="1272" cy="109" r="5" fill="black"/>
<circle cx="1177" cy="89" r="5" fill="black"/>
<circle cx="1082" cy="69" r="5" fill="black"/>
<circle cx="987" cy="49" r="5" fill="black"/>
<circle cx="892" cy="29" r="5" fill="black"/>
<circle cx="797" cy="9" r="5" fill="black"/>
<circle cx="1295" cy="294" r="5" fill="black"/>
<circle cx="1204" cy="274" r="5" fill="black"/>
<circle cx="1113" cy="254" r="5" fill="black"/>
<circle cx="1022" cy="234" r="5" fill="black"/>
<circle cx="931" cy="214" r="5" fill="black"/>
<circle cx="840" cy="194" r="5" fill="black"/>
<circle cx="749" cy="174" r="5" fill="black"/>
<circle cx="658" cy="154" r="5" fill="black"/>
<circle cx="567" cy="134" r="5" fill="black"/>
<circle cx="476" cy="114" r="5" fill="black"/>
<circle cx="385" cy="94" r="5" fill="black"/>
<circle cx="294" cy="74" r="5" fill="black"/>
<circle cx="203" cy="54" r="5" fill="black"/>
<circle cx="112" cy="34" r="5" fill="black"/>
<circle cx="21" cy="14" r="5" fill="black"/>
<circle cx="1404" cy="274" r="5" fill="black"/>
<circle cx="1385" cy="89" r="5" fill="black"/>
<circle cx="1290" cy="69" r="5" fill="black"/>
<circle cx="1195" cy="49" r="5" fill="black"/>
<circle cx="1100" cy="29" r="5" fill="black"/>
<circle cx="1005" cy="9" r="5" fill="black"/>
<circle cx="1313" cy="254" r="5" fill="black"/>
<circle cx="1222" cy="234" r="5" fill="black"/>
<circle cx="1131" cy="214" r="5" fill="black"/>
<circle cx="1040" cy="194" r="5" fill="black"/>
<circle cx="949" cy="174" r="5" fill="black"/>
<circle cx="858" cy="154" r="5" fill="black"/>
<circle cx="767" cy="134" r="5" fill="black"/>
<circle cx="676" cy="114" r="5" fill="black"/>
<circle cx="585" cy="94" r="5" fill="black"/>
<circle cx="494" cy="74" r="5" fill="black"/>
<circle cx="403" cy="54" r="5" fill="black"/>
<circle cx="312" cy="34" r="5" fill="black"/>
<circle cx="221" cy="14" r="5" fill="black"/>
<circle cx="1422" cy="234" r="5" fill="black"/>
<circle cx="1403" cy="49" r="5" fill="black"/>
<circle cx="1308" cy="29" r="5" fill="black"/>
<circle cx="1213" cy="9" r="5" fill="black"/>
<circle cx="1331" cy="214" r="5" fill="black"/>
<circle cx="1240" cy="194" r="5" fill="black"/>
<circle cx="1149" cy="174" r="5" fill="black"/>
<circle cx="1058" cy="154" r="5" fill="black"/>
<circle cx="967" cy="134" r="5" fill="black"/>
<circle cx="876" cy="114" r="5" fill="black"/>
<circle cx="785" cy="94" r="5" fill="black"/>
<circle cx="694" cy="74" r="5" fill="black"/>
<circle cx="603" cy="54" r="5" fill="black"/>
<circle cx="512" cy="34" r="5" fill="black"/>
<circle cx="421" cy="14" r="5" fill="black"/>
<circle cx="1440" cy="194" r="5" fill="black"/>
<circle cx="1421" cy="9" r="5" fill="black"/>
<circle cx="1349" cy="174" r="5" fill="black"/>
<circle cx="1258" cy="154" r="5" fill="black"/>
<circle cx="1167" cy="134" r="5" fill="black"/>
<circle cx="1076" cy="114" r="5" fill="black"/>
<circle cx="985" cy="94" r="5" fill="black"/>
<circle cx="894" cy="74" r="5" fill="black"/>
<circle cx="803" cy="54" r="5" fill="black"/>
<circle cx="712" cy="34" r="5" fill="black"/>
<circle cx="621" cy="14" r="5" fill="black"/>
<circle cx="1286" cy="424" r="5" fill="black"/>
<circle cx="1240" cy="414" r="5" fill="black"/>
<circle cx="1194" cy="404" r="5" fill="black"/>
<circle cx="1148" cy="394" r="5" fill="black"/>
<circle cx="1102" cy="384" r="5" fill="black"/>
<circle cx="1056" cy="374" r="5" fill="black"/>
<circle cx="1010" cy="364" r="5" fill="black"/>
<circle cx="964" cy="354" r="5" fill="black"/>
<circle cx="918" cy="344" r="5" fill="black"/>
<circle cx="872" cy="334" r="5" fill="black"/>
<circle cx="826" cy="324" r="5" fill="black"/>
<circle cx="780" cy="314" r="5" fill="black"/>
<circle cx="734" cy="304" r="5" fill="black"/>
<circle cx="688" cy="294" r="5" fill="black"/>
<circle cx="642" cy="284" r="5" fill="black"/>
<circle cx="596" cy="274" r="5" fill="black"/>
<circle cx="550" cy="264" r="5" fill="black"/>
<circle cx="504" cy="254" r="5" fill="black"/>
<circle cx="458" cy="244" r="5" fill="black"/>
<circle cx="412" cy="234" r="5" fill="black"/>
<circle cx="366" cy="224" r="5" fill="black"/>
<circle cx="320" cy="214" r="5" fill="black"/>
<circle cx="274" cy="204" r="5" fill="black"/>
<circle cx="228" cy="194" r="5" fill="black"/>
<circle cx="182" cy="184" r="5" fill="black"/>
<circle cx="136" cy="174" r="5" fill="black"/>
<circle cx="90" cy="164" r="5" fill="black"/>
<circle cx="44" cy="154" r="5" fill="black"/>
<circle cx="-2" cy="144" r="5" fill="black"/>
<circle cx="-2" cy="144" r="5" fill="black"/>
<circle cx="1417" cy="139" r="5" fill="black"/>
<circle cx="1435" cy="99" r="5" fill="black"/>
<path d="M338.895 48L62 188.358L342 257L338.895 48Z" fill="white"/>
<line x1="543.641" y1="581.069" x2="927.641" y2="665.069" stroke="black" stroke-width="6"/>
<line x1="543.65" y1="495.071" x2="926.65" y2="580.071" stroke="black" stroke-width="6"/>
<line x1="926" y1="666" x2="926" y2="580" stroke="black" stroke-width="6"/>
<line x1="1124" y1="513" x2="1124" y2="425" stroke="black" stroke-width="6"/>
<line x1="925.163" y1="665.628" x2="1125.24" y2="510.628" stroke="black" stroke-width="6"/>
<line x1="924.16" y1="582.217" x2="1123.16" y2="427.631" stroke="black" stroke-width="6"/>
<line x1="541.415" y1="493.453" x2="772.916" y2="349.453" stroke="black" stroke-width="6"/>
<ellipse cx="835.62" cy="449.102" rx="154.5" ry="68.1481" transform="rotate(1.85069 835.62 449.102)" fill="black"/>
<path d="M684.589 440.174L684.574 462.286C683.99 480.351 699.36 498.19 727.302 511.88C755.245 525.57 793.47 533.988 833.571 535.284C873.671 536.58 912.36 530.646 941.128 518.789C969.896 506.932 986.385 490.122 986.969 472.057L986.982 453.466" stroke="black" stroke-width="6"/>
<ellipse cx="834.796" cy="448.508" rx="41.23" ry="18.1861" transform="rotate(1.85069 834.796 448.508)" fill="white"/>
<ellipse cx="835" cy="449.5" rx="5" ry="2.5" fill="black"/>
<path d="M1065 433.5C1065 435.756 1063.09 438.605 1058.16 441.07C1053.41 443.445 1046.64 445 1039 445C1031.36 445 1024.59 443.445 1019.84 441.07C1014.91 438.605 1013 435.756 1013 433.5C1013 431.244 1014.91 428.395 1019.84 425.93C1024.59 423.555 1031.36 422 1039 422C1046.64 422 1053.41 423.555 1058.16 425.93C1063.09 428.395 1065 431.244 1065 433.5Z" fill="white" stroke="black" stroke-width="6"/>
<path d="M1013 433.5V451.647C1013 455.719 1015.74 459.624 1020.62 462.503C1025.49 465.382 1032.1 467 1039 467C1045.9 467 1052.51 465.382 1057.38 462.503C1062.26 459.624 1065 455.719 1065 451.647V434.176" stroke="black" stroke-width="6"/>
<rect x="893" y="416" width="155" height="13" rx="6.5" fill="white" stroke="black" stroke-width="6"/>
<rect x="928.126" y="548.587" width="124.783" height="13" rx="6.5" transform="rotate(-37.84 928.126 548.587)" fill="white" stroke="black" stroke-width="6"/>
<path d="M611.639 465.398L644.612 472.865C648.024 473.637 648.87 478.11 645.975 480.075L620.792 497.173C619.888 497.787 618.772 498.004 617.704 497.774L582.564 490.211C579.047 489.455 578.239 484.803 581.293 482.904L608.644 465.902C609.537 465.347 610.613 465.166 611.639 465.398Z" stroke="black" stroke-width="6"/>
<path d="M873.1 640.097V581.707L914 590.428V649.254L873.1 640.097Z" stroke="black" stroke-width="6"/>
<line x1="543" y1="584" x2="543" y2="491" stroke="black" stroke-width="6"/>
<line x1="770.646" y1="350.07" x2="1125.84" y2="428.36" stroke="black" stroke-width="6"/>
<path d="M1090 691.013V250.373L1087.5 192.5L1233 67.5L1450 114.373V318.373V764L1090 691.013Z" fill="white"/>
<line x1="156" y1="494" x2="156" y2="426" stroke="black" stroke-width="6"/>
<path d="M169 450.72L187 454.62L187 482.241L169 478.146L169 450.72Z" stroke="black" stroke-width="6"/>
<path d="M198 474.571V456.705L255.5 468.929V486.795L198 474.571Z" stroke="black" stroke-width="6"/>
<line x1="153.646" y1="430.07" x2="374.866" y2="478.83" stroke="black" stroke-width="6"/>
<line x1="383.648" y1="310.071" x2="592.766" y2="356.3" stroke="black" stroke-width="6"/>
<line x1="374.507" y1="539.398" x2="592.408" y2="414.398" stroke="black" stroke-width="6"/>
<line x1="374.525" y1="479.387" x2="592.426" y2="356.388" stroke="black" stroke-width="6"/>
<line x1="154.834" y1="428.738" x2="385.418" y2="309.928" stroke="black" stroke-width="6"/>
<path d="M208.308 420.851L388.465 328.024C388.902 327.799 389.407 327.742 389.883 327.866L396.912 329.688C398.672 330.145 398.959 332.523 397.358 333.385L222.763 427.434C222.329 427.667 221.823 427.733 221.344 427.617L208.754 424.572C206.954 424.137 206.662 421.699 208.308 420.851Z" stroke="black" stroke-width="6"/>
<path d="M273.308 434.851L453.465 342.024C453.902 341.799 454.407 341.742 454.883 341.866L461.912 343.688C463.672 344.145 463.959 346.523 462.358 347.385L287.763 441.434C287.329 441.667 286.823 441.733 286.344 441.617L273.754 438.572C271.954 438.137 271.662 435.699 273.308 434.851Z" stroke="black" stroke-width="6"/>
<path d="M346.308 448.851L526.465 356.024C526.902 355.799 527.407 355.742 527.883 355.866L534.912 357.688C536.672 358.145 536.959 360.523 535.358 361.385L360.763 455.434C360.329 455.667 359.823 455.733 359.344 455.617L346.754 452.572C344.954 452.137 344.662 449.699 346.308 448.851Z" stroke="black" stroke-width="6"/>
<path d="M322.351 380.211L308.044 388.365C307.032 388.941 305.819 389.048 304.722 388.658L283.81 381.214C282.071 380.595 280.981 378.867 281.172 377.031L282.545 363.853C282.756 361.824 284.461 360.278 286.502 360.268L320.977 360.086C323.272 360.074 325.107 361.992 324.993 364.284L324.365 376.934C324.297 378.299 323.538 379.535 322.351 380.211Z" fill="white" stroke="black" stroke-width="6"/>
<path d="M303.948 351.603L322.846 357.964C326.172 359.084 326.547 363.638 323.449 365.286L308.141 373.43C307.183 373.94 306.059 374.038 305.027 373.703L284.895 367.164C281.464 366.049 281.145 361.32 284.395 359.755L300.937 351.79C301.878 351.337 302.959 351.27 303.948 351.603Z" fill="black" stroke="black" stroke-width="6"/>
<path d="M318.438 429.77L304.131 437.923C303.119 438.5 301.907 438.607 300.809 438.216L279.897 430.772C278.158 430.153 277.069 428.425 277.26 426.59L278.632 413.412C278.844 411.382 280.549 409.837 282.59 409.826L317.065 409.644C319.36 409.632 321.195 411.55 321.081 413.843L320.453 426.493C320.385 427.858 319.625 429.093 318.438 429.77Z" fill="white" stroke="black" stroke-width="6"/>
<path d="M300.036 401.161L318.934 407.522C322.26 408.642 322.635 413.197 319.536 414.845L304.229 422.988C303.271 423.498 302.147 423.597 301.115 423.261L280.982 416.722C277.552 415.607 277.233 410.879 280.483 409.314L297.025 401.348C297.965 400.895 299.046 400.828 300.036 401.161Z" fill="black" stroke="black" stroke-width="6"/>
<path d="M515.438 378.77L501.131 386.923C500.119 387.5 498.907 387.607 497.809 387.216L476.897 379.772C475.158 379.153 474.069 377.425 474.26 375.59L475.632 362.412C475.844 360.382 477.549 358.837 479.59 358.826L514.065 358.644C516.36 358.632 518.195 360.55 518.081 362.843L517.453 375.493C517.385 376.858 516.625 378.093 515.438 378.77Z" fill="white" stroke="black" stroke-width="6"/>
<path d="M497.036 350.161L515.934 356.522C519.26 357.642 519.635 362.197 516.536 363.845L501.229 371.988C500.271 372.498 499.147 372.597 498.115 372.261L477.982 365.722C474.552 364.607 474.233 359.879 477.483 358.314L494.025 350.348C494.965 349.895 496.046 349.828 497.036 350.161Z" fill="black" stroke="black" stroke-width="6"/>
<line x1="375" y1="540" x2="375" y2="478" stroke="black" stroke-width="6"/>
<line x1="153.631" y1="491.067" x2="376.631" y2="539.067" stroke="black" stroke-width="6"/>
<line x1="591" y1="417" x2="591" y2="353" stroke="black" stroke-width="6"/>
<line x1="44.6398" y1="434.42" x2="343.64" y2="282.326" stroke="black" stroke-width="6"/>
<path d="M107.5 10.9999L330.701 56.6309L299.71 229.536L-119.5 152L107.5 10.9999Z" fill="white"/>
<line x1="41.6406" y1="198.326" x2="342.641" y2="45.3257" stroke="black" stroke-width="6"/>
<path d="M43 432V196" stroke="black" stroke-width="6"/>
<path d="M342 285V44" stroke="black" stroke-width="6"/>
<line x1="-176.369" y1="386.067" x2="46.6313" y2="434.067" stroke="black" stroke-width="6"/>
<line x1="-176.369" y1="151.067" x2="46.6313" y2="199.067" stroke="black" stroke-width="6"/>
<line x1="119.626" y1="-1.93398" x2="344.626" y2="46.066" stroke="black" stroke-width="6"/>
<line x1="-171.359" y1="148.326" x2="129.641" y2="-4.67434" stroke="black" stroke-width="6"/>
<path d="M298 254.484L330 237.93L330 273.516L298 290.07V254.484Z" stroke="black" stroke-width="6"/>
<path d="M228.5 125.342L329.5 74.074V197.1L228.5 248.303V125.342Z" stroke="black" stroke-width="6"/>
<path d="M114 183.155L215 131.887V254.913L114 306.116V183.155Z" stroke="black" stroke-width="6"/>
<path d="M1086 193L1235 64" stroke="black" stroke-width="6"/>
<path d="M1087 690L1087 191" stroke="black" stroke-width="6"/>
<path d="M1458 530C1458 622.948 1386.88 698 1299.5 698C1212.12 698 1141 622.948 1141 530C1141 437.052 1212.12 362 1299.5 362C1386.88 362 1458 437.052 1458 530Z" stroke="black" stroke-width="6"/>
<path d="M1421 531C1421 602.412 1366.44 660 1299.5 660C1232.56 660 1178 602.412 1178 531C1178 459.588 1232.56 402 1299.5 402C1366.44 402 1421 459.588 1421 531Z" fill="black" stroke="black" stroke-width="6"/>
<path d="M1341 530C1341 553.293 1322.77 572 1300.5 572C1278.23 572 1260 553.293 1260 530C1260 506.707 1278.23 488 1300.5 488C1322.77 488 1341 506.707 1341 530Z" fill="white" stroke="black" stroke-width="6"/>
<path d="M1105 316.326V212.74L1229 240.282V343.278L1105 316.326Z" stroke="black" stroke-width="6"/>
<path d="M1365 352.288V275.739L1457 296.168V372.278L1365 352.288Z" stroke="black" stroke-width="6"/>
<ellipse cx="1167" cy="278.5" rx="47" ry="45.5" fill="black"/>
<ellipse cx="1167" cy="278.5" rx="25" ry="24.5" fill="white"/>
<circle cx="1300" cy="531" r="12" fill="black"/>
<circle cx="1167" cy="278" r="7" fill="black"/>
<line x1="1084.64" y1="687.069" x2="1468.64" y2="771.069" stroke="black" stroke-width="6"/>
<line x1="1086.64" y1="194.069" x2="1470.64" y2="278.069" stroke="black" stroke-width="6"/>
<line x1="1232.64" y1="65.0693" x2="1616.64" y2="149.069" stroke="black" stroke-width="6"/>
<path d="M38 635.59V528.731L505 631.412V738.765L38 635.59Z" fill="white" stroke="black" stroke-width="6"/>
<path d="M524 743.085V635.713L662 665.371V773.273L524 743.085Z" fill="white" stroke="black" stroke-width="6"/>
<path d="M1280 909.586V800.742L1420 831.932V940.271L1280 909.586Z" fill="white" stroke="black" stroke-width="6"/>
<path d="M1310 891.577V828.715L1390 845.949V909.264L1310 891.577Z" fill="white" stroke="black" stroke-width="6"/>
<path d="M912 828.59V719.734L1259.5 796.41V905.266L912 828.59Z" fill="white" stroke="black" stroke-width="6"/>
<path d="M104.923 573.716L116.343 576.3C121.812 577.537 126.147 579.592 129.346 582.464C132.599 585.348 134.208 588.934 134.173 593.222C134.147 596.355 133.027 598.745 130.811 600.391C128.648 602.05 126.384 602.997 124.019 603.233C125.358 603.756 126.695 604.472 128.03 605.38C129.42 606.245 130.861 607.369 132.354 608.754C133.9 610.095 135.122 611.776 136.019 613.796C136.969 615.774 137.436 617.862 137.418 620.061C137.376 625.173 135.467 628.706 131.69 630.661C127.968 632.627 122.648 632.828 115.731 631.263C115.195 631.141 113.667 630.768 111.148 630.143C108.682 629.53 106.323 628.941 104.072 628.376C103.482 628.243 101.605 627.846 98.441 627.185C95.2775 626.469 93.1596 625.99 92.0873 625.747C91.9913 624.349 92.0017 623.084 92.1184 621.954L99.198 623.308C99.3904 619.497 99.5362 611.544 99.6354 599.45L99.7294 587.989C99.78 581.832 99.7843 578.033 99.7424 576.591C99.4207 576.519 98.2145 576.218 96.1238 575.69C94.0332 575.162 92.8809 574.846 92.6668 574.743C92.5695 573.509 92.5801 572.217 92.6986 570.867C93.9855 571.158 96.2104 571.689 99.3734 572.46C102.537 573.176 104.387 573.594 104.923 573.716ZM114.803 626.591C118.824 627.501 121.834 627.246 123.834 625.826C125.887 624.363 126.927 622.01 126.953 618.767C127.017 611.071 122.785 606.258 114.26 604.329L111.606 603.729C111.553 603.716 111.177 603.659 110.48 603.556C109.836 603.411 109.488 603.332 109.434 603.32C109.342 614.589 109.335 621.885 109.416 625.207C110.594 625.584 112.39 626.045 114.803 626.591ZM113.814 580.106L109.873 579.214C109.684 582.641 109.549 589.274 109.468 599.114C109.576 599.139 109.924 599.245 110.513 599.433C111.103 599.567 111.452 599.646 111.559 599.67L113.972 600.216C116.813 600.859 119.153 600.562 120.989 599.325C122.88 598.046 123.838 595.785 123.865 592.541C123.92 585.78 120.57 581.635 113.814 580.106Z" fill="black"/>
<path d="M172.059 601.464L171.026 609.491C169.045 608.657 167.411 608.095 166.125 607.804C163.122 607.124 160.276 607.059 157.585 607.606L157.478 620.635C157.423 627.341 157.407 632.652 157.428 636.567L166.192 638.88C166.291 639.949 166.308 641.165 166.243 642.527C166.082 642.49 164.178 642.06 160.532 641.235C156.887 640.355 154.287 639.739 152.732 639.387C152.088 639.241 150.372 638.881 147.584 638.305C144.849 637.686 143.107 637.292 142.356 637.122C142.313 635.845 142.322 634.663 142.385 633.576L147.535 634.411C147.726 630.819 147.85 625.533 147.907 618.551C147.974 610.361 147.993 604.775 147.964 601.794L142.428 598.807C142.331 597.628 142.34 596.529 142.456 595.509C147.286 595.996 151.74 596.563 155.817 597.21C156.292 598.254 156.709 599.78 157.069 601.789C157.428 603.798 157.606 605.078 157.601 605.627L157.601 605.71C161.669 600.903 165.204 598.839 168.207 599.518C169.762 599.87 171.046 600.519 172.059 601.464Z" fill="black"/>
<path d="M174.956 644.499C174.913 643.222 174.923 642.04 174.985 640.953L180.136 641.788C180.38 638.208 180.534 632.515 180.598 624.709C180.658 617.343 180.647 612.164 180.564 609.171L174.788 606.129C174.69 604.95 174.699 603.851 174.815 602.831C180.504 603.402 185.682 604.133 190.348 605.024C190.256 609.629 190.17 616.88 190.089 626.774C190.026 634.415 190.033 640.2 190.108 644.127L195.253 645.539C195.298 646.651 195.288 647.832 195.224 649.085C194.849 649 193.428 648.678 190.961 648.12C188.495 647.507 186.619 647.055 185.332 646.764C184.689 646.618 183 646.263 180.265 645.7C177.53 645.081 175.761 644.681 174.956 644.499ZM184.956 594.386C183.133 593.974 181.663 593.09 180.546 591.736C179.483 590.394 178.958 588.871 178.972 587.167C178.986 585.463 179.642 584.097 180.939 583.069C182.291 581.998 183.905 581.674 185.782 582.099C187.819 582.56 189.316 583.477 190.272 584.85C191.281 586.235 191.778 587.834 191.763 589.648C191.749 591.352 191.094 592.691 189.797 593.664C188.553 594.594 186.94 594.835 184.956 594.386Z" fill="black"/>
<path d="M218.675 655.217C212.777 653.883 208.101 650.869 204.648 646.178C201.249 641.498 199.575 635.998 199.627 629.676C199.68 623.134 201.629 618.096 205.472 614.559C209.314 611.023 214.185 609.922 220.083 611.257C226.088 612.615 230.844 615.619 234.352 620.268C237.859 624.917 239.586 630.402 239.535 636.724C239.48 643.43 237.611 648.57 233.929 652.143C230.247 655.66 225.163 656.685 218.675 655.217ZM219.113 650.938C226.029 652.503 229.535 647.541 229.629 636.052C229.672 630.775 228.823 626.259 227.081 622.506C225.34 618.697 222.861 616.429 219.644 615.701C212.995 614.196 209.624 619.106 209.531 630.43C209.492 635.213 210.315 639.667 212 643.794C213.686 647.865 216.057 650.246 219.113 650.938Z" fill="black"/>
<path d="M269.879 665.977C269.836 664.701 269.845 663.519 269.908 662.432L274.656 663.176C274.847 659.474 274.986 652.428 275.071 642.039C275.05 638.069 274.537 635.089 273.533 633.099C272.528 631.109 270.525 629.775 267.522 629.096C264.949 628.513 262.37 628.508 259.787 629.08L259.671 643.263C259.612 650.409 259.621 655.946 259.696 659.873L264.841 661.285C264.886 662.397 264.876 663.579 264.812 664.831C264.437 664.746 263.016 664.424 260.549 663.866C258.083 663.253 256.207 662.801 254.92 662.51C254.277 662.364 252.588 662.01 249.853 661.446C247.118 660.827 245.349 660.427 244.544 660.245C244.501 658.968 244.511 657.786 244.573 656.699L249.723 657.534C249.968 653.954 250.12 648.509 250.18 641.198C250.244 633.337 250.235 627.91 250.152 624.917L244.376 621.875C244.278 620.697 244.287 619.597 244.403 618.577C250.092 619.148 255.27 619.879 259.936 620.77C259.872 622.022 259.829 624.023 259.806 626.771C261.321 625.517 263.236 624.491 265.552 623.693C267.923 622.853 270.288 622.699 272.647 623.233C276.4 624.082 279.365 626.02 281.543 629.046C283.721 632.072 284.79 635.977 284.751 640.759C284.735 642.628 284.675 646.69 284.57 652.945C284.465 659.144 284.405 663.289 284.387 665.378L290.096 666.917C290.14 668.084 290.13 669.293 290.066 670.545C285.616 669.483 282.346 668.716 280.255 668.242C279.558 668.085 277.842 667.724 275.107 667.16C272.372 666.541 270.629 666.147 269.879 665.977Z" fill="black"/>
<path d="M294.104 671.459C294.061 670.182 294.071 669.001 294.133 667.913L299.283 668.748C299.528 665.169 299.682 659.476 299.746 651.67C299.806 644.304 299.795 639.124 299.712 636.131L293.936 633.09C293.838 631.911 293.847 630.811 293.963 629.791C299.652 630.363 304.83 631.094 309.496 631.984C309.404 636.59 309.318 643.84 309.237 653.735C309.174 661.376 309.18 667.16 309.256 671.087L314.401 672.499C314.445 673.611 314.436 674.793 314.372 676.045C313.996 675.96 312.576 675.639 310.109 675.08C307.643 674.467 305.767 674.015 304.48 673.724C303.837 673.579 302.147 673.224 299.412 672.66C296.678 672.041 294.909 671.641 294.104 671.459ZM304.104 621.347C302.281 620.934 300.811 620.051 299.694 618.697C298.631 617.355 298.106 615.831 298.12 614.127C298.134 612.423 298.79 611.057 300.087 610.029C301.439 608.958 303.053 608.635 304.93 609.059C306.967 609.52 308.464 610.437 309.42 611.81C310.429 613.195 310.926 614.795 310.911 616.609C310.897 618.313 310.242 619.651 308.944 620.625C307.701 621.555 306.088 621.796 304.104 621.347Z" fill="black"/>
<path d="M357.518 630.789C369.528 633.507 375.702 640.467 376.04 651.668C375.961 654.734 375.215 657.264 373.802 659.257C372.39 661.196 370.606 662.527 368.451 663.251C366.297 663.92 364.119 664.281 361.916 664.333C359.767 664.343 357.594 664.099 355.395 663.601C353.948 663.274 352.742 662.946 351.777 662.617L351.71 670.863C351.681 674.381 351.709 677.527 351.793 680.3L362.728 683.187C362.772 684.353 362.762 685.618 362.697 686.98C353.958 684.947 348.543 683.694 346.451 683.221C345.862 683.088 343.958 682.685 340.74 682.012C337.577 681.296 335.486 680.823 334.467 680.592C334.371 679.194 334.382 677.929 334.498 676.799L341.578 678.153C341.77 674.342 341.916 666.389 342.015 654.295C342.117 641.927 342.152 634.307 342.122 631.436L335.047 629.587C334.949 628.354 334.96 627.062 335.079 625.712C335.936 625.906 337.92 626.383 341.029 627.141C344.139 627.845 346.016 628.269 346.659 628.415C347.517 628.609 349.126 628.973 351.485 629.507C353.845 629.986 355.855 630.413 357.518 630.789ZM351.879 650.166L351.812 658.412C352.99 658.844 354.115 659.181 355.188 659.424C357.708 659.939 359.805 659.752 361.477 658.864C363.15 657.976 364.288 656.774 364.891 655.258C365.494 653.743 365.804 651.995 365.82 650.016C365.852 646.113 365.02 642.813 363.323 640.116C361.626 637.419 359.116 635.667 355.792 634.86L352.092 634.023C352.019 636.429 351.948 641.811 351.879 650.166Z" fill="black"/>
<path d="M409.648 655.225L408.615 663.252C406.634 662.418 405 661.856 403.714 661.565C400.711 660.885 397.864 660.819 395.174 661.367L395.067 674.395C395.012 681.102 394.995 686.413 395.017 690.328L403.781 692.641C403.88 693.71 403.896 694.926 403.832 696.288C403.671 696.251 401.767 695.821 398.121 694.996C394.476 694.116 391.875 693.5 390.321 693.148C389.677 693.002 387.961 692.642 385.173 692.066C382.438 691.447 380.695 691.053 379.945 690.883C379.902 689.606 379.911 688.424 379.974 687.337L385.124 688.172C385.314 684.58 385.438 679.294 385.496 672.312C385.563 664.121 385.582 658.536 385.553 655.555L380.017 652.568C379.92 651.389 379.929 650.29 380.044 649.27C384.875 649.757 389.329 650.324 393.406 650.971C393.881 652.015 394.298 653.541 394.658 655.55C395.017 657.559 395.195 658.838 395.19 659.388L395.19 659.471C399.258 654.664 402.793 652.6 405.796 653.279C407.351 653.631 408.635 654.279 409.648 655.225Z" fill="black"/>
<path d="M431.68 703.415C425.782 702.081 421.107 699.068 417.653 694.376C414.254 689.697 412.58 684.196 412.632 677.874C412.686 671.333 414.634 666.294 418.477 662.757C422.32 659.221 427.19 658.12 433.088 659.455C439.093 660.814 443.85 663.817 447.357 668.466C450.864 673.115 452.592 678.6 452.54 684.922C452.485 691.628 450.616 696.768 446.934 700.341C443.253 703.858 438.168 704.883 431.68 703.415ZM432.118 699.136C439.035 700.701 442.54 695.739 442.635 684.25C442.678 678.973 441.829 674.457 440.087 670.704C438.345 666.895 435.866 664.627 432.649 663.899C426 662.394 422.629 667.304 422.537 678.628C422.497 683.411 423.32 687.865 425.005 691.992C426.691 696.063 429.062 698.444 432.118 699.136Z" fill="black"/>
<path d="M1017 838.554C1017.01 836.438 1017.02 833.17 1017.02 828.75V824.13C1017.02 821.59 1017.01 820.048 1017 819.504L1014.79 818.406C1014.78 817.922 1014.78 817.472 1014.79 817.056C1015.07 817.075 1017.22 817.352 1021.25 817.889C1021.21 820.44 1021.19 823.236 1021.19 826.276C1022.35 825.161 1023.64 824.756 1025.07 825.059C1026.88 825.446 1028.29 826.486 1029.29 828.178C1030.31 829.874 1030.82 831.732 1030.82 833.752C1030.82 836.512 1030.06 838.532 1028.56 839.812C1027.05 841.071 1025.02 841.429 1022.45 840.884C1020.44 840.456 1018.62 839.679 1017 838.554ZM1021.22 832.252C1021.22 832.812 1021.21 833.82 1021.19 835.276C1021.19 836.736 1021.19 837.696 1021.19 838.156C1021.66 838.756 1022.21 839.122 1022.83 839.255C1023.99 839.501 1024.89 839.162 1025.53 838.239C1026.18 837.296 1026.5 835.895 1026.5 834.035C1026.5 830.055 1025.33 827.816 1022.98 827.317C1022.32 827.175 1021.73 827.2 1021.22 827.392V832.252ZM1035.07 850.945C1034.15 850.75 1033.1 850.297 1031.93 849.588C1032.08 848.781 1032.4 847.988 1032.87 847.207C1033.67 847.938 1034.38 848.37 1035.01 848.503C1035.81 848.673 1036.43 848.574 1036.86 848.206C1037.29 847.857 1037.71 847.187 1038.12 846.194L1038.53 845.231L1032.69 828.72L1031.16 828.306C1031.12 827.677 1031.12 827.167 1031.16 826.776C1031.52 826.851 1032.16 826.998 1033.1 827.217C1034.06 827.421 1034.62 827.54 1034.77 827.573L1038.56 828.348C1038.58 829.032 1038.58 829.542 1038.56 829.878L1036.89 829.582C1037.53 832.139 1038.72 835.923 1040.47 840.933L1043.69 831.359L1041.23 830.445C1041.21 829.761 1041.21 829.251 1041.23 828.915C1041.7 829.015 1042.27 829.146 1042.93 829.307C1043.6 829.448 1044 829.534 1044.13 829.563L1047.42 830.201C1047.46 830.83 1047.46 831.34 1047.42 831.731L1045.78 831.742L1040.14 846.804C1039.54 848.415 1038.85 849.57 1038.09 850.268C1037.35 850.99 1036.34 851.216 1035.07 850.945ZM1074.94 833.351L1072.45 833.24V851.69L1070.95 851.372L1058.57 834.04C1058.57 834.2 1058.57 834.75 1058.57 835.69C1058.58 836.634 1058.59 837.596 1058.59 838.576C1058.61 839.56 1058.62 840.113 1058.62 840.233V846.233L1062.53 847.512C1062.57 848.02 1062.57 848.55 1062.53 849.102C1060.86 848.729 1059.38 848.403 1058.07 848.124C1057.95 848.099 1057.38 847.989 1056.36 847.792C1055.37 847.58 1054.61 847.42 1054.1 847.312C1054.07 846.744 1054.07 846.214 1054.1 845.722L1056.45 845.801C1056.53 835.578 1056.57 830.296 1056.57 829.956L1053.64 828.852C1053.6 828.284 1053.6 827.744 1053.64 827.232L1059.15 828.435L1070.36 844.167C1070.26 841.387 1070.21 839.536 1070.21 838.616C1070.21 838.356 1070.21 837.604 1070.19 836.36C1070.19 835.1 1070.19 833.91 1070.19 832.79L1066.52 831.59C1066.48 831.062 1066.48 830.522 1066.52 829.97C1068.67 830.448 1070.11 830.763 1070.83 830.917C1070.95 830.942 1071.52 831.063 1072.53 831.279C1073.55 831.475 1074.35 831.636 1074.94 831.761C1074.98 832.329 1074.98 832.859 1074.94 833.351ZM1076.09 851.985C1076.07 851.461 1076.07 850.971 1076.09 850.515L1077.94 850.788C1078 849.52 1078.03 847.426 1078.03 844.506C1078.03 841.886 1078.02 840.034 1078 838.95L1075.85 837.865C1075.83 837.401 1075.83 836.951 1075.85 836.515L1082.25 837.335C1082.23 839.01 1082.22 841.688 1082.22 845.368C1082.22 848.208 1082.23 850.34 1082.25 851.765L1084.01 852.199C1084.05 852.627 1084.06 853.119 1084.04 853.675C1083.71 853.604 1083.08 853.471 1082.16 853.276C1081.24 853.06 1080.55 852.903 1080.08 852.803C1079.92 852.77 1079.31 852.649 1078.23 852.44C1077.17 852.216 1076.46 852.064 1076.09 851.985ZM1079.87 833.889C1079.09 833.723 1078.47 833.36 1078 832.8C1077.55 832.245 1077.32 831.617 1077.32 830.917C1077.32 830.257 1077.59 829.713 1078.11 829.285C1078.66 828.842 1079.34 828.705 1080.14 828.876C1081 829.059 1081.64 829.436 1082.07 830.007C1082.51 830.579 1082.72 831.214 1082.72 831.914C1082.72 832.614 1082.46 833.168 1081.93 833.576C1081.4 833.964 1080.72 834.068 1079.87 833.889ZM1093.29 855.642C1092.96 855.571 1092.34 855.44 1091.44 855.249C1090.54 855.037 1089.86 854.882 1089.39 854.782C1089.25 854.753 1088.68 854.64 1087.66 854.444C1086.64 854.228 1085.89 854.068 1085.4 853.964C1085.38 853.44 1085.38 852.95 1085.4 852.494L1087.25 852.767C1087.31 851.259 1087.34 848.235 1087.34 843.695C1087.34 838.595 1087.33 835.503 1087.31 834.419L1085.34 833.371C1085.3 832.923 1085.3 832.473 1085.34 832.021C1087.73 832.269 1089.8 832.529 1091.56 832.804C1091.54 834.479 1091.53 838.397 1091.53 844.557C1091.53 849.197 1091.54 852.229 1091.56 853.654L1093.26 854.105C1093.3 854.654 1093.31 855.166 1093.29 855.642ZM1094.96 854.467L1096.29 854.718L1091.85 847.596L1096.14 842.447L1093.73 841.575C1093.71 841.091 1093.71 840.591 1093.73 840.075C1094.14 840.162 1094.84 840.32 1095.82 840.548C1096.79 840.756 1097.36 840.876 1097.52 840.91L1101.77 841.784C1101.81 842.292 1101.81 842.802 1101.77 843.314L1098.63 843.067L1095.35 846.538L1101.24 855.742L1102.86 856.145C1102.9 856.653 1102.9 857.173 1102.86 857.705C1101.04 857.278 1099.75 856.984 1098.99 856.822C1098.36 856.689 1097.57 856.53 1096.61 856.346C1095.65 856.143 1095.1 856.026 1094.96 855.997C1094.95 855.453 1094.95 854.943 1094.96 854.467ZM1110.59 859.618C1108.36 859.144 1106.58 858.046 1105.25 856.323C1103.92 854.58 1103.25 852.539 1103.25 850.199C1103.25 847.739 1103.98 845.863 1105.43 844.57C1106.89 843.262 1108.74 842.845 1110.97 843.319C1113.28 843.81 1115.11 844.919 1116.46 846.646C1117.81 848.353 1118.48 850.376 1118.48 852.716C1118.48 855.196 1117.78 857.096 1116.37 858.417C1114.98 859.742 1113.05 860.142 1110.59 859.618ZM1110.74 857.969C1113.05 858.46 1114.2 856.595 1114.2 852.375C1114.2 850.435 1113.91 848.783 1113.32 847.418C1112.75 846.058 1111.92 845.261 1110.82 845.028C1108.63 844.562 1107.54 846.41 1107.54 850.57C1107.54 851.63 1107.64 852.67 1107.83 853.692C1108.05 854.718 1108.41 855.655 1108.92 856.503C1109.43 857.331 1110.03 857.82 1110.74 857.969ZM1128.32 863.087C1127.99 863.016 1127.32 862.874 1126.32 862.662C1125.34 862.434 1124.62 862.271 1124.15 862.171C1123.99 862.138 1123.4 862.021 1122.36 861.82C1121.34 861.604 1120.61 861.448 1120.16 861.353C1120.14 860.828 1120.14 860.338 1120.16 859.883L1121.98 860.149C1122.04 858.642 1122.07 855.618 1122.07 851.078C1122.07 845.978 1122.06 842.886 1122.04 841.802L1120.04 840.748C1120 840.299 1120 839.849 1120.04 839.398C1122.41 839.641 1124.49 839.904 1126.29 840.186C1126.27 841.862 1126.26 845.78 1126.26 851.94C1126.26 856.58 1126.28 859.614 1126.32 861.042L1128.29 861.55C1128.33 862.099 1128.34 862.611 1128.32 863.087ZM1132.73 853.884L1130.38 853.385C1130.17 852.76 1130.06 852.117 1130.06 851.457C1130.06 850.257 1130.63 849.397 1131.76 848.879C1132.9 848.36 1134.26 848.269 1135.84 848.606C1136.82 848.813 1137.66 849.142 1138.36 849.592C1139.09 850.046 1139.64 850.562 1140.01 851.141C1140.38 851.72 1140.64 852.296 1140.8 852.87C1140.98 853.427 1141.06 853.996 1141.06 854.576C1141.06 855.696 1141.05 857.364 1141.04 859.58C1141.04 861.78 1141.04 863.24 1141.04 863.96L1143.12 864.462C1143.14 864.907 1143.14 865.287 1143.12 865.602C1141.91 865.625 1140.02 865.553 1137.45 865.389L1137.07 863.118C1136.64 863.646 1136.08 864.045 1135.37 864.316C1134.69 864.59 1134.02 864.659 1133.38 864.522C1132.18 864.268 1131.2 863.69 1130.44 862.788C1129.68 861.886 1129.3 860.825 1129.3 859.605C1129.3 856.545 1131.84 855.535 1136.93 856.576V854.146C1136.91 851.922 1136.21 850.665 1134.84 850.373C1134.12 850.22 1133.53 850.305 1133.08 850.629C1132.65 850.938 1132.44 851.412 1132.44 852.052C1132.44 852.272 1132.53 852.883 1132.73 853.884ZM1136.87 861.994V857.824C1135.81 857.599 1134.96 857.628 1134.32 857.911C1133.69 858.198 1133.38 858.752 1133.38 859.572C1133.38 861.132 1134.01 862.047 1135.28 862.317C1135.93 862.454 1136.46 862.347 1136.87 861.994ZM1159.12 869.783C1158.94 869.746 1158.33 869.585 1157.27 869.3C1156.21 869.036 1155.32 868.816 1154.6 868.643C1154.46 868.613 1153.78 868.478 1152.54 868.236C1151.31 867.974 1150.44 867.789 1149.93 867.681C1149.91 867.117 1149.91 866.587 1149.93 866.091L1152.52 866.55C1152.57 865.142 1152.6 862.308 1152.6 858.048C1152.6 853.668 1152.59 850.956 1152.57 849.912C1151.48 849.679 1150.62 849.476 1149.99 849.303C1149.97 848.779 1149.97 848.239 1149.99 847.683C1150.79 847.854 1151.69 848.055 1152.69 848.287C1153.69 848.499 1154.23 848.614 1154.31 848.63C1156.42 849.079 1157.95 849.396 1158.91 849.579C1162.82 850.391 1165.78 851.839 1167.77 853.923C1169.77 855.987 1170.77 858.609 1170.77 861.789C1170.77 863.229 1170.54 864.522 1170.09 865.666C1169.64 866.79 1168.97 867.747 1168.07 868.536C1167.17 869.324 1165.95 869.834 1164.4 870.066C1162.87 870.302 1161.11 870.207 1159.12 869.783ZM1158.91 867.849C1161.44 868.406 1163.3 868.093 1164.52 866.911C1165.75 865.733 1166.37 863.854 1166.37 861.274C1166.37 858.494 1165.67 856.276 1164.28 854.621C1162.89 852.946 1161.05 851.865 1158.77 851.378L1156.89 850.979V862.289C1156.89 864.589 1156.9 866.271 1156.92 867.335C1157.86 867.595 1158.52 867.766 1158.91 867.849ZM1178.62 873.148C1178.62 875.128 1177.98 876.673 1176.71 877.783C1175.44 878.913 1173.75 879.793 1171.64 880.424C1171.3 879.973 1171.1 879.6 1171.02 879.303C1172.08 878.768 1172.9 877.872 1173.48 876.617C1174.09 875.386 1174.39 873.93 1174.39 872.25C1174.39 872.09 1174.4 870.972 1174.42 868.897C1174.46 866.805 1174.48 865.709 1174.48 865.609C1174.48 862.609 1174.47 860.567 1174.45 859.483L1171.61 858.248C1171.57 857.779 1171.57 857.319 1171.61 856.868L1178.71 857.837C1178.69 859.513 1178.68 862.391 1178.68 866.471C1178.68 869.511 1178.66 871.737 1178.62 873.148ZM1173.78 851.419C1173.78 850.759 1174.04 850.215 1174.57 849.788C1175.12 849.344 1175.79 849.208 1176.6 849.378C1177.46 849.561 1178.1 849.938 1178.53 850.51C1178.96 851.081 1179.18 851.717 1179.18 852.417C1179.18 853.117 1178.91 853.671 1178.39 854.079C1177.86 854.466 1177.17 854.571 1176.33 854.392C1175.55 854.226 1174.92 853.863 1174.45 853.303C1174 852.747 1173.78 852.119 1173.78 851.419ZM1187.27 875.916C1185.78 875.6 1184.64 874.889 1183.86 873.783C1183.08 872.676 1182.69 871.203 1182.69 869.363C1182.69 867.923 1182.7 866.905 1182.72 866.309C1182.72 865.869 1182.73 864.981 1182.75 863.646C1182.77 862.31 1182.78 861.412 1182.78 860.952L1180.81 860.174C1180.79 859.71 1180.79 859.26 1180.81 858.824L1187.06 859.612C1186.98 861.436 1186.94 864.498 1186.94 868.798C1186.96 870.342 1187.15 871.471 1187.5 872.186C1187.87 872.905 1188.5 873.358 1189.38 873.545C1190.14 873.707 1190.95 873.71 1191.81 873.553V862.933L1189.26 862C1189.24 861.536 1189.24 861.076 1189.26 860.62L1196.13 861.54C1196.05 862.903 1196.01 865.575 1196.01 869.555C1196.01 872.495 1196.02 874.507 1196.04 875.591L1198.15 876.1C1198.19 876.568 1198.19 877.048 1198.15 877.54C1197.47 877.455 1195.45 877.316 1192.11 877.125L1191.81 874.483C1190.21 875.742 1188.69 876.22 1187.27 875.916ZM1211.16 865.005L1210.75 868.308C1210.04 868.038 1209.37 867.834 1208.72 867.697C1207.59 867.456 1206.56 867.428 1205.64 867.612V872.112C1205.64 874.532 1205.65 876.454 1205.67 877.879L1208.87 878.678C1208.91 879.147 1208.92 879.659 1208.9 880.215C1208.72 880.177 1207.95 880.013 1206.58 879.722C1205.21 879.411 1204.2 879.187 1203.56 879.049C1203.4 879.016 1202.78 878.893 1201.68 878.68C1200.61 878.452 1199.89 878.3 1199.54 878.225C1199.52 877.701 1199.52 877.211 1199.54 876.755L1201.36 877.022C1201.42 875.754 1201.45 873.83 1201.45 871.25C1201.45 868.29 1201.44 866.268 1201.42 865.184L1199.42 864.13C1199.4 863.666 1199.4 863.216 1199.42 862.78L1204.88 863.43C1205.08 863.872 1205.25 864.489 1205.41 865.282C1205.56 866.056 1205.64 866.552 1205.64 866.772V866.802C1206.07 866.254 1206.44 865.813 1206.76 865.479C1207.07 865.126 1207.49 864.805 1208.02 864.518C1208.55 864.23 1209.06 864.138 1209.55 864.242C1210.15 864.371 1210.69 864.625 1211.16 865.005ZM1219.16 867.967C1218.34 867.792 1217.68 868.16 1217.17 869.072C1216.66 869.964 1216.41 871.18 1216.41 872.72L1221.51 873.625C1221.55 870.194 1220.77 868.307 1219.16 867.967ZM1221.57 880.958C1222.69 881.195 1223.86 881.124 1225.09 880.746L1225.56 882.226C1225.35 882.321 1225.04 882.436 1224.65 882.573C1224.28 882.694 1223.57 882.812 1222.51 882.928C1221.47 883.047 1220.51 883.013 1219.63 882.826C1217.31 882.331 1215.46 881.269 1214.09 879.637C1212.74 877.991 1212.06 876.037 1212.06 873.777C1212.06 871.037 1212.75 869.003 1214.12 867.674C1215.51 866.349 1217.33 865.926 1219.58 866.404C1220.81 866.666 1221.86 867.14 1222.74 867.827C1223.64 868.519 1224.31 869.32 1224.74 870.232C1225.19 871.147 1225.51 872.046 1225.71 872.927C1225.9 873.789 1226 874.66 1226 875.54V876.11L1216.44 874.076C1216.55 875.781 1217.03 877.273 1217.87 878.552C1218.71 879.811 1219.95 880.613 1221.57 880.958ZM1235.54 885.878C1235.21 885.807 1234.6 885.676 1233.7 885.485C1232.8 885.274 1232.11 885.118 1231.64 885.019C1231.5 884.989 1230.93 884.877 1229.91 884.681C1228.89 884.464 1228.14 884.304 1227.65 884.2C1227.63 883.676 1227.63 883.186 1227.65 882.73L1229.5 883.003C1229.56 881.496 1229.59 878.472 1229.59 873.932C1229.59 868.832 1229.58 865.74 1229.56 864.656L1227.59 863.608C1227.55 863.159 1227.55 862.709 1227.59 862.258C1229.98 862.505 1232.05 862.766 1233.81 863.04C1233.79 864.716 1233.78 868.634 1233.78 874.794C1233.78 879.434 1233.79 882.466 1233.81 883.89L1235.51 884.342C1235.55 884.89 1235.56 885.402 1235.54 885.878ZM1237.22 884.704L1238.54 884.954L1234.11 877.832L1238.39 872.683L1235.98 871.812C1235.96 871.327 1235.96 870.827 1235.98 870.312C1236.39 870.399 1237.09 870.557 1238.07 870.784C1239.05 870.992 1239.61 871.113 1239.77 871.146L1244.02 872.021C1244.06 872.529 1244.06 873.039 1244.02 873.551L1240.88 873.303L1237.6 876.775L1243.5 885.978L1245.11 886.381C1245.15 886.89 1245.15 887.41 1245.11 887.941C1243.29 887.515 1242 887.22 1241.24 887.058C1240.61 886.925 1239.82 886.767 1238.86 886.583C1237.9 886.379 1237.35 886.263 1237.22 886.234C1237.2 885.689 1237.2 885.179 1237.22 884.704Z" fill="black"/>
</g>
</svg>
