<svg width="326" height="42" viewBox="0 0 326 42" fill="none" xmlns="http://www.w3.org/2000/svg">
<path d="M30.3079 6.86225C32.6739 6.86225 34.5527 7.31457 35.9445 8.2192C37.3594 9.12384 38.0669 10.4808 38.0669 12.2901C38.0669 13.6122 37.5914 14.7256 36.6404 15.6302C35.7125 16.5349 34.7383 17.1496 33.7177 17.4743C34.2976 17.5671 34.8775 17.7411 35.4574 17.9962C36.0605 18.2282 36.6867 18.5645 37.3362 19.0052C38.0089 19.4227 38.5424 20.0142 38.9367 20.7797C39.3543 21.522 39.563 22.357 39.563 23.2848C39.563 25.442 38.7512 27.1121 37.1275 28.2951C35.527 29.4781 33.2306 30.0696 30.2383 30.0696C30.0064 30.0696 29.3453 30.058 28.2551 30.0348C27.1881 30.0116 26.1675 29.9884 25.1933 29.9652C24.9381 29.9652 24.1263 29.9768 22.7577 30C21.3892 30 20.4729 30 20.009 30C19.9626 29.4201 19.9626 28.8866 20.009 28.3995L23.0709 28.2951C23.1404 26.6714 23.1752 23.308 23.1752 18.205V13.3687C23.1752 10.7707 23.1636 9.17023 23.1404 8.56714C23.0013 8.56714 22.4794 8.55554 21.5747 8.53235C20.6701 8.50915 20.1714 8.48596 20.0786 8.46276C20.0322 7.99884 20.009 7.74369 20.009 7.6973C20.009 7.62771 20.0322 7.33777 20.0786 6.82746C20.6353 6.82746 21.5979 6.83906 22.9665 6.86225C24.335 6.86225 25.1353 6.86225 25.3672 6.86225H30.3079ZM29.8208 28.1907C31.5605 28.1907 32.8595 27.7964 33.7177 27.0078C34.5991 26.1959 35.0399 25.1057 35.0399 23.7372C35.0399 20.4897 33.1958 18.866 29.5077 18.866H28.3595C28.3363 18.866 28.1739 18.8776 27.8724 18.9008C27.594 18.9008 27.4432 18.9008 27.4201 18.9008C27.4201 23.656 27.4432 26.7294 27.4896 28.1211C27.9999 28.1675 28.777 28.1907 29.8208 28.1907ZM29.2293 8.70631H27.5244C27.4548 10.1676 27.4201 12.9743 27.4201 17.1264C27.4664 17.1264 27.6172 17.138 27.8724 17.1612C28.1275 17.1612 28.2783 17.1612 28.3247 17.1612H29.3685C30.5979 17.1612 31.6069 16.8132 32.3955 16.1174C33.2074 15.3983 33.6133 14.3545 33.6133 12.9859C33.6133 10.1329 32.152 8.70631 29.2293 8.70631ZM59.431 13.5078L59.1178 10.2372C59.0714 9.70373 58.9671 9.3326 58.8047 9.12384C58.6655 8.91508 58.3872 8.7759 57.9697 8.70631C56.949 8.52075 56.0212 8.42797 55.1862 8.42797C52.7042 8.42797 50.6282 9.23982 48.9581 10.8635C47.288 12.464 46.453 14.9112 46.453 18.205C46.453 19.9215 46.7197 21.4524 47.2532 22.7977C47.7867 24.1431 48.4826 25.2101 49.3408 25.9987C50.1991 26.7874 51.1269 27.3905 52.1243 27.808C53.1217 28.2023 54.1308 28.3995 55.1514 28.3995C56.2184 28.3995 57.181 28.3299 58.0392 28.1907C58.4336 28.1211 58.7119 28.0052 58.8743 27.8428C59.0598 27.6804 59.1758 27.3789 59.2222 26.9382L59.7789 22.5542C59.9413 22.5542 60.1848 22.5542 60.5096 22.5542C60.8343 22.531 61.0779 22.5194 61.2402 22.5194C61.3794 22.5194 61.6114 22.531 61.9361 22.5542C62.2841 22.5542 62.5508 22.5542 62.7364 22.5542C62.7364 22.6933 62.6668 23.8415 62.5276 25.9987C62.4116 28.1327 62.3536 29.3157 62.3536 29.5477L61.1707 29.5129C60.7067 29.5361 59.6861 29.6985 58.1088 30C56.5315 30.2783 55.3137 30.4175 54.4555 30.4175C50.6746 30.4175 47.6475 29.3853 45.3744 27.3209C43.1244 25.2333 41.9994 22.415 41.9994 18.866C41.9994 15.1083 43.1592 12.1045 45.4787 9.8545C47.8215 7.58132 50.9297 6.44473 54.8034 6.44473C55.6385 6.44473 56.7751 6.57231 58.2132 6.82746C59.6745 7.05942 60.6488 7.18699 61.1359 7.21019C61.1823 7.21019 61.391 7.21019 61.7622 7.21019C62.1333 7.18699 62.3304 7.1754 62.3536 7.1754C62.3536 7.40735 62.3536 8.48596 62.3536 10.4112C62.3768 12.3364 62.3884 13.3687 62.3884 13.5078C61.6926 13.5542 61.2055 13.5774 60.9271 13.5774C60.6256 13.5774 60.1269 13.5542 59.431 13.5078ZM80.6766 30C77.2204 29.9768 75.0516 29.9652 74.1701 29.9652C73.915 29.9652 72.964 29.9768 71.3171 30C69.6702 30 68.6032 30 68.1161 30C68.0929 29.4201 68.0929 28.8866 68.1161 28.3995L72.0825 28.2255C72.1521 26.6018 72.1869 23.2616 72.1869 18.205C72.1869 13.1483 72.1637 9.97048 72.1173 8.67152L68.3248 8.70631C67.9073 8.70631 67.6753 8.96147 67.629 9.47177L67.4202 13.7166C66.8171 13.763 66.388 13.7862 66.1328 13.7862C65.9009 13.7862 65.437 13.763 64.7411 13.7166C64.7411 13.5774 64.7411 12.4292 64.7411 10.272C64.7643 8.11482 64.7759 6.92024 64.7759 6.68829L67.7333 6.86225L74.3441 6.89705L81.0593 6.86225L84.0167 6.68829C84.0167 6.92024 84.0167 8.11482 84.0167 10.272C84.0399 12.4292 84.0515 13.5774 84.0515 13.7166C83.3557 13.763 82.9033 13.7862 82.6946 13.7862C82.4626 13.7862 82.0219 13.763 81.3724 13.7166L81.1289 9.36739C81.1289 8.92667 80.8737 8.70631 80.3634 8.70631L76.5013 8.67152C76.4549 10.4808 76.4317 13.6354 76.4317 18.1354C76.4317 23.2384 76.4433 26.6018 76.4665 28.2255L80.6418 28.3995C80.7113 28.9098 80.7229 29.4433 80.6766 30ZM90.1377 22.0671L88.1893 27.9124L92.0166 28.3995C92.0397 28.8866 92.0397 29.4201 92.0166 30C89.6738 29.9768 88.0617 29.9652 87.1802 29.9652C86.9251 29.9652 86.3684 29.9768 85.5101 30C84.6751 30 83.9908 30 83.4573 30C83.4341 29.4201 83.4341 28.875 83.4573 28.3647L85.7885 27.982L93.5127 6.75787H96.4005L104.02 28.2951L106.073 28.3647C106.096 28.875 106.096 29.4201 106.073 30C104.194 29.9768 102.814 29.9652 101.933 29.9652C101.678 29.9652 100.877 29.9768 99.532 30C98.1866 30 97.2356 30 96.6789 30C96.6557 29.4201 96.6557 28.8866 96.6789 28.3995L99.6016 28.2603L97.5139 22.0323H93.8258C91.947 22.0323 90.7176 22.0439 90.1377 22.0671ZM93.8606 11.2462L90.59 20.5361C92.0281 20.5825 93.1183 20.6057 93.8606 20.6057C94.2317 20.6057 94.7768 20.6057 95.4959 20.6057C96.2382 20.5825 96.7601 20.5709 97.0616 20.5709L93.8606 11.2462ZM117.428 6.86225C119.794 6.86225 121.673 7.31457 123.064 8.2192C124.479 9.12384 125.187 10.4808 125.187 12.2901C125.187 13.6122 124.711 14.7256 123.76 15.6302C122.832 16.5349 121.858 17.1496 120.838 17.4743C121.418 17.5671 121.997 17.7411 122.577 17.9962C123.18 18.2282 123.807 18.5645 124.456 19.0052C125.129 19.4227 125.662 20.0142 126.057 20.7797C126.474 21.522 126.683 22.357 126.683 23.2848C126.683 25.442 125.871 27.1121 124.247 28.2951C122.647 29.4781 120.351 30.0696 117.358 30.0696C117.126 30.0696 116.465 30.058 115.375 30.0348C114.308 30.0116 113.287 29.9884 112.313 29.9652C112.058 29.9652 111.246 29.9768 109.878 30C108.509 30 107.593 30 107.129 30C107.083 29.4201 107.083 28.8866 107.129 28.3995L110.191 28.2951C110.26 26.6714 110.295 23.308 110.295 18.205V13.3687C110.295 10.7707 110.284 9.17023 110.26 8.56714C110.121 8.56714 109.599 8.55554 108.695 8.53235C107.79 8.50915 107.291 8.48596 107.199 8.46276C107.152 7.99884 107.129 7.74369 107.129 7.6973C107.129 7.62771 107.152 7.33777 107.199 6.82746C107.755 6.82746 108.718 6.83906 110.086 6.86225C111.455 6.86225 112.255 6.86225 112.487 6.86225H117.428ZM116.941 28.1907C118.68 28.1907 119.979 27.7964 120.838 27.0078C121.719 26.1959 122.16 25.1057 122.16 23.7372C122.16 20.4897 120.316 18.866 116.628 18.866H115.479C115.456 18.866 115.294 18.8776 114.992 18.9008C114.714 18.9008 114.563 18.9008 114.54 18.9008C114.54 23.656 114.563 26.7294 114.61 28.1211C115.12 28.1675 115.897 28.1907 116.941 28.1907ZM116.349 8.70631H114.644C114.575 10.1676 114.54 12.9743 114.54 17.1264C114.586 17.1264 114.737 17.138 114.992 17.1612C115.247 17.1612 115.398 17.1612 115.445 17.1612H116.488C117.718 17.1612 118.727 16.8132 119.515 16.1174C120.327 15.3983 120.733 14.3545 120.733 12.9859C120.733 10.1329 119.272 8.70631 116.349 8.70631ZM134.199 6.89705C137.423 6.89705 139.244 6.88545 139.662 6.86225C139.708 7.41895 139.708 7.96405 139.662 8.49755L136.356 8.56714C136.287 10.0981 136.252 12.8584 136.252 16.848C138.525 16.6856 140.01 16.6045 140.706 16.6045C143.211 16.6045 145.113 17.1496 146.412 18.2398C147.711 19.33 148.36 20.8145 148.36 22.6933C148.36 24.9433 147.537 26.741 145.89 28.0864C144.266 29.4317 141.981 30.1044 139.035 30.1044C138.804 30.1044 138.119 30.0812 136.983 30.0348C135.846 30.0116 134.86 29.9884 134.025 29.9652C133.77 29.9652 132.958 29.9768 131.59 30C130.221 30 129.305 30 128.841 30C128.795 29.4433 128.795 28.9098 128.841 28.3995L131.903 28.2951C131.972 26.6482 132.007 23.2848 132.007 18.205C132.007 12.522 131.996 9.3094 131.972 8.56714L128.911 8.49755C128.864 7.96405 128.864 7.41895 128.911 6.86225C130.047 6.88545 131.81 6.89705 134.199 6.89705ZM138.722 28.2603C140.416 28.2603 141.715 27.808 142.619 26.9034C143.524 25.9755 143.976 24.7346 143.976 23.1805C143.976 21.7655 143.57 20.6521 142.758 19.8403C141.947 19.0052 140.682 18.5877 138.966 18.5877H137.783C137.458 18.5877 136.948 18.6225 136.252 18.6921C136.252 23.5864 136.275 26.741 136.322 28.1559C137.157 28.2255 137.957 28.2603 138.722 28.2603ZM164.501 30C161.044 29.9768 158.876 29.9652 157.994 29.9652C157.739 29.9652 156.788 29.9768 155.141 30C153.494 30 152.427 30 151.94 30C151.917 29.4201 151.917 28.8866 151.94 28.3995L155.907 28.2255C155.976 26.6018 156.011 23.2616 156.011 18.205C156.011 13.1483 155.988 9.97048 155.941 8.67152L152.149 8.70631C151.731 8.70631 151.499 8.96147 151.453 9.47177L151.244 13.7166C150.641 13.763 150.212 13.7862 149.957 13.7862C149.725 13.7862 149.261 13.763 148.565 13.7166C148.565 13.5774 148.565 12.4292 148.565 10.272C148.588 8.11482 148.6 6.92024 148.6 6.68829L151.557 6.86225L158.168 6.89705L164.883 6.86225L167.841 6.68829C167.841 6.92024 167.841 8.11482 167.841 10.272C167.864 12.4292 167.876 13.5774 167.876 13.7166C167.18 13.763 166.727 13.7862 166.519 13.7862C166.287 13.7862 165.846 13.763 165.196 13.7166L164.953 9.36739C164.953 8.92667 164.698 8.70631 164.187 8.70631L160.325 8.67152C160.279 10.4808 160.256 13.6354 160.256 18.1354C160.256 23.2384 160.267 26.6018 160.291 28.2255L164.466 28.3995C164.535 28.9098 164.547 29.4433 164.501 30ZM188.031 30.1392L184.934 30H179.263C176.897 29.9768 175.273 29.9652 174.392 29.9652C174.16 29.9652 173.395 29.9768 172.096 30C170.82 30 169.846 30 169.173 30C169.127 29.4201 169.127 28.8866 169.173 28.3995L172.235 28.2951C172.328 26.6714 172.374 23.308 172.374 18.205C172.374 13.1947 172.351 9.98208 172.304 8.56714L169.243 8.46276C169.196 7.97565 169.196 7.43055 169.243 6.82746C169.66 6.82746 170.576 6.83906 171.991 6.86225C173.429 6.86225 174.288 6.86225 174.566 6.86225H184.239L187.335 6.72308C187.335 6.95504 187.335 7.97565 187.335 9.78492C187.358 11.5942 187.37 12.5684 187.37 12.7076C187.022 12.754 186.547 12.7772 185.944 12.7772C185.364 12.7772 184.923 12.754 184.621 12.7076L184.343 9.68053C184.32 9.07745 184.018 8.7759 183.438 8.7759C183.206 8.7759 182.081 8.7643 180.063 8.74111C178.045 8.71791 176.92 8.70631 176.688 8.70631C176.619 10.2604 176.584 13.0671 176.584 17.1264H178.811C179.808 17.1264 180.55 17.1148 181.038 17.0916L181.455 13.9949C181.71 13.9717 182.023 13.9601 182.395 13.9601C182.835 13.9601 183.195 13.9717 183.473 13.9949C183.45 14.9228 183.438 16.3725 183.438 18.3441C183.438 20.3158 183.45 21.7539 183.473 22.6585C182.8 22.6817 182.128 22.6701 181.455 22.6238L181.038 18.9008C180.759 18.9008 180.377 18.9008 179.889 18.9008C179.402 18.8776 179.043 18.866 178.811 18.866C178.579 18.866 178.219 18.8776 177.732 18.9008C177.245 18.9008 176.862 18.9008 176.584 18.9008C176.584 23.5632 176.607 26.625 176.654 28.0864H184.03C184.679 28.0864 185.016 27.7616 185.039 27.1121L185.317 23.4588C185.642 23.4356 186.106 23.424 186.709 23.424C186.825 23.424 186.953 23.424 187.092 23.424C187.254 23.424 187.428 23.424 187.614 23.424C187.799 23.424 187.938 23.424 188.031 23.424V30.1392ZM199.677 30C199.074 30 198.737 30.2668 198.668 30.8003L198.111 34.4188C197.926 34.442 197.566 34.4536 197.033 34.4536C196.43 34.4536 196.024 34.442 195.815 34.4188C195.815 34.1868 195.826 33.2242 195.85 31.5309C195.873 29.8376 195.884 28.7938 195.884 28.3995L197.311 28.3299C199.306 28.2371 200.756 26.3815 201.66 22.7629C202.565 19.1444 202.948 14.4125 202.808 8.56714L198.703 8.46276C198.68 7.95245 198.68 7.41895 198.703 6.86225C198.935 6.86225 199.747 6.87385 201.138 6.89705C202.53 6.89705 203.423 6.89705 203.817 6.89705H213.525L218.57 6.86225C218.593 7.41895 218.593 7.95245 218.57 8.46276L215.473 8.56714C215.427 10.3996 215.404 13.6006 215.404 18.1702C215.404 23.4356 215.415 26.8106 215.438 28.2951L219.44 28.3995C219.44 28.7938 219.451 29.8376 219.474 31.5309C219.498 33.2242 219.509 34.1868 219.509 34.4188C219.301 34.442 218.895 34.4536 218.292 34.4536C217.735 34.4536 217.364 34.442 217.178 34.4188L216.656 30.8003C216.587 30.2668 216.25 30 215.647 30H199.677ZM211.02 28.2951C211.112 26.0683 211.159 22.6817 211.159 18.1354C211.159 13.6122 211.136 10.4576 211.089 8.67152C209.883 8.62513 208.828 8.60193 207.923 8.60193C207.111 8.60193 206.102 8.62513 204.896 8.67152C204.966 13.5426 204.676 17.6947 204.026 21.1276C203.377 24.5606 202.402 26.9614 201.103 28.3299C202.147 28.3531 203.922 28.3647 206.427 28.3647C207.308 28.3647 208.839 28.3415 211.02 28.2951ZM245.736 8.49755L242.639 8.56714C242.57 10.3532 242.535 13.5542 242.535 18.1702C242.535 23.2964 242.558 26.6714 242.605 28.2951L245.666 28.3995C245.69 28.7242 245.69 29.2577 245.666 30C242.953 29.9768 241.155 29.9652 240.273 29.9652C240.018 29.9652 239.206 29.9768 237.838 30C236.469 30 235.565 30 235.124 30C235.078 29.4433 235.078 28.9098 235.124 28.3995L238.186 28.2951C238.255 26.5322 238.29 23.1689 238.29 18.205V13.647L228.061 25.1637C228.061 26.3699 228.084 27.4137 228.13 28.2951L231.192 28.3995C231.216 28.7242 231.216 29.2577 231.192 30C228.525 29.9768 226.75 29.9652 225.869 29.9652C225.335 29.9652 224.384 29.9768 223.016 30C221.67 30 220.882 30 220.65 30C220.603 29.4433 220.603 28.9098 220.65 28.3995L223.712 28.2951C223.804 26.6482 223.851 23.2732 223.851 18.1702C223.851 12.9975 223.828 9.79651 223.781 8.56714L220.719 8.49755C220.673 7.96405 220.673 7.41895 220.719 6.86225C221.067 6.86225 221.96 6.87385 223.399 6.89705C224.86 6.89705 225.741 6.89705 226.043 6.89705L231.262 6.86225C231.285 7.23339 231.285 7.77848 231.262 8.49755L228.165 8.60193C228.096 9.8545 228.061 13.0671 228.061 18.2398V22.7629L238.29 11.2115C238.29 10.0981 238.279 9.21662 238.255 8.56714L235.194 8.49755C235.147 7.96405 235.147 7.41895 235.194 6.86225C235.681 6.86225 236.609 6.87385 237.977 6.89705C239.369 6.89705 240.192 6.89705 240.447 6.89705L245.736 6.86225C245.759 7.23339 245.759 7.77848 245.736 8.49755ZM265.474 13.5078L265.161 10.2372C265.115 9.70373 265.01 9.3326 264.848 9.12384C264.709 8.91508 264.431 8.7759 264.013 8.70631C262.992 8.52075 262.065 8.42797 261.23 8.42797C258.748 8.42797 256.672 9.23982 255.001 10.8635C253.331 12.464 252.496 14.9112 252.496 18.205C252.496 19.9215 252.763 21.4524 253.297 22.7977C253.83 24.1431 254.526 25.2101 255.384 25.9987C256.242 26.7874 257.17 27.3905 258.168 27.808C259.165 28.2023 260.174 28.3995 261.195 28.3995C262.262 28.3995 263.224 28.3299 264.083 28.1907C264.477 28.1211 264.755 28.0052 264.918 27.8428C265.103 27.6804 265.219 27.3789 265.266 26.9382L265.822 22.5542C265.985 22.5542 266.228 22.5542 266.553 22.5542C266.878 22.531 267.121 22.5194 267.284 22.5194C267.423 22.5194 267.655 22.531 267.979 22.5542C268.327 22.5542 268.594 22.5542 268.78 22.5542C268.78 22.6933 268.71 23.8415 268.571 25.9987C268.455 28.1327 268.397 29.3157 268.397 29.5477L267.214 29.5129C266.75 29.5361 265.729 29.6985 264.152 30C262.575 30.2783 261.357 30.4175 260.499 30.4175C256.718 30.4175 253.691 29.3853 251.418 27.3209C249.168 25.2333 248.043 22.415 248.043 18.866C248.043 15.1083 249.203 12.1045 251.522 9.8545C253.865 7.58132 256.973 6.44473 260.847 6.44473C261.682 6.44473 262.818 6.57231 264.257 6.82746C265.718 7.05942 266.692 7.18699 267.179 7.21019C267.226 7.21019 267.434 7.21019 267.806 7.21019C268.177 7.18699 268.374 7.1754 268.397 7.1754C268.397 7.40735 268.397 8.48596 268.397 10.4112C268.42 12.3364 268.432 13.3687 268.432 13.5078C267.736 13.5542 267.249 13.5774 266.97 13.5774C266.669 13.5774 266.17 13.5542 265.474 13.5078ZM271.515 30C271.469 29.4201 271.469 28.8866 271.515 28.3995L274.577 28.2951C274.67 26.6714 274.716 23.308 274.716 18.205C274.716 13.0091 274.693 9.79651 274.647 8.56714L271.585 8.49755C271.538 8.03364 271.515 7.76689 271.515 7.6973C271.515 7.65091 271.538 7.37256 271.585 6.86225C272.095 6.86225 273.046 6.87385 274.438 6.89705C275.83 6.89705 276.653 6.89705 276.908 6.89705L281.327 6.86225C281.373 7.44215 281.373 7.97565 281.327 8.46276L279.031 8.60193C278.961 10.3648 278.926 13.589 278.926 18.2746C278.926 23.308 278.949 26.6482 278.996 28.2951L281.953 28.3995C281.976 28.8866 281.976 29.4201 281.953 30C279.355 29.9768 277.616 29.9652 276.734 29.9652C276.479 29.9652 275.679 29.9768 274.333 30C273.011 30 272.072 30 271.515 30ZM285.05 30C285.027 29.4201 285.027 28.875 285.05 28.3647L287.52 28.2951L279.378 18.4137L287.868 8.7759L284.667 8.49755C284.621 8.03364 284.598 7.76689 284.598 7.6973C284.598 7.65091 284.621 7.37256 284.667 6.86225C285.154 6.86225 285.978 6.87385 287.137 6.89705C288.297 6.89705 289.005 6.89705 289.26 6.89705L294.305 6.86225C294.328 7.44215 294.328 7.97565 294.305 8.46276L290.756 8.7759L283.241 16.9524C283.635 17.3699 285.201 19.2372 287.938 22.5542C290.675 25.848 292.322 27.7616 292.878 28.2951L295.697 28.3995C295.72 28.8866 295.72 29.4201 295.697 30C292.983 29.9768 291.185 29.9652 290.304 29.9652C290.025 29.9652 289.179 29.9768 287.764 30C286.349 30 285.444 30 285.05 30Z" fill="white"/>
<line x1="326" y1="8.5" y2="8.5" stroke="black"/>
<line x1="326" y1="14.5" y2="14.5" stroke="black"/>
<line x1="326" y1="20.5" y2="20.5" stroke="black"/>
<line x1="326" y1="26.5" y2="26.5" stroke="black"/>
<line x1="326" y1="29.5" y2="29.5" stroke="black"/>
</svg>
