<svg width="1412" height="690" viewBox="0 0 1412 690" fill="none" xmlns="http://www.w3.org/2000/svg">
<path fill-rule="evenodd" clip-rule="evenodd" d="M1368.76 138H1417.18V215.474H1332.45V387.368H1417.18V447.895H1332.45V464.842H1417.18V554.421H1344.55V690H1254.97V617.368H1213.82V690H1121.82V617.368H1085.5V690H995.921V554.421C863.57 555.228 587.732 556.358 543.184 554.421C487.5 552 367.59 529.771 354.342 399.474C341.095 269.176 388.237 234.842 429.395 215.474H301.079V196.105H150.974H129.184V215.474H54.1318V221.882C54.1318 235.725 42.9098 246.947 29.0668 246.947C13.4934 246.947 0.868652 234.323 0.868652 218.749V137.324C0.868652 124.326 11.4056 113.789 24.4035 113.789H29.9213C43.2924 113.789 54.1318 124.629 54.1318 138H129.184V152.526H163.079H301.079V138H543.184V152.526H981.395V92H1024.97V19.3684H995.921V0H1085.5V19.3684H1058.87V92H1085.5V152.526H1109.71V92H1150.87V16.9474H1133.92V0H1204.13V19.3684L1179.92 16.9474V92H1213.82V152.526H1233.18V92H1276.76V16.9474H1254.97V0H1332.45V16.9474H1310.66V92H1344.55V152.526H1368.76V138ZM991.079 486.629V452.735H727.185C718.307 451.121 701.037 451.766 702.974 467.261C704.911 482.756 715.079 486.629 719.921 486.629H991.079ZM1119.39 217.895H1080.66V348.632H1119.39V217.895ZM1080.66 382.526H1119.39V397.052H1080.66V382.526ZM1245.29 382.526H1206.55V397.052H1245.29V382.526ZM1206.55 556.842H1245.29V571.368H1206.55V556.842ZM1119.39 556.842H1080.66V571.368H1119.39V556.842ZM1080.66 450.315H1119.39V489.052H1080.66V450.315ZM1245.29 450.315H1206.55V489.052H1245.29V450.315ZM988.658 392.21V225.158H560.132C518.974 234.035 435.205 272.61 429.394 355.895C423.584 439.179 506.061 477.754 548.026 486.631H640.026C636.153 414.968 685.219 393.824 710.237 392.21H988.658ZM1245.29 217.895H1206.55V348.632H1245.29V217.895Z" fill="black"/>
</svg>
