<svg width="1437" height="647" viewBox="0 0 1437 647" fill="none" xmlns="http://www.w3.org/2000/svg">
<path d="M334.499 61.0546C382.341 61.0546 406.262 81.4442 406.262 122.223C406.262 135.209 403.528 146.828 398.06 157.079C392.592 167.103 385.302 175.077 376.19 181C367.305 186.696 357.395 191.024 346.46 193.986C335.752 196.947 324.475 198.314 312.629 198.086C309.439 198.086 307.047 197.973 305.453 197.745L302.035 231.234L298.618 267.115L340.992 268.824C340.764 274.291 340.081 280.898 338.942 288.644C300.668 288.416 277.545 288.302 269.571 288.302C268.888 288.302 261.484 288.416 247.359 288.644C233.462 288.644 223.211 288.644 216.604 288.644C216.604 282.265 217.173 275.772 218.313 269.165L246.334 268.14C247.245 260.85 248.384 250.484 249.751 237.043C251.346 223.602 252.827 210.275 254.194 197.061C255.788 183.62 256.814 175.419 257.269 172.457C257.497 169.495 258.294 160.952 259.661 146.828C261.256 132.703 262.623 119.717 263.762 107.871C264.901 95.7966 265.698 87.1396 266.154 81.8998L238.474 81.2163C238.93 75.2931 239.727 68.5725 240.866 61.0546C246.562 61.0546 255.675 61.1685 268.204 61.3963C280.734 61.3963 287.455 61.3963 288.366 61.3963C289.278 61.3963 294.745 61.3963 304.769 61.3963C314.793 61.1685 324.703 61.0546 334.499 61.0546ZM311.262 143.752L307.845 176.558C309.212 176.786 311.376 176.899 314.337 176.899C328.462 175.077 338.6 169.04 344.751 158.788C351.13 148.308 354.319 136.006 354.319 121.882C354.319 96.8218 344.751 84.0641 325.614 83.6084H318.438C316.388 95.2271 313.996 115.275 311.262 143.752Z" fill="black"/>
<path d="M334.499 377.721C382.341 377.721 406.262 398.11 406.262 438.89C406.262 451.875 403.528 463.494 398.06 473.746C392.592 483.769 385.302 491.743 376.19 497.666C367.305 503.362 357.395 507.69 346.46 510.652C335.752 513.613 324.475 514.98 312.629 514.753C309.439 514.753 307.047 514.639 305.453 514.411L302.035 547.9L298.618 583.781L340.992 585.49C340.764 590.957 340.081 597.564 338.942 605.31C300.668 605.082 277.545 604.968 269.571 604.968C268.888 604.968 261.484 605.082 247.359 605.31C233.462 605.31 223.211 605.31 216.604 605.31C216.604 598.931 217.173 592.438 218.313 585.831L246.334 584.806C247.245 577.516 248.384 567.15 249.751 553.709C251.346 540.268 252.827 526.941 254.194 513.727C255.788 500.286 256.814 492.085 257.269 489.123C257.497 486.162 258.294 477.618 259.661 463.494C261.256 449.369 262.623 436.384 263.762 424.537C264.901 412.463 265.698 403.806 266.154 398.566L238.474 397.882C238.93 391.959 239.727 385.239 240.866 377.721C246.562 377.721 255.675 377.835 268.204 378.062C280.734 378.062 287.455 378.062 288.366 378.062C289.278 378.062 294.745 378.062 304.769 378.062C314.793 377.835 324.703 377.721 334.499 377.721ZM311.262 460.418L307.845 493.224C309.212 493.452 311.376 493.566 314.337 493.566C328.462 491.743 338.6 485.706 344.751 475.454C351.13 464.975 354.319 452.672 354.319 438.548C354.319 413.488 344.751 400.73 325.614 400.275H318.438C316.388 411.893 313.996 431.941 311.262 460.418Z" fill="black"/>
<path d="M738.305 56.9541C766.782 56.9541 790.817 65.839 810.409 83.6087C830.229 101.378 840.139 125.527 840.139 156.054C840.139 196.15 827.381 228.956 801.866 254.471C776.35 279.759 746.62 292.403 712.675 292.403C699.462 292.403 686.818 290.353 674.744 286.252C662.67 282.151 651.734 276.114 641.938 268.14C632.142 260.167 624.282 249.801 618.359 237.043C612.664 224.286 609.816 209.819 609.816 193.644C609.816 169.496 615.625 146.942 627.244 125.983C638.863 105.023 654.582 88.2789 674.402 75.749C694.222 63.2191 715.523 56.9541 738.305 56.9541ZM718.143 270.191C736.824 270.191 752.885 260.395 766.326 240.802C779.767 221.21 786.488 192.163 786.488 153.662C786.488 131.792 782.273 113.908 773.844 100.011C765.643 86.1147 752.429 79.1662 734.204 79.1662C712.334 79.1662 695.02 90.1015 682.262 111.972C669.504 133.842 663.125 161.294 663.125 194.328C663.125 218.704 668.137 237.499 678.161 250.712C688.185 263.698 701.512 270.191 718.143 270.191Z" fill="black"/>
<path d="M738.305 369.063C766.782 369.063 790.817 377.948 810.409 395.718C830.229 413.488 840.139 437.636 840.139 468.164C840.139 508.259 827.381 541.065 801.866 566.58C776.35 591.868 746.62 604.512 712.675 604.512C699.462 604.512 686.818 602.462 674.744 598.361C662.67 594.26 651.734 588.223 641.938 580.249C632.142 572.276 624.282 561.91 618.359 549.152C612.664 536.395 609.816 521.928 609.816 505.753C609.816 481.605 615.625 459.051 627.244 438.092C638.863 417.133 654.582 400.388 674.402 387.858C694.222 375.328 715.523 369.063 738.305 369.063ZM718.143 582.3C736.824 582.3 752.885 572.504 766.326 552.911C779.767 533.319 786.488 504.273 786.488 465.772C786.488 443.901 782.273 426.017 773.844 412.121C765.643 398.224 752.429 391.275 734.204 391.275C712.334 391.275 695.02 402.211 682.262 424.081C669.504 445.951 663.125 473.403 663.125 506.437C663.125 530.813 668.137 549.608 678.161 562.822C688.185 575.807 701.512 582.3 718.143 582.3Z" fill="black"/>
<path d="M1137.55 61.0546C1185.4 61.0546 1209.32 81.4442 1209.32 122.223C1209.32 135.209 1206.58 146.828 1201.11 157.079C1195.65 167.103 1188.36 175.077 1179.24 181C1170.36 186.696 1160.45 191.024 1149.51 193.986C1138.81 196.947 1127.53 198.314 1115.68 198.086C1112.49 198.086 1110.1 197.973 1108.51 197.745L1105.09 231.234L1101.67 267.115L1144.05 268.824C1143.82 274.291 1143.14 280.898 1142 288.644C1103.72 288.416 1080.6 288.302 1072.63 288.302C1071.94 288.302 1064.54 288.416 1050.41 288.644C1036.52 288.644 1026.27 288.644 1019.66 288.644C1019.66 282.265 1020.23 275.772 1021.37 269.165L1049.39 268.14C1050.3 260.85 1051.44 250.484 1052.81 237.043C1054.4 223.602 1055.88 210.275 1057.25 197.061C1058.84 183.62 1059.87 175.419 1060.32 172.457C1060.55 169.495 1061.35 160.952 1062.72 146.828C1064.31 132.703 1065.68 119.717 1066.82 107.871C1067.96 95.7966 1068.75 87.1396 1069.21 81.8998L1041.53 81.2163C1041.98 75.2931 1042.78 68.5725 1043.92 61.0546C1049.62 61.0546 1058.73 61.1685 1071.26 61.3963C1083.79 61.3963 1090.51 61.3963 1091.42 61.3963C1092.33 61.3963 1097.8 61.3963 1107.82 61.3963C1117.85 61.1685 1127.76 61.0546 1137.55 61.0546ZM1114.32 143.752L1110.9 176.558C1112.27 176.786 1114.43 176.899 1117.39 176.899C1131.52 175.077 1141.65 169.04 1147.81 158.788C1154.18 148.308 1157.37 136.006 1157.37 121.882C1157.37 96.8218 1147.81 84.0641 1128.67 83.6084H1121.49C1119.44 95.2271 1117.05 115.275 1114.32 143.752Z" fill="black"/>
<path d="M1137.55 377.721C1185.4 377.721 1209.32 398.11 1209.32 438.89C1209.32 451.875 1206.58 463.494 1201.11 473.746C1195.65 483.769 1188.36 491.743 1179.24 497.666C1170.36 503.362 1160.45 507.69 1149.51 510.652C1138.81 513.613 1127.53 514.98 1115.68 514.753C1112.49 514.753 1110.1 514.639 1108.51 514.411L1105.09 547.9L1101.67 583.781L1144.05 585.49C1143.82 590.957 1143.14 597.564 1142 605.31C1103.72 605.082 1080.6 604.968 1072.63 604.968C1071.94 604.968 1064.54 605.082 1050.41 605.31C1036.52 605.31 1026.27 605.31 1019.66 605.31C1019.66 598.931 1020.23 592.438 1021.37 585.831L1049.39 584.806C1050.3 577.516 1051.44 567.15 1052.81 553.709C1054.4 540.268 1055.88 526.941 1057.25 513.727C1058.84 500.286 1059.87 492.085 1060.32 489.123C1060.55 486.162 1061.35 477.618 1062.72 463.494C1064.31 449.369 1065.68 436.384 1066.82 424.537C1067.96 412.463 1068.75 403.806 1069.21 398.566L1041.53 397.882C1041.98 391.959 1042.78 385.239 1043.92 377.721C1049.62 377.721 1058.73 377.835 1071.26 378.062C1083.79 378.062 1090.51 378.062 1091.42 378.062C1092.33 378.062 1097.8 378.062 1107.82 378.062C1117.85 377.835 1127.76 377.721 1137.55 377.721ZM1114.32 460.418L1110.9 493.224C1112.27 493.452 1114.43 493.566 1117.39 493.566C1131.52 491.743 1141.65 485.706 1147.81 475.454C1154.18 464.975 1157.37 452.672 1157.37 438.548C1157.37 413.488 1147.81 400.73 1128.67 400.275H1121.49C1119.44 411.893 1117.05 431.941 1114.32 460.418Z" fill="black"/>
<path d="M339.625 69.484H775.895V141.246H339.625V69.484Z" fill="black" stroke="black"/>
<path d="M339.625 99.484C339.625 82.9155 353.057 69.484 369.625 69.484H745.895C762.463 69.484 775.895 82.9155 775.895 99.484V111.246C775.895 127.815 762.463 141.246 745.895 141.246H339.625V99.484Z" fill="white" stroke="black"/>
<path d="M297.863 251.738C281.294 251.738 267.863 238.306 267.863 221.738V171.246C267.863 154.678 281.294 141.246 297.863 141.246H339.625V251.738H297.863Z" fill="white" stroke="black"/>
<path d="M266.724 533.092V323.5H338.486V533.092H266.724Z" fill="black" stroke="black"/>
<path d="M296.724 533.092C280.155 533.092 266.724 519.66 266.724 503.092V353.5C266.724 336.931 280.155 323.5 296.724 323.5H338.486V533.092H296.724Z" fill="white" stroke="black"/>
<path d="M338.486 251.738H1028.77V323.5H338.486V251.738Z" fill="black" stroke="black"/>
<path d="M1028.77 533.092V323.5H1100.53V533.092H1028.77Z" fill="black" stroke="black"/>
<path d="M1028.77 533.092V323.5H1070.53C1087.1 323.5 1100.53 336.931 1100.53 353.5V503.092C1100.53 519.66 1087.1 533.092 1070.53 533.092H1028.77Z" fill="white" stroke="black"/>
<path d="M338.486 251.738H997.632C1014.2 251.738 1027.63 265.169 1027.63 281.738V323.5H338.486V251.738Z" fill="white" stroke="black"/>
<rect x="339.486" y="534.092" width="688.285" height="69.7623" rx="28" fill="white" stroke="black" stroke-width="2"/>
<rect x="338.486" y="533.092" width="690.285" height="71.7623" fill="black" stroke="black"/>
<path d="M338.486 563.092C338.486 546.523 351.917 533.092 368.486 533.092H1028.77V574.854C1028.77 591.422 1015.34 604.854 998.771 604.854H368.486C351.917 604.854 338.486 591.422 338.486 574.854V563.092Z" fill="white" stroke="black"/>
<mask id="mask0_426_6095" style="mask-type:alpha" maskUnits="userSpaceOnUse" x="339" y="141" width="77" height="66">
<rect x="339.625" y="141.246" width="76.3187" height="64.9278" fill="#D9D9D9"/>
</mask>
<g mask="url(#mask0_426_6095)">
<path fill-rule="evenodd" clip-rule="evenodd" d="M369.625 141.246H339.625V171.246C339.625 154.678 353.057 141.246 369.625 141.246ZM745.895 141.246C762.463 141.246 775.895 154.678 775.895 171.246V141.246H745.895ZM775.895 183.009C775.895 199.577 762.463 213.009 745.895 213.009H775.895V183.009Z" fill="black"/>
<path d="M339.625 141.246V138.746H337.125V141.246H339.625ZM775.895 141.246H778.395V138.746H775.895V141.246ZM775.895 213.009V215.509H778.395V213.009H775.895ZM339.625 143.746H369.625V138.746H339.625V143.746ZM342.125 171.246V141.246H337.125V171.246H342.125ZM342.125 171.246C342.125 156.059 354.437 143.746 369.625 143.746V138.746C351.676 138.746 337.125 153.297 337.125 171.246H342.125ZM745.895 143.746C761.082 143.746 773.395 156.059 773.395 171.246H778.395C778.395 153.297 763.844 138.746 745.895 138.746V143.746ZM773.395 141.246V171.246H778.395V141.246H773.395ZM745.895 143.746H775.895V138.746H745.895V143.746ZM773.395 183.009C773.395 198.196 761.082 210.509 745.895 210.509V215.509C763.844 215.509 778.395 200.958 778.395 183.009H773.395ZM775.895 210.509H745.895V215.509H775.895V210.509ZM773.395 183.009V213.009H778.395V183.009H773.395Z" fill="black"/>
</g>
<mask id="mask1_426_6095" style="mask-type:alpha" maskUnits="userSpaceOnUse" x="339" y="175" width="66" height="77">
<rect x="339.625" y="251.738" width="76.3187" height="64.9278" transform="rotate(-90 339.625 251.738)" fill="#D9D9D9"/>
</mask>
<g mask="url(#mask1_426_6095)">
<path fill-rule="evenodd" clip-rule="evenodd" d="M339.625 221.738V251.738H369.625C353.057 251.738 339.625 238.306 339.625 221.738ZM339.625 -154.532C339.625 -171.1 353.057 -184.532 369.625 -184.532H339.625V-154.532ZM381.387 -184.532C397.956 -184.532 411.388 -171.1 411.388 -154.532V-184.532H381.387Z" fill="black"/>
<path d="M339.625 251.738H339.125V252.238H339.625V251.738ZM339.625 -184.532V-185.032H339.125V-184.532H339.625ZM411.388 -184.532H411.888V-185.032H411.388V-184.532ZM340.125 251.738V221.738H339.125V251.738H340.125ZM369.625 251.238H339.625V252.238H369.625V251.238ZM369.625 251.238C353.333 251.238 340.125 238.03 340.125 221.738H339.125C339.125 238.582 352.781 252.238 369.625 252.238V251.238ZM340.125 -154.532C340.125 -170.824 353.333 -184.032 369.625 -184.032V-185.032C352.78 -185.032 339.125 -171.377 339.125 -154.532H340.125ZM339.625 -184.032H369.625V-185.032H339.625V-184.032ZM340.125 -154.532V-184.532H339.125V-154.532H340.125ZM381.387 -184.032C397.68 -184.032 410.888 -170.824 410.888 -154.532H411.888C411.888 -171.376 398.232 -185.032 381.387 -185.032V-184.032ZM410.888 -184.532V-154.532H411.888V-184.532H410.888ZM381.387 -184.032H411.388V-185.032H381.387V-184.032Z" fill="black"/>
</g>
<mask id="mask2_426_6095" style="mask-type:alpha" maskUnits="userSpaceOnUse" x="1028" y="247" width="66" height="77">
<rect x="1028.77" y="323.5" width="76.3187" height="64.9278" transform="rotate(-90 1028.77 323.5)" fill="#D9D9D9"/>
</mask>
<g mask="url(#mask2_426_6095)">
<path fill-rule="evenodd" clip-rule="evenodd" d="M1028.77 293.5V323.5H1058.77C1042.2 323.5 1028.77 310.069 1028.77 293.5ZM1028.77 -82.7694C1028.77 -99.3379 1042.2 -112.769 1058.77 -112.769H1028.77V-82.7694ZM1070.53 -112.769C1087.1 -112.769 1100.53 -99.3379 1100.53 -82.7693V-112.769H1070.53Z" fill="black"/>
<path d="M1028.77 323.5H1028.27V324H1028.77V323.5ZM1028.77 -112.769V-113.269H1028.27V-112.769H1028.77ZM1100.53 -112.769H1101.03V-113.269H1100.53V-112.769ZM1029.27 323.5V293.5H1028.27V323.5H1029.27ZM1058.77 323H1028.77V324H1058.77V323ZM1058.77 323C1042.48 323 1029.27 309.792 1029.27 293.5H1028.27C1028.27 310.345 1041.93 324 1058.77 324V323ZM1029.27 -82.7694C1029.27 -99.0618 1042.48 -112.269 1058.77 -112.269V-113.269C1041.93 -113.269 1028.27 -99.6141 1028.27 -82.7694H1029.27ZM1028.77 -112.269H1058.77V-113.269H1028.77V-112.269ZM1029.27 -82.7694V-112.769H1028.27V-82.7694H1029.27ZM1070.53 -112.269C1086.83 -112.269 1100.03 -99.0617 1100.03 -82.7693H1101.03C1101.03 -99.614 1087.38 -113.269 1070.53 -113.269V-112.269ZM1100.03 -112.769V-82.7693H1101.03V-112.769H1100.03ZM1070.53 -112.269H1100.53V-113.269H1070.53V-112.269Z" fill="black"/>
</g>
<mask id="mask3_426_6095" style="mask-type:alpha" maskUnits="userSpaceOnUse" x="963" y="323" width="66" height="77">
<rect x="1028.77" y="323.5" width="76.3187" height="64.9278" transform="rotate(90 1028.77 323.5)" fill="#D9D9D9"/>
</mask>
<g mask="url(#mask3_426_6095)">
<path fill-rule="evenodd" clip-rule="evenodd" d="M1028.77 353.5V323.5H998.771C1015.34 323.5 1028.77 336.931 1028.77 353.5ZM1028.77 729.769C1028.77 746.338 1015.34 759.769 998.771 759.769H1028.77V729.769ZM987.009 759.769C970.44 759.769 957.009 746.338 957.009 729.769V759.769H987.009Z" fill="black"/>
<path d="M1028.77 323.5H1029.27V323H1028.77V323.5ZM1028.77 759.769V760.269H1029.27V759.769H1028.77ZM957.009 759.769H956.509V760.269H957.009V759.769ZM1028.27 323.5V353.5H1029.27V323.5H1028.27ZM998.771 324H1028.77V323H998.771V324ZM998.771 324C1015.06 324 1028.27 337.208 1028.27 353.5H1029.27C1029.27 336.655 1015.62 323 998.771 323V324ZM1028.27 729.769C1028.27 746.062 1015.06 759.269 998.771 759.269V760.269C1015.62 760.269 1029.27 746.614 1029.27 729.769H1028.27ZM1028.77 759.269H998.771V760.269H1028.77V759.269ZM1028.27 729.769V759.769H1029.27V729.769H1028.27ZM987.009 759.269C970.717 759.269 957.509 746.062 957.509 729.769H956.509C956.509 746.614 970.164 760.269 987.009 760.269V759.269ZM957.509 759.769V729.769H956.509V759.769H957.509ZM987.009 759.269H957.009V760.269H987.009V759.269Z" fill="black"/>
</g>
<mask id="mask4_426_6095" style="mask-type:alpha" maskUnits="userSpaceOnUse" x="273" y="251" width="66" height="78">
<rect x="338.486" y="251.738" width="76.3187" height="64.9278" transform="rotate(90 338.486 251.738)" fill="#D9D9D9"/>
</mask>
<g mask="url(#mask4_426_6095)">
<path fill-rule="evenodd" clip-rule="evenodd" d="M338.486 281.738V251.738H308.486C325.055 251.738 338.486 265.169 338.486 281.738ZM338.486 658.007C338.486 674.575 325.055 688.007 308.486 688.007H338.486V658.007ZM296.724 688.007C280.155 688.007 266.724 674.575 266.724 658.007V688.007H296.724Z" fill="black"/>
<path d="M338.486 251.738H338.986V251.238H338.486V251.738ZM338.486 688.007V688.507H338.986V688.007H338.486ZM266.724 688.007H266.224V688.507H266.724V688.007ZM337.986 251.738V281.738H338.986V251.738H337.986ZM308.486 252.238H338.486V251.238H308.486V252.238ZM308.486 252.238C324.778 252.238 337.986 265.445 337.986 281.738H338.986C338.986 264.893 325.331 251.238 308.486 251.238V252.238ZM337.986 658.007C337.986 674.299 324.778 687.507 308.486 687.507V688.507C325.331 688.507 338.986 674.852 338.986 658.007H337.986ZM338.486 687.507H308.486V688.507H338.486V687.507ZM337.986 658.007V688.007H338.986V658.007H337.986ZM296.724 687.507C280.431 687.507 267.224 674.299 267.224 658.007H266.224C266.224 674.852 279.879 688.507 296.724 688.507V687.507ZM267.224 688.007V658.007H266.224V688.007H267.224ZM296.724 687.507H266.724V688.507H296.724V687.507Z" fill="black"/>
</g>
<mask id="mask5_426_6095" style="mask-type:alpha" maskUnits="userSpaceOnUse" x="273" y="533" width="66" height="77">
<rect x="338.486" y="533.092" width="76.3187" height="64.9278" transform="rotate(90 338.486 533.092)" fill="#D9D9D9"/>
</mask>
<g mask="url(#mask5_426_6095)">
<path fill-rule="evenodd" clip-rule="evenodd" d="M338.486 563.092V533.092H308.486C325.055 533.092 338.486 546.523 338.486 563.092ZM338.486 939.361C338.486 955.929 325.055 969.361 308.486 969.361H338.486V939.361ZM296.724 969.361C280.155 969.361 266.724 955.929 266.724 939.361V969.361H296.724Z" fill="black"/>
<path d="M338.486 533.092H338.986V532.592H338.486V533.092ZM338.486 969.361V969.861H338.986V969.361H338.486ZM266.724 969.361H266.224V969.861H266.724V969.361ZM337.986 533.092V563.092H338.986V533.092H337.986ZM308.486 533.592H338.486V532.592H308.486V533.592ZM308.486 533.592C324.778 533.592 337.986 546.799 337.986 563.092H338.986C338.986 546.247 325.331 532.592 308.486 532.592V533.592ZM337.986 939.361C337.986 955.653 324.778 968.861 308.486 968.861V969.861C325.331 969.861 338.986 956.206 338.986 939.361H337.986ZM338.486 968.861H308.486V969.861H338.486V968.861ZM337.986 939.361V969.361H338.986V939.361H337.986ZM296.724 968.861C280.431 968.861 267.224 955.653 267.224 939.361H266.224C266.224 956.206 279.879 969.861 296.724 969.861V968.861ZM267.224 969.361V939.361H266.224V969.361H267.224ZM296.724 968.861H266.724V969.861H296.724V968.861Z" fill="black"/>
</g>
<mask id="mask6_426_6095" style="mask-type:alpha" maskUnits="userSpaceOnUse" x="618" y="533" width="66" height="77">
<rect x="683.629" y="533.092" width="76.3187" height="64.9278" transform="rotate(90 683.629 533.092)" fill="#D9D9D9"/>
</mask>
<g mask="url(#mask6_426_6095)">
<path fill-rule="evenodd" clip-rule="evenodd" d="M683.629 563.092V533.092H653.629C670.197 533.092 683.629 546.523 683.629 563.092ZM683.629 939.361C683.629 955.929 670.197 969.361 653.629 969.361H683.629V939.361ZM641.866 969.361C625.298 969.361 611.866 955.929 611.866 939.361V969.361H641.866Z" fill="black"/>
<path d="M683.629 533.092H684.129V532.592H683.629V533.092ZM683.629 969.361V969.861H684.129V969.361H683.629ZM611.866 969.361H611.366V969.861H611.866V969.361ZM683.129 533.092V563.092H684.129V533.092H683.129ZM653.629 533.592H683.629V532.592H653.629V533.592ZM653.629 533.592C669.921 533.592 683.129 546.799 683.129 563.092H684.129C684.129 546.247 670.473 532.592 653.629 532.592V533.592ZM683.129 939.361C683.129 955.653 669.921 968.861 653.629 968.861V969.861C670.473 969.861 684.129 956.206 684.129 939.361H683.129ZM683.629 968.861H653.629V969.861H683.629V968.861ZM683.129 939.361V969.361H684.129V939.361H683.129ZM641.866 968.861C625.574 968.861 612.366 955.653 612.366 939.361H611.366C611.366 956.206 625.022 969.861 641.866 969.861V968.861ZM612.366 969.361V939.361H611.366V969.361H612.366ZM641.866 968.861H611.866V969.861H641.866V968.861Z" fill="black"/>
</g>
<mask id="mask7_426_6095" style="mask-type:alpha" maskUnits="userSpaceOnUse" x="1035" y="428" width="66" height="77">
<rect x="1100.53" y="428.296" width="76.3187" height="64.9278" transform="rotate(90 1100.53 428.296)" fill="#D9D9D9"/>
</mask>
<g mask="url(#mask7_426_6095)">
<path fill-rule="evenodd" clip-rule="evenodd" d="M1100.53 458.296V428.296H1070.53C1087.1 428.296 1100.53 441.727 1100.53 458.296ZM1100.53 834.565C1100.53 851.134 1087.1 864.565 1070.53 864.565H1100.53V834.565ZM1058.77 864.565C1042.2 864.565 1028.77 851.134 1028.77 834.565V864.565H1058.77Z" fill="black"/>
<path d="M1100.53 428.296H1101.03V427.796H1100.53V428.296ZM1100.53 864.565V865.065H1101.03V864.565H1100.53ZM1028.77 864.565H1028.27V865.065H1028.77V864.565ZM1100.03 428.296V458.296H1101.03V428.296H1100.03ZM1070.53 428.796H1100.53V427.796H1070.53V428.796ZM1070.53 428.796C1086.83 428.796 1100.03 442.003 1100.03 458.296H1101.03C1101.03 441.451 1087.38 427.796 1070.53 427.796V428.796ZM1100.03 834.565C1100.03 850.857 1086.83 864.065 1070.53 864.065V865.065C1087.38 865.065 1101.03 851.41 1101.03 834.565H1100.03ZM1100.53 864.065H1070.53V865.065H1100.53V864.065ZM1100.03 834.565V864.565H1101.03V834.565H1100.03ZM1058.77 864.065C1042.48 864.065 1029.27 850.857 1029.27 834.565H1028.27C1028.27 851.41 1041.93 865.065 1058.77 865.065V864.065ZM1029.27 864.565V834.565H1028.27V864.565H1029.27ZM1058.77 864.065H1028.77V865.065H1058.77V864.065Z" fill="black"/>
</g>
<mask id="mask8_426_6095" style="mask-type:alpha" maskUnits="userSpaceOnUse" x="338" y="323" width="77" height="66">
<rect x="338.486" y="323.5" width="76.3187" height="64.9278" fill="#D9D9D9"/>
</mask>
<g mask="url(#mask8_426_6095)">
<path fill-rule="evenodd" clip-rule="evenodd" d="M368.486 323.5H338.486V353.5C338.486 336.931 351.917 323.5 368.486 323.5ZM744.755 323.5C761.324 323.5 774.755 336.931 774.755 353.5V323.5H744.755ZM774.755 365.262C774.755 381.831 761.324 395.262 744.755 395.262H774.755V365.262Z" fill="black"/>
<path d="M338.486 323.5V323H337.986V323.5H338.486ZM774.755 323.5H775.255V323H774.755V323.5ZM774.755 395.262V395.762H775.255V395.262H774.755ZM338.486 324H368.486V323H338.486V324ZM338.986 353.5V323.5H337.986V353.5H338.986ZM338.986 353.5C338.986 337.208 352.194 324 368.486 324V323C351.641 323 337.986 336.655 337.986 353.5H338.986ZM744.755 324C761.048 324 774.255 337.208 774.255 353.5H775.255C775.255 336.655 761.6 323 744.755 323V324ZM774.255 323.5V353.5H775.255V323.5H774.255ZM744.755 324H774.755V323H744.755V324ZM774.255 365.262C774.255 381.555 761.048 394.762 744.755 394.762V395.762C761.6 395.762 775.255 382.107 775.255 365.262H774.255ZM774.755 394.762H744.755V395.762H774.755V394.762ZM774.255 365.262V395.262H775.255V365.262H774.255Z" fill="black"/>
</g>
<mask id="mask9_426_6095" style="mask-type:alpha" maskUnits="userSpaceOnUse" x="73" y="64" width="77" height="66">
<rect x="73.0794" y="64.9279" width="76.3187" height="64.9278" fill="#D9D9D9"/>
</mask>
<g mask="url(#mask9_426_6095)">
<path fill-rule="evenodd" clip-rule="evenodd" d="M103.079 64.9279H73.0794V94.9279C73.0794 78.3593 86.5109 64.9279 103.079 64.9279ZM479.349 64.9279C495.917 64.9279 509.349 78.3593 509.349 94.9279V64.9279H479.349ZM509.349 106.69C509.349 123.259 495.917 136.69 479.349 136.69H509.349V106.69Z" fill="black"/>
<path d="M73.0794 64.9279V64.4279H72.5794V64.9279H73.0794ZM509.349 64.9279H509.849V64.4279H509.349V64.9279ZM509.349 136.69V137.19H509.849V136.69H509.349ZM73.0794 65.4279H103.079V64.4279H73.0794V65.4279ZM73.5794 94.9279V64.9279H72.5794V94.9279H73.5794ZM73.5794 94.9279C73.5794 78.6355 86.787 65.4279 103.079 65.4279V64.4279C86.2347 64.4279 72.5794 78.0832 72.5794 94.9279H73.5794ZM479.349 65.4279C495.641 65.4279 508.849 78.6355 508.849 94.9279H509.849C509.849 78.0832 496.193 64.4279 479.349 64.4279V65.4279ZM508.849 64.9279V94.9279H509.849V64.9279H508.849ZM479.349 65.4279H509.349V64.4279H479.349V65.4279ZM508.849 106.69C508.849 122.983 495.641 136.19 479.349 136.19V137.19C496.193 137.19 509.849 123.535 509.849 106.69H508.849ZM509.349 136.19H479.349V137.19H509.349V136.19ZM508.849 106.69V136.69H509.849V106.69H508.849Z" fill="black"/>
</g>
<mask id="mask10_426_6095" style="mask-type:alpha" maskUnits="userSpaceOnUse" x="1286" y="64" width="77" height="66">
<rect x="1286.2" y="64.9279" width="76.3187" height="64.9278" fill="#D9D9D9"/>
</mask>
<g mask="url(#mask10_426_6095)">
<path fill-rule="evenodd" clip-rule="evenodd" d="M1316.2 64.9279H1286.2V94.9279C1286.2 78.3593 1299.64 64.9279 1316.2 64.9279ZM1692.47 64.9279C1709.04 64.9279 1722.47 78.3593 1722.47 94.9279V64.9279H1692.47ZM1722.47 106.69C1722.47 123.259 1709.04 136.69 1692.47 136.69H1722.47V106.69Z" fill="black"/>
<path d="M1286.2 64.9279V64.4279H1285.7V64.9279H1286.2ZM1722.47 64.9279H1722.97V64.4279H1722.47V64.9279ZM1722.47 136.69V137.19H1722.97V136.69H1722.47ZM1286.2 65.4279H1316.2V64.4279H1286.2V65.4279ZM1286.7 94.9279V64.9279H1285.7V94.9279H1286.7ZM1286.7 94.9279C1286.7 78.6355 1299.91 65.4279 1316.2 65.4279V64.4279C1299.36 64.4279 1285.7 78.0832 1285.7 94.9279H1286.7ZM1692.47 65.4279C1708.77 65.4279 1721.97 78.6355 1721.97 94.9279H1722.97C1722.97 78.0832 1709.32 64.4279 1692.47 64.4279V65.4279ZM1721.97 64.9279V94.9279H1722.97V64.9279H1721.97ZM1692.47 65.4279H1722.47V64.4279H1692.47V65.4279ZM1721.97 106.69C1721.97 122.983 1708.77 136.19 1692.47 136.19V137.19C1709.32 137.19 1722.97 123.535 1722.97 106.69H1721.97ZM1722.47 136.19H1692.47V137.19H1722.47V136.19ZM1721.97 106.69V136.69H1722.97V106.69H1721.97Z" fill="black"/>
</g>
<mask id="mask11_426_6095" style="mask-type:alpha" maskUnits="userSpaceOnUse" x="147" y="194" width="77" height="66">
<rect x="147.12" y="194.783" width="76.3187" height="64.9278" fill="#D9D9D9"/>
</mask>
<g mask="url(#mask11_426_6095)">
<path fill-rule="evenodd" clip-rule="evenodd" d="M177.12 194.783H147.12V224.783C147.12 208.215 160.551 194.783 177.12 194.783ZM553.389 194.783C569.958 194.783 583.389 208.215 583.389 224.783V194.783H553.389ZM583.389 236.546C583.389 253.114 569.958 266.546 553.389 266.546H583.389V236.546Z" fill="black"/>
<path d="M147.12 194.783V194.283H146.62V194.783H147.12ZM583.389 194.783H583.889V194.283H583.389V194.783ZM583.389 266.546V267.046H583.889V266.546H583.389ZM147.12 195.283H177.12V194.283H147.12V195.283ZM147.62 224.783V194.783H146.62V224.783H147.62ZM147.62 224.783C147.62 208.491 160.827 195.283 177.12 195.283V194.283C160.275 194.283 146.62 207.939 146.62 224.783H147.62ZM553.389 195.283C569.682 195.283 582.889 208.491 582.889 224.783H583.889C583.889 207.939 570.234 194.283 553.389 194.283V195.283ZM582.889 194.783V224.783H583.889V194.783H582.889ZM553.389 195.283H583.389V194.283H553.389V195.283ZM582.889 236.546C582.889 252.838 569.682 266.046 553.389 266.046V267.046C570.234 267.046 583.889 253.39 583.889 236.546H582.889ZM583.389 266.046H553.389V267.046H583.389V266.046ZM582.889 236.546V266.546H583.889V236.546H582.889Z" fill="black"/>
</g>
<mask id="mask12_426_6095" style="mask-type:alpha" maskUnits="userSpaceOnUse" x="1360" y="194" width="77" height="66">
<rect x="1360.24" y="194.783" width="76.3187" height="64.9278" fill="#D9D9D9"/>
</mask>
<g mask="url(#mask12_426_6095)">
<path fill-rule="evenodd" clip-rule="evenodd" d="M1390.24 194.783H1360.24V224.783C1360.24 208.215 1373.68 194.783 1390.24 194.783ZM1766.51 194.783C1783.08 194.783 1796.51 208.215 1796.51 224.783V194.783H1766.51ZM1796.51 236.546C1796.51 253.114 1783.08 266.546 1766.51 266.546H1796.51V236.546Z" fill="black"/>
<path d="M1360.24 194.783V194.283H1359.74V194.783H1360.24ZM1796.51 194.783H1797.01V194.283H1796.51V194.783ZM1796.51 266.546V267.046H1797.01V266.546H1796.51ZM1360.24 195.283H1390.24V194.283H1360.24V195.283ZM1360.74 224.783V194.783H1359.74V224.783H1360.74ZM1360.74 224.783C1360.74 208.491 1373.95 195.283 1390.24 195.283V194.283C1373.4 194.283 1359.74 207.939 1359.74 224.783H1360.74ZM1766.51 195.283C1782.81 195.283 1796.01 208.491 1796.01 224.783H1797.01C1797.01 207.939 1783.36 194.283 1766.51 194.283V195.283ZM1796.01 194.783V224.783H1797.01V194.783H1796.01ZM1766.51 195.283H1796.51V194.283H1766.51V195.283ZM1796.01 236.546C1796.01 252.838 1782.81 266.046 1766.51 266.046V267.046C1783.36 267.046 1797.01 253.39 1797.01 236.546H1796.01ZM1796.51 266.046H1766.51V267.046H1796.51V266.046ZM1796.01 236.546V266.546H1797.01V236.546H1796.01Z" fill="black"/>
</g>
<mask id="mask13_426_6095" style="mask-type:alpha" maskUnits="userSpaceOnUse" x="1206" y="108" width="77" height="66">
<rect x="1206.47" y="108.213" width="76.3187" height="64.9278" fill="#D9D9D9"/>
</mask>
<g mask="url(#mask13_426_6095)">
<path fill-rule="evenodd" clip-rule="evenodd" d="M1236.47 108.213H1206.47V138.213C1206.47 121.644 1219.9 108.213 1236.47 108.213ZM1612.74 108.213C1629.31 108.213 1642.74 121.644 1642.74 138.213V108.213H1612.74ZM1642.74 149.975C1642.74 166.544 1629.31 179.975 1612.74 179.975H1642.74V149.975Z" fill="black"/>
<path d="M1206.47 108.213V107.713H1205.97V108.213H1206.47ZM1642.74 108.213H1643.24V107.713H1642.74V108.213ZM1642.74 179.975V180.475H1643.24V179.975H1642.74ZM1206.47 108.713H1236.47V107.713H1206.47V108.713ZM1206.97 138.213V108.213H1205.97V138.213H1206.97ZM1206.97 138.213C1206.97 121.921 1220.18 108.713 1236.47 108.713V107.713C1219.62 107.713 1205.97 121.368 1205.97 138.213H1206.97ZM1612.74 108.713C1629.03 108.713 1642.24 121.921 1642.24 138.213H1643.24C1643.24 121.368 1629.58 107.713 1612.74 107.713V108.713ZM1642.24 108.213V138.213H1643.24V108.213H1642.24ZM1612.74 108.713H1642.74V107.713H1612.74V108.713ZM1642.24 149.975C1642.24 166.268 1629.03 179.475 1612.74 179.475V180.475C1629.58 180.475 1643.24 166.82 1643.24 149.975H1642.24ZM1642.74 179.475H1612.74V180.475H1642.74V179.475ZM1642.24 149.975V179.975H1643.24V149.975H1642.24Z" fill="black"/>
</g>
<mask id="mask14_426_6095" style="mask-type:alpha" maskUnits="userSpaceOnUse" x="147" y="453" width="77" height="66">
<rect x="147.12" y="453.356" width="76.3187" height="64.9278" fill="#D9D9D9"/>
</mask>
<g mask="url(#mask14_426_6095)">
<path fill-rule="evenodd" clip-rule="evenodd" d="M177.12 453.356H147.12V483.356C147.12 466.787 160.551 453.356 177.12 453.356ZM553.389 453.356C569.958 453.356 583.389 466.787 583.389 483.356V453.356H553.389ZM583.389 495.118C583.389 511.687 569.958 525.118 553.389 525.118H583.389V495.118Z" fill="black"/>
<path d="M147.12 453.356V452.856H146.62V453.356H147.12ZM583.389 453.356H583.889V452.856H583.389V453.356ZM583.389 525.118V525.618H583.889V525.118H583.389ZM147.12 453.856H177.12V452.856H147.12V453.856ZM147.62 483.356V453.356H146.62V483.356H147.62ZM147.62 483.356C147.62 467.063 160.827 453.856 177.12 453.856V452.856C160.275 452.856 146.62 466.511 146.62 483.356H147.62ZM553.389 453.856C569.682 453.856 582.889 467.063 582.889 483.356H583.889C583.889 466.511 570.234 452.856 553.389 452.856V453.856ZM582.889 453.356V483.356H583.889V453.356H582.889ZM553.389 453.856H583.389V452.856H553.389V453.856ZM582.889 495.118C582.889 511.41 569.682 524.618 553.389 524.618V525.618C570.234 525.618 583.889 511.963 583.889 495.118H582.889ZM583.389 524.618H553.389V525.618H583.389V524.618ZM582.889 495.118V525.118H583.889V495.118H582.889Z" fill="black"/>
</g>
<mask id="mask15_426_6095" style="mask-type:alpha" maskUnits="userSpaceOnUse" x="1360" y="453" width="77" height="66">
<rect x="1360.24" y="453.356" width="76.3187" height="64.9278" fill="#D9D9D9"/>
</mask>
<g mask="url(#mask15_426_6095)">
<path fill-rule="evenodd" clip-rule="evenodd" d="M1390.24 453.356H1360.24V483.356C1360.24 466.787 1373.68 453.356 1390.24 453.356ZM1766.51 453.356C1783.08 453.356 1796.51 466.787 1796.51 483.356V453.356H1766.51ZM1796.51 495.118C1796.51 511.687 1783.08 525.118 1766.51 525.118H1796.51V495.118Z" fill="black"/>
<path d="M1360.24 453.356V452.856H1359.74V453.356H1360.24ZM1796.51 453.356H1797.01V452.856H1796.51V453.356ZM1796.51 525.118V525.618H1797.01V525.118H1796.51ZM1360.24 453.856H1390.24V452.856H1360.24V453.856ZM1360.74 483.356V453.356H1359.74V483.356H1360.74ZM1360.74 483.356C1360.74 467.063 1373.95 453.856 1390.24 453.856V452.856C1373.4 452.856 1359.74 466.511 1359.74 483.356H1360.74ZM1766.51 453.856C1782.81 453.856 1796.01 467.063 1796.01 483.356H1797.01C1797.01 466.511 1783.36 452.856 1766.51 452.856V453.856ZM1796.01 453.356V483.356H1797.01V453.356H1796.01ZM1766.51 453.856H1796.51V452.856H1766.51V453.856ZM1796.01 495.118C1796.01 511.41 1782.81 524.618 1766.51 524.618V525.618C1783.36 525.618 1797.01 511.963 1797.01 495.118H1796.01ZM1796.51 524.618H1766.51V525.618H1796.51V524.618ZM1796.01 495.118V525.118H1797.01V495.118H1796.01Z" fill="black"/>
</g>
<mask id="mask16_426_6095" style="mask-type:alpha" maskUnits="userSpaceOnUse" x="73" y="582" width="77" height="65">
<rect x="73.0794" y="582.072" width="76.3187" height="64.9278" fill="#D9D9D9"/>
</mask>
<g mask="url(#mask16_426_6095)">
<path fill-rule="evenodd" clip-rule="evenodd" d="M103.079 582.072H73.0794V612.072C73.0794 595.503 86.5109 582.072 103.079 582.072ZM479.349 582.072C495.917 582.072 509.349 595.503 509.349 612.072V582.072H479.349ZM509.349 623.834C509.349 640.403 495.917 653.834 479.349 653.834H509.349V623.834Z" fill="black"/>
<path d="M73.0794 582.072V581.572H72.5794V582.072H73.0794ZM509.349 582.072H509.849V581.572H509.349V582.072ZM509.349 653.834V654.334H509.849V653.834H509.349ZM73.0794 582.572H103.079V581.572H73.0794V582.572ZM73.5794 612.072V582.072H72.5794V612.072H73.5794ZM73.5794 612.072C73.5794 595.78 86.787 582.572 103.079 582.572V581.572C86.2347 581.572 72.5794 595.227 72.5794 612.072H73.5794ZM479.349 582.572C495.641 582.572 508.849 595.78 508.849 612.072H509.849C509.849 595.227 496.193 581.572 479.349 581.572V582.572ZM508.849 582.072V612.072H509.849V582.072H508.849ZM479.349 582.572H509.349V581.572H479.349V582.572ZM508.849 623.834C508.849 640.127 495.641 653.334 479.349 653.334V654.334C496.193 654.334 509.849 640.679 509.849 623.834H508.849ZM509.349 653.334H479.349V654.334H509.349V653.334ZM508.849 623.834V653.834H509.849V623.834H508.849Z" fill="black"/>
</g>
<mask id="mask17_426_6095" style="mask-type:alpha" maskUnits="userSpaceOnUse" x="1286" y="582" width="77" height="65">
<rect x="1286.2" y="582.072" width="76.3187" height="64.9278" fill="#D9D9D9"/>
</mask>
<g mask="url(#mask17_426_6095)">
<path fill-rule="evenodd" clip-rule="evenodd" d="M1316.2 582.072H1286.2V612.072C1286.2 595.503 1299.64 582.072 1316.2 582.072ZM1692.47 582.072C1709.04 582.072 1722.47 595.503 1722.47 612.072V582.072H1692.47ZM1722.47 623.834C1722.47 640.403 1709.04 653.834 1692.47 653.834H1722.47V623.834Z" fill="black"/>
<path d="M1286.2 582.072V581.572H1285.7V582.072H1286.2ZM1722.47 582.072H1722.97V581.572H1722.47V582.072ZM1722.47 653.834V654.334H1722.97V653.834H1722.47ZM1286.2 582.572H1316.2V581.572H1286.2V582.572ZM1286.7 612.072V582.072H1285.7V612.072H1286.7ZM1286.7 612.072C1286.7 595.78 1299.91 582.572 1316.2 582.572V581.572C1299.36 581.572 1285.7 595.227 1285.7 612.072H1286.7ZM1692.47 582.572C1708.77 582.572 1721.97 595.78 1721.97 612.072H1722.97C1722.97 595.227 1709.32 581.572 1692.47 581.572V582.572ZM1721.97 582.072V612.072H1722.97V582.072H1721.97ZM1692.47 582.572H1722.47V581.572H1692.47V582.572ZM1721.97 623.834C1721.97 640.127 1708.77 653.334 1692.47 653.334V654.334C1709.32 654.334 1722.97 640.679 1722.97 623.834H1721.97ZM1722.47 653.334H1692.47V654.334H1722.47V653.334ZM1721.97 623.834V653.834H1722.97V623.834H1721.97Z" fill="black"/>
</g>
<mask id="mask18_426_6095" style="mask-type:alpha" maskUnits="userSpaceOnUse" x="745" y="539" width="77" height="66">
<rect x="821.458" y="604.854" width="76.3187" height="64.9278" transform="rotate(-180 821.458 604.854)" fill="#D9D9D9"/>
</mask>
<g mask="url(#mask18_426_6095)">
<path fill-rule="evenodd" clip-rule="evenodd" d="M791.458 604.854H821.458V574.854C821.458 591.422 808.026 604.854 791.458 604.854ZM415.189 604.854C398.62 604.854 385.189 591.422 385.189 574.854V604.854H415.189ZM385.189 563.091C385.189 546.523 398.62 533.091 415.189 533.091H385.189V563.091Z" fill="black"/>
<path d="M821.458 604.854V605.354H821.958V604.854H821.458ZM385.189 604.854H384.689V605.354H385.189V604.854ZM385.189 533.091V532.591H384.689V533.091H385.189ZM821.458 604.354H791.458V605.354H821.458V604.354ZM820.958 574.854V604.854H821.958V574.854H820.958ZM820.958 574.854C820.958 591.146 807.75 604.354 791.458 604.354V605.354C808.303 605.354 821.958 591.698 821.958 574.854H820.958ZM415.189 604.354C398.896 604.354 385.689 591.146 385.689 574.854H384.689C384.689 591.698 398.344 605.354 415.189 605.354V604.354ZM385.689 604.854V574.854H384.689V604.854H385.689ZM415.189 604.354H385.189V605.354H415.189V604.354ZM385.689 563.091C385.689 546.799 398.896 533.591 415.189 533.591V532.591C398.344 532.591 384.689 546.247 384.689 563.091H385.689ZM385.189 533.591H415.189V532.591H385.189V533.591ZM385.689 563.091V533.091H384.689V563.091H385.689Z" fill="black"/>
</g>
<mask id="mask19_426_6095" style="mask-type:alpha" maskUnits="userSpaceOnUse" x="378" y="258" width="77" height="66">
<rect x="454.673" y="323.5" width="76.3187" height="64.9278" transform="rotate(-180 454.673 323.5)" fill="#D9D9D9"/>
</mask>
<g mask="url(#mask19_426_6095)">
<path fill-rule="evenodd" clip-rule="evenodd" d="M424.673 323.5H454.673V293.5C454.673 310.069 441.241 323.5 424.673 323.5ZM48.4033 323.5C31.8347 323.5 18.4033 310.069 18.4033 293.5V323.5H48.4033ZM18.4033 281.738C18.4033 265.169 31.8348 251.738 48.4033 251.738H18.4033V281.738Z" fill="black"/>
<path d="M454.673 323.5V324H455.173V323.5H454.673ZM18.4033 323.5H17.9033V324H18.4033V323.5ZM18.4033 251.738V251.238H17.9033V251.738H18.4033ZM454.673 323H424.673V324H454.673V323ZM454.173 293.5V323.5H455.173V293.5H454.173ZM454.173 293.5C454.173 309.792 440.965 323 424.673 323V324C441.517 324 455.173 310.345 455.173 293.5H454.173ZM48.4033 323C32.1109 323 18.9033 309.792 18.9033 293.5H17.9033C17.9033 310.345 31.5586 324 48.4033 324V323ZM18.9033 323.5V293.5H17.9033V323.5H18.9033ZM48.4033 323H18.4033V324H48.4033V323ZM18.9033 281.738C18.9033 265.445 32.1109 252.238 48.4033 252.238V251.238C31.5586 251.238 17.9033 264.893 17.9033 281.738H18.9033ZM18.4033 252.238H48.4033V251.238H18.4033V252.238ZM18.9033 281.738V251.738H17.9033V281.738H18.9033Z" fill="black"/>
</g>
<mask id="mask20_426_6095" style="mask-type:alpha" maskUnits="userSpaceOnUse" x="262" y="258" width="77" height="66">
<rect x="338.486" y="323.5" width="76.3187" height="64.9278" transform="rotate(-180 338.486 323.5)" fill="#D9D9D9"/>
</mask>
<g mask="url(#mask20_426_6095)">
<path fill-rule="evenodd" clip-rule="evenodd" d="M308.486 323.5H338.486V293.5C338.486 310.069 325.055 323.5 308.486 323.5ZM-67.7834 323.5C-84.3519 323.5 -97.7833 310.069 -97.7833 293.5V323.5H-67.7834ZM-97.7833 281.738C-97.7833 265.169 -84.3519 251.738 -67.7833 251.738H-97.7833V281.738Z" fill="black"/>
<path d="M338.486 323.5V324H338.986V323.5H338.486ZM-97.7833 323.5H-98.2833V324H-97.7833V323.5ZM-97.7833 251.738V251.238H-98.2833V251.738H-97.7833ZM338.486 323H308.486V324H338.486V323ZM337.986 293.5V323.5H338.986V293.5H337.986ZM337.986 293.5C337.986 309.792 324.778 323 308.486 323V324C325.331 324 338.986 310.345 338.986 293.5H337.986ZM-67.7834 323C-84.0757 323 -97.2833 309.792 -97.2833 293.5H-98.2833C-98.2833 310.345 -84.6281 324 -67.7834 324V323ZM-97.2833 323.5V293.5H-98.2833V323.5H-97.2833ZM-67.7834 323H-97.7833V324H-67.7834V323ZM-97.2833 281.738C-97.2833 265.445 -84.0757 252.238 -67.7833 252.238V251.238C-84.628 251.238 -98.2833 264.893 -98.2833 281.738H-97.2833ZM-97.7833 252.238H-67.7833V251.238H-97.7833V252.238ZM-97.2833 281.738V251.738H-98.2833V281.738H-97.2833Z" fill="black"/>
</g>
<mask id="mask21_426_6095" style="mask-type:alpha" maskUnits="userSpaceOnUse" x="-4" y="0" width="78" height="65">
<rect x="73.0794" y="64.9279" width="76.3187" height="64.9278" transform="rotate(-180 73.0794 64.9279)" fill="#D9D9D9"/>
</mask>
<g mask="url(#mask21_426_6095)">
<path fill-rule="evenodd" clip-rule="evenodd" d="M43.0794 64.9279H73.0794V34.9278C73.0794 51.4964 59.6479 64.9279 43.0794 64.9279ZM-333.19 64.9279C-349.759 64.9279 -363.19 51.4964 -363.19 34.9279V64.9279H-333.19ZM-363.19 23.1655C-363.19 6.597 -349.758 -6.83447 -333.19 -6.83447H-363.19V23.1655Z" fill="black"/>
<path d="M73.0794 64.9279V65.4279H73.5794V64.9279H73.0794ZM-363.19 64.9279H-363.69V65.4279H-363.19V64.9279ZM-363.19 -6.83447V-7.33447H-363.69V-6.83447H-363.19ZM73.0794 64.4279H43.0794V65.4279H73.0794V64.4279ZM72.5794 34.9278V64.9279H73.5794V34.9278H72.5794ZM72.5794 34.9278C72.5794 51.2202 59.3718 64.4279 43.0794 64.4279V65.4279C59.9241 65.4279 73.5794 51.7725 73.5794 34.9278H72.5794ZM-333.19 64.4279C-349.482 64.4279 -362.69 51.2203 -362.69 34.9279H-363.69C-363.69 51.7725 -350.035 65.4279 -333.19 65.4279V64.4279ZM-362.69 64.9279V34.9279H-363.69V64.9279H-362.69ZM-333.19 64.4279H-363.19V65.4279H-333.19V64.4279ZM-362.69 23.1655C-362.69 6.87314 -349.482 -6.33447 -333.19 -6.33447V-7.33447C-350.035 -7.33447 -363.69 6.32086 -363.69 23.1655H-362.69ZM-363.19 -6.33447H-333.19V-7.33447H-363.19V-6.33447ZM-362.69 23.1655V-6.83447H-363.69V23.1655H-362.69Z" fill="black"/>
</g>
<mask id="mask22_426_6095" style="mask-type:alpha" maskUnits="userSpaceOnUse" x="1209" y="0" width="78" height="65">
<rect x="1286.2" y="64.9279" width="76.3187" height="64.9278" transform="rotate(-180 1286.2 64.9279)" fill="#D9D9D9"/>
</mask>
<g mask="url(#mask22_426_6095)">
<path fill-rule="evenodd" clip-rule="evenodd" d="M1256.2 64.9279H1286.2V34.9278C1286.2 51.4964 1272.77 64.9279 1256.2 64.9279ZM879.935 64.9279C863.366 64.9279 849.935 51.4964 849.935 34.9279V64.9279H879.935ZM849.935 23.1655C849.935 6.597 863.366 -6.83447 879.935 -6.83447H849.935V23.1655Z" fill="black"/>
<path d="M1286.2 64.9279V65.4279H1286.7V64.9279H1286.2ZM849.935 64.9279H849.435V65.4279H849.935V64.9279ZM849.935 -6.83447V-7.33447H849.435V-6.83447H849.935ZM1286.2 64.4279H1256.2V65.4279H1286.2V64.4279ZM1285.7 34.9278V64.9279H1286.7V34.9278H1285.7ZM1285.7 34.9278C1285.7 51.2202 1272.5 64.4279 1256.2 64.4279V65.4279C1273.05 65.4279 1286.7 51.7725 1286.7 34.9278H1285.7ZM879.935 64.4279C863.642 64.4279 850.435 51.2203 850.435 34.9279H849.435C849.435 51.7725 863.09 65.4279 879.935 65.4279V64.4279ZM850.435 64.9279V34.9279H849.435V64.9279H850.435ZM879.935 64.4279H849.935V65.4279H879.935V64.4279ZM850.435 23.1655C850.435 6.87314 863.642 -6.33447 879.935 -6.33447V-7.33447C863.09 -7.33447 849.435 6.32086 849.435 23.1655H850.435ZM849.935 -6.33447H879.935V-7.33447H849.935V-6.33447ZM850.435 23.1655V-6.83447H849.435V23.1655H850.435Z" fill="black"/>
</g>
<mask id="mask23_426_6095" style="mask-type:alpha" maskUnits="userSpaceOnUse" x="70" y="129" width="78" height="66">
<rect x="147.12" y="194.783" width="76.3187" height="64.9278" transform="rotate(-180 147.12 194.783)" fill="#D9D9D9"/>
</mask>
<g mask="url(#mask23_426_6095)">
<path fill-rule="evenodd" clip-rule="evenodd" d="M117.12 194.783H147.12V164.783C147.12 181.352 133.688 194.783 117.12 194.783ZM-259.15 194.783C-275.718 194.783 -289.149 181.352 -289.149 164.783V194.783H-259.15ZM-289.149 153.021C-289.149 136.452 -275.718 123.021 -259.149 123.021H-289.149V153.021Z" fill="black"/>
<path d="M147.12 194.783V195.283H147.62V194.783H147.12ZM-289.149 194.783H-289.649V195.283H-289.149V194.783ZM-289.149 123.021V122.521H-289.649V123.021H-289.149ZM147.12 194.283H117.12V195.283H147.12V194.283ZM146.62 164.783V194.783H147.62V164.783H146.62ZM146.62 164.783C146.62 181.076 133.412 194.283 117.12 194.283V195.283C133.965 195.283 147.62 181.628 147.62 164.783H146.62ZM-259.15 194.283C-275.442 194.283 -288.649 181.076 -288.649 164.783H-289.649C-289.649 181.628 -275.994 195.283 -259.15 195.283V194.283ZM-288.649 194.783V164.783H-289.649V194.783H-288.649ZM-259.15 194.283H-289.149V195.283H-259.15V194.283ZM-288.649 153.021C-288.649 136.728 -275.442 123.521 -259.149 123.521V122.521C-275.994 122.521 -289.649 136.176 -289.649 153.021H-288.649ZM-289.149 123.521H-259.149V122.521H-289.149V123.521ZM-288.649 153.021V123.021H-289.649V153.021H-288.649Z" fill="black"/>
</g>
<mask id="mask24_426_6095" style="mask-type:alpha" maskUnits="userSpaceOnUse" x="1283" y="129" width="78" height="66">
<rect x="1360.24" y="194.783" width="76.3187" height="64.9278" transform="rotate(-180 1360.24 194.783)" fill="#D9D9D9"/>
</mask>
<g mask="url(#mask24_426_6095)">
<path fill-rule="evenodd" clip-rule="evenodd" d="M1330.24 194.783H1360.24V164.783C1360.24 181.352 1346.81 194.783 1330.24 194.783ZM953.975 194.783C937.407 194.783 923.975 181.352 923.975 164.783V194.783H953.975ZM923.975 153.021C923.975 136.452 937.407 123.021 953.975 123.021H923.975V153.021Z" fill="black"/>
<path d="M1360.24 194.783V195.283H1360.74V194.783H1360.24ZM923.975 194.783H923.475V195.283H923.975V194.783ZM923.975 123.021V122.521H923.475V123.021H923.975ZM1360.24 194.283H1330.24V195.283H1360.24V194.283ZM1359.74 164.783V194.783H1360.74V164.783H1359.74ZM1359.74 164.783C1359.74 181.076 1346.54 194.283 1330.24 194.283V195.283C1347.09 195.283 1360.74 181.628 1360.74 164.783H1359.74ZM953.975 194.283C937.683 194.283 924.475 181.076 924.475 164.783H923.475C923.475 181.628 937.131 195.283 953.975 195.283V194.283ZM924.475 194.783V164.783H923.475V194.783H924.475ZM953.975 194.283H923.975V195.283H953.975V194.283ZM924.475 153.021C924.475 136.728 937.683 123.521 953.975 123.521V122.521C937.131 122.521 923.475 136.176 923.475 153.021H924.475ZM923.975 123.521H953.975V122.521H923.975V123.521ZM924.475 153.021V123.021H923.475V153.021H924.475Z" fill="black"/>
</g>
<mask id="mask25_426_6095" style="mask-type:alpha" maskUnits="userSpaceOnUse" x="70" y="388" width="78" height="66">
<rect x="147.12" y="453.356" width="76.3187" height="64.9278" transform="rotate(-180 147.12 453.356)" fill="#D9D9D9"/>
</mask>
<g mask="url(#mask25_426_6095)">
<path fill-rule="evenodd" clip-rule="evenodd" d="M117.12 453.356H147.12V423.356C147.12 439.924 133.688 453.356 117.12 453.356ZM-259.15 453.356C-275.718 453.356 -289.149 439.924 -289.149 423.356V453.356H-259.15ZM-289.149 411.593C-289.149 395.025 -275.718 381.593 -259.149 381.593H-289.149V411.593Z" fill="black"/>
<path d="M147.12 453.356V453.856H147.62V453.356H147.12ZM-289.149 453.356H-289.649V453.856H-289.149V453.356ZM-289.149 381.593V381.093H-289.649V381.593H-289.149ZM147.12 452.856H117.12V453.856H147.12V452.856ZM146.62 423.356V453.356H147.62V423.356H146.62ZM146.62 423.356C146.62 439.648 133.412 452.856 117.12 452.856V453.856C133.965 453.856 147.62 440.2 147.62 423.356H146.62ZM-259.15 452.856C-275.442 452.856 -288.649 439.648 -288.649 423.356H-289.649C-289.649 440.2 -275.994 453.856 -259.15 453.856V452.856ZM-288.649 453.356V423.356H-289.649V453.356H-288.649ZM-259.15 452.856H-289.149V453.856H-259.15V452.856ZM-288.649 411.593C-288.649 395.301 -275.442 382.093 -259.149 382.093V381.093C-275.994 381.093 -289.649 394.749 -289.649 411.593H-288.649ZM-289.149 382.093H-259.149V381.093H-289.149V382.093ZM-288.649 411.593V381.593H-289.649V411.593H-288.649Z" fill="black"/>
</g>
<mask id="mask26_426_6095" style="mask-type:alpha" maskUnits="userSpaceOnUse" x="1283" y="388" width="78" height="66">
<rect x="1360.24" y="453.356" width="76.3187" height="64.9278" transform="rotate(-180 1360.24 453.356)" fill="#D9D9D9"/>
</mask>
<g mask="url(#mask26_426_6095)">
<path fill-rule="evenodd" clip-rule="evenodd" d="M1330.24 453.356H1360.24V423.356C1360.24 439.924 1346.81 453.356 1330.24 453.356ZM953.975 453.356C937.407 453.356 923.975 439.924 923.975 423.356V453.356H953.975ZM923.975 411.593C923.975 395.025 937.407 381.593 953.975 381.593H923.975V411.593Z" fill="black"/>
<path d="M1360.24 453.356V453.856H1360.74V453.356H1360.24ZM923.975 453.356H923.475V453.856H923.975V453.356ZM923.975 381.593V381.093H923.475V381.593H923.975ZM1360.24 452.856H1330.24V453.856H1360.24V452.856ZM1359.74 423.356V453.356H1360.74V423.356H1359.74ZM1359.74 423.356C1359.74 439.648 1346.54 452.856 1330.24 452.856V453.856C1347.09 453.856 1360.74 440.2 1360.74 423.356H1359.74ZM953.975 452.856C937.683 452.856 924.475 439.648 924.475 423.356H923.475C923.475 440.2 937.131 453.856 953.975 453.856V452.856ZM924.475 453.356V423.356H923.475V453.356H924.475ZM953.975 452.856H923.975V453.856H953.975V452.856ZM924.475 411.593C924.475 395.301 937.683 382.093 953.975 382.093V381.093C937.131 381.093 923.475 394.749 923.475 411.593H924.475ZM923.975 382.093H953.975V381.093H923.975V382.093ZM924.475 411.593V381.593H923.475V411.593H924.475Z" fill="black"/>
</g>
<mask id="mask27_426_6095" style="mask-type:alpha" maskUnits="userSpaceOnUse" x="-4" y="517" width="78" height="66">
<rect x="73.0794" y="582.072" width="76.3187" height="64.9278" transform="rotate(-180 73.0794 582.072)" fill="#D9D9D9"/>
</mask>
<g mask="url(#mask27_426_6095)">
<path fill-rule="evenodd" clip-rule="evenodd" d="M43.0794 582.072H73.0794V552.072C73.0794 568.641 59.6479 582.072 43.0794 582.072ZM-333.19 582.072C-349.759 582.072 -363.19 568.641 -363.19 552.072V582.072H-333.19ZM-363.19 540.31C-363.19 523.741 -349.758 510.31 -333.19 510.31H-363.19V540.31Z" fill="black"/>
<path d="M73.0794 582.072V582.572H73.5794V582.072H73.0794ZM-363.19 582.072H-363.69V582.572H-363.19V582.072ZM-363.19 510.31V509.81H-363.69V510.31H-363.19ZM73.0794 581.572H43.0794V582.572H73.0794V581.572ZM72.5794 552.072V582.072H73.5794V552.072H72.5794ZM72.5794 552.072C72.5794 568.364 59.3718 581.572 43.0794 581.572V582.572C59.9241 582.572 73.5794 568.917 73.5794 552.072H72.5794ZM-333.19 581.572C-349.482 581.572 -362.69 568.364 -362.69 552.072H-363.69C-363.69 568.917 -350.035 582.572 -333.19 582.572V581.572ZM-362.69 582.072V552.072H-363.69V582.072H-362.69ZM-333.19 581.572H-363.19V582.572H-333.19V581.572ZM-362.69 540.31C-362.69 524.017 -349.482 510.81 -333.19 510.81V509.81C-350.035 509.81 -363.69 523.465 -363.69 540.31H-362.69ZM-363.19 510.81H-333.19V509.81H-363.19V510.81ZM-362.69 540.31V510.31H-363.69V540.31H-362.69Z" fill="black"/>
</g>
<mask id="mask28_426_6095" style="mask-type:alpha" maskUnits="userSpaceOnUse" x="1209" y="517" width="78" height="66">
<rect x="1286.2" y="582.072" width="76.3187" height="64.9278" transform="rotate(-180 1286.2 582.072)" fill="#D9D9D9"/>
</mask>
<g mask="url(#mask28_426_6095)">
<path fill-rule="evenodd" clip-rule="evenodd" d="M1256.2 582.072H1286.2V552.072C1286.2 568.641 1272.77 582.072 1256.2 582.072ZM879.935 582.072C863.366 582.072 849.935 568.641 849.935 552.072V582.072H879.935ZM849.935 540.31C849.935 523.741 863.366 510.31 879.935 510.31H849.935V540.31Z" fill="black"/>
<path d="M1286.2 582.072V582.572H1286.7V582.072H1286.2ZM849.935 582.072H849.435V582.572H849.935V582.072ZM849.935 510.31V509.81H849.435V510.31H849.935ZM1286.2 581.572H1256.2V582.572H1286.2V581.572ZM1285.7 552.072V582.072H1286.7V552.072H1285.7ZM1285.7 552.072C1285.7 568.364 1272.5 581.572 1256.2 581.572V582.572C1273.05 582.572 1286.7 568.917 1286.7 552.072H1285.7ZM879.935 581.572C863.642 581.572 850.435 568.364 850.435 552.072H849.435C849.435 568.917 863.09 582.572 879.935 582.572V581.572ZM850.435 582.072V552.072H849.435V582.072H850.435ZM879.935 581.572H849.935V582.572H879.935V581.572ZM850.435 540.31C850.435 524.017 863.642 510.81 879.935 510.81V509.81C863.09 509.81 849.435 523.465 849.435 540.31H850.435ZM849.935 510.81H879.935V509.81H849.935V510.81ZM850.435 540.31V510.31H849.435V540.31H850.435Z" fill="black"/>
</g>
<mask id="mask29_426_6095" style="mask-type:alpha" maskUnits="userSpaceOnUse" x="404" y="64" width="66" height="78">
<rect x="404.553" y="141.246" width="76.3187" height="64.9278" transform="rotate(-90 404.553 141.246)" fill="#D9D9D9"/>
</mask>
<g mask="url(#mask29_426_6095)">
<path fill-rule="evenodd" clip-rule="evenodd" d="M404.553 111.246L404.553 141.246H434.553C417.984 141.246 404.553 127.815 404.553 111.246ZM404.553 -265.023C404.553 -281.592 417.984 -295.023 434.553 -295.023H404.553V-265.023ZM446.315 -295.023C462.884 -295.023 476.315 -281.592 476.315 -265.023V-295.023H446.315Z" fill="black"/>
<path d="M404.553 141.246H404.053V141.746H404.553V141.246ZM404.553 -295.023V-295.523H404.053V-295.023H404.553ZM476.315 -295.023H476.815V-295.523H476.315V-295.023ZM405.053 141.246V111.246H404.053V141.246H405.053ZM434.553 140.746H404.553V141.746H434.553V140.746ZM434.553 140.746C418.261 140.746 405.053 127.539 405.053 111.246H404.053C404.053 128.091 417.708 141.746 434.553 141.746V140.746ZM405.053 -265.023C405.053 -281.315 418.261 -294.523 434.553 -294.523V-295.523C417.708 -295.523 404.053 -281.868 404.053 -265.023H405.053ZM404.553 -294.523H434.553V-295.523H404.553V-294.523ZM405.053 -265.023V-295.023H404.053V-265.023H405.053ZM446.315 -294.523C462.608 -294.523 475.815 -281.315 475.815 -265.023H476.815C476.815 -281.868 463.16 -295.523 446.315 -295.523V-294.523ZM475.815 -295.023V-265.023H476.815V-295.023H475.815ZM446.315 -294.523H476.315V-295.523H446.315V-294.523Z" fill="black"/>
</g>
<mask id="mask30_426_6095" style="mask-type:alpha" maskUnits="userSpaceOnUse" x="674" y="251" width="77" height="66">
<rect x="674.516" y="251.877" width="76.3187" height="64.9278" fill="#D9D9D9"/>
</mask>
<g mask="url(#mask30_426_6095)">
<path fill-rule="evenodd" clip-rule="evenodd" d="M704.516 251.877H674.516V281.877C674.516 265.308 687.947 251.877 704.516 251.877ZM1080.79 251.877C1097.35 251.877 1110.79 265.308 1110.79 281.877V251.877H1080.79ZM1110.79 293.639C1110.79 310.208 1097.35 323.639 1080.79 323.639H1110.79V293.639Z" fill="black"/>
<path d="M674.516 251.877V251.377H674.016V251.877H674.516ZM1110.79 251.877H1111.29V251.377H1110.79V251.877ZM1110.79 323.639V324.139H1111.29V323.639H1110.79ZM674.516 252.377H704.516V251.377H674.516V252.377ZM675.016 281.877V251.877H674.016V281.877H675.016ZM675.016 281.877C675.016 265.584 688.224 252.377 704.516 252.377V251.377C687.671 251.377 674.016 265.032 674.016 281.877H675.016ZM1080.79 252.377C1097.08 252.377 1110.29 265.584 1110.29 281.877H1111.29C1111.29 265.032 1097.63 251.377 1080.79 251.377V252.377ZM1110.29 251.877V281.877H1111.29V251.877H1110.29ZM1080.79 252.377H1110.79V251.377H1080.79V252.377ZM1110.29 293.639C1110.29 309.931 1097.08 323.139 1080.79 323.139V324.139C1097.63 324.139 1111.29 310.484 1111.29 293.639H1110.29ZM1110.79 323.139H1080.79V324.139H1110.79V323.139ZM1110.29 293.639V323.639H1111.29V293.639H1110.29Z" fill="black"/>
</g>
<mask id="mask31_426_6095" style="mask-type:alpha" maskUnits="userSpaceOnUse" x="1028" y="533" width="78" height="66">
<rect x="1028.77" y="533.092" width="76.3187" height="64.9278" fill="#D9D9D9"/>
</mask>
<g mask="url(#mask31_426_6095)">
<path fill-rule="evenodd" clip-rule="evenodd" d="M1058.77 533.092H1028.77V563.092C1028.77 546.523 1042.2 533.092 1058.77 533.092ZM1435.04 533.092C1451.61 533.092 1465.04 546.523 1465.04 563.092V533.092H1435.04ZM1465.04 574.854C1465.04 591.422 1451.61 604.854 1435.04 604.854H1465.04V574.854Z" fill="black"/>
<path d="M1028.77 533.092V532.592H1028.27V533.092H1028.77ZM1465.04 533.092H1465.54V532.592H1465.04V533.092ZM1465.04 604.854V605.354H1465.54V604.854H1465.04ZM1028.77 533.592H1058.77V532.592H1028.77V533.592ZM1029.27 563.092V533.092H1028.27V563.092H1029.27ZM1029.27 563.092C1029.27 546.799 1042.48 533.592 1058.77 533.592V532.592C1041.93 532.592 1028.27 546.247 1028.27 563.092H1029.27ZM1435.04 533.592C1451.33 533.592 1464.54 546.799 1464.54 563.092H1465.54C1465.54 546.247 1451.89 532.592 1435.04 532.592V533.592ZM1464.54 533.092V563.092H1465.54V533.092H1464.54ZM1435.04 533.592H1465.04V532.592H1435.04V533.592ZM1464.54 574.854C1464.54 591.146 1451.33 604.354 1435.04 604.354V605.354C1451.89 605.354 1465.54 591.699 1465.54 574.854H1464.54ZM1465.04 604.354H1435.04V605.354H1465.04V604.354ZM1464.54 574.854V604.854H1465.54V574.854H1464.54Z" fill="black"/>
</g>
</svg>
