<svg width="1240" height="660" viewBox="0 0 1240 660" fill="none" xmlns="http://www.w3.org/2000/svg">
<rect x="1.5" y="1.5" width="496" height="195" stroke="black" stroke-width="3"/>
<rect x="1.5" y="232.5" width="496" height="195" stroke="black" stroke-width="3"/>
<rect x="2.5" y="463.5" width="496" height="195" stroke="black" stroke-width="3"/>
<rect x="526.5" y="232.5" width="711" height="195" stroke="black" stroke-width="3"/>
<rect x="526.5" y="1.5" width="711" height="195" stroke="black" stroke-width="3"/>
<rect x="527.5" y="463.5" width="711" height="195" stroke="black" stroke-width="3"/>
<line x1="4.37114e-08" y1="296.5" x2="499" y2="296.5" stroke="black"/>
<line x1="2" y1="362.5" x2="499" y2="362.5" stroke="black"/>
<line x1="1" y1="395.5" x2="498" y2="395.5" stroke="black"/>
<line x1="4.37114e-08" y1="65.5" x2="499" y2="65.5" stroke="black"/>
<line x1="2" y1="263.5" x2="499" y2="263.5" stroke="black"/>
<line x1="1" y1="527.5" x2="500" y2="527.5" stroke="black"/>
<line x1="525" y1="296.5" x2="1239" y2="296.5" stroke="black"/>
<line x1="2" y1="131.5" x2="499" y2="131.5" stroke="black"/>
<line x1="528" y1="362.5" x2="1239" y2="362.5" stroke="black"/>
<line x1="3" y1="593.5" x2="500" y2="593.5" stroke="black"/>
<line x1="528" y1="329.5" x2="1239" y2="329.5" stroke="black"/>
<line x1="1" y1="164.5" x2="498" y2="164.5" stroke="black"/>
<line x1="526" y1="395.5" x2="1238" y2="395.5" stroke="black"/>
<line x1="2" y1="626.5" x2="499" y2="626.5" stroke="black"/>
<line x1="528" y1="263.5" x2="1239" y2="263.5" stroke="black"/>
<line x1="2" y1="32.5" x2="499" y2="32.5" stroke="black"/>
<line x1="3" y1="494.5" x2="500" y2="494.5" stroke="black"/>
<line x1="525" y1="65.5" x2="1239" y2="65.5001" stroke="black"/>
<line x1="526" y1="527.5" x2="1240" y2="527.5" stroke="black"/>
<line x1="528" y1="131.5" x2="1239" y2="131.5" stroke="black"/>
<line x1="529" y1="593.5" x2="1240" y2="593.5" stroke="black"/>
<line x1="528" y1="98.5" x2="1239" y2="98.5" stroke="black"/>
<line x1="529" y1="560.5" x2="1240" y2="560.5" stroke="black"/>
<line x1="526" y1="164.5" x2="1238" y2="164.5" stroke="black"/>
<line x1="527" y1="626.5" x2="1239" y2="626.5" stroke="black"/>
<line x1="528" y1="32.5" x2="1239" y2="32.5" stroke="black"/>
<line x1="529" y1="494.5" x2="1240" y2="494.5" stroke="black"/>
</svg>
