<svg width="1440" height="931" viewBox="0 0 1440 931" fill="none" xmlns="http://www.w3.org/2000/svg">
<line x1="1440" y1="1.50012" x2="-1.23501e-07" y2="1.49999" stroke="black" stroke-width="3"/>
<line x1="1440" y1="10.5098" x2="-1.2337e-07" y2="10.5097" stroke="black" stroke-width="3"/>
<line x1="1440" y1="19.5195" x2="-1.2337e-07" y2="19.5194" stroke="black" stroke-width="3"/>
<line x1="1440" y1="28.5292" x2="-1.2337e-07" y2="28.5291" stroke="black" stroke-width="3"/>
<line x1="1440" y1="37.5389" x2="-1.2337e-07" y2="37.5388" stroke="black" stroke-width="3"/>
<line x1="1440" y1="46.5486" x2="-1.2337e-07" y2="46.5485" stroke="black" stroke-width="3"/>
<line x1="1440" y1="55.5583" x2="-1.2337e-07" y2="55.5582" stroke="black" stroke-width="3"/>
<line x1="1440" y1="64.5681" x2="-1.2337e-07" y2="64.5679" stroke="black" stroke-width="3"/>
<line x1="1440" y1="73.5778" x2="-1.2337e-07" y2="73.5776" stroke="black" stroke-width="3"/>
<line x1="1440" y1="82.5875" x2="-1.2337e-07" y2="82.5874" stroke="black" stroke-width="3"/>
<line x1="1440" y1="91.5972" x2="-1.2337e-07" y2="91.597" stroke="black" stroke-width="3"/>
<line x1="1440" y1="100.607" x2="-1.2337e-07" y2="100.607" stroke="black" stroke-width="3"/>
<line x1="1440" y1="109.617" x2="-1.2337e-07" y2="109.617" stroke="black" stroke-width="3"/>
<line x1="1440" y1="118.626" x2="-1.2337e-07" y2="118.626" stroke="black" stroke-width="3"/>
<line x1="1440" y1="127.636" x2="-1.2337e-07" y2="127.636" stroke="black" stroke-width="3"/>
<line x1="1440" y1="136.646" x2="-1.2337e-07" y2="136.646" stroke="black" stroke-width="3"/>
<line x1="1440" y1="145.655" x2="-1.2337e-07" y2="145.655" stroke="black" stroke-width="3"/>
<line x1="1440" y1="154.665" x2="-1.2337e-07" y2="154.665" stroke="black" stroke-width="3"/>
<line x1="1440" y1="163.675" x2="-1.2337e-07" y2="163.675" stroke="black" stroke-width="3"/>
<line x1="1440" y1="172.685" x2="-1.2337e-07" y2="172.684" stroke="black" stroke-width="3"/>
<line x1="1440" y1="181.694" x2="-1.2337e-07" y2="181.694" stroke="black" stroke-width="3"/>
<line x1="1440" y1="190.704" x2="-1.2337e-07" y2="190.704" stroke="black" stroke-width="3"/>
<line x1="1440" y1="199.714" x2="-1.2337e-07" y2="199.714" stroke="black" stroke-width="3"/>
<line x1="1440" y1="208.723" x2="-1.2337e-07" y2="208.723" stroke="black" stroke-width="3"/>
<line x1="1440" y1="217.733" x2="-1.2337e-07" y2="217.733" stroke="black" stroke-width="3"/>
<line x1="1440" y1="226.743" x2="-1.2337e-07" y2="226.743" stroke="black" stroke-width="3"/>
<line x1="1440" y1="235.753" x2="-1.2337e-07" y2="235.752" stroke="black" stroke-width="3"/>
<line x1="1440" y1="244.762" x2="-1.2337e-07" y2="244.762" stroke="black" stroke-width="3"/>
<line x1="1440" y1="253.772" x2="-1.2337e-07" y2="253.772" stroke="black" stroke-width="3"/>
<line x1="1440" y1="262.782" x2="-1.2337e-07" y2="262.781" stroke="black" stroke-width="3"/>
<line x1="1440" y1="271.791" x2="-1.2337e-07" y2="271.791" stroke="black" stroke-width="3"/>
<line x1="1440" y1="280.801" x2="-1.2337e-07" y2="280.801" stroke="black" stroke-width="3"/>
<line x1="1440" y1="289.811" x2="-1.2337e-07" y2="289.811" stroke="black" stroke-width="3"/>
<line x1="1440" y1="298.82" x2="-1.2337e-07" y2="298.82" stroke="black" stroke-width="3"/>
<line x1="1440" y1="307.83" x2="-1.2337e-07" y2="307.83" stroke="black" stroke-width="3"/>
<line x1="1440" y1="316.84" x2="-1.2337e-07" y2="316.84" stroke="black" stroke-width="3"/>
<line x1="1440" y1="325.85" x2="-1.2337e-07" y2="325.849" stroke="black" stroke-width="3"/>
<line x1="1440" y1="334.859" x2="-1.2337e-07" y2="334.859" stroke="black" stroke-width="3"/>
<line x1="1440" y1="343.869" x2="-1.2337e-07" y2="343.869" stroke="black" stroke-width="3"/>
<line x1="1440" y1="352.879" x2="-1.2337e-07" y2="352.879" stroke="black" stroke-width="3"/>
<line x1="1440" y1="361.888" x2="-1.2337e-07" y2="361.888" stroke="black" stroke-width="3"/>
<line x1="1440" y1="370.898" x2="-1.2337e-07" y2="370.898" stroke="black" stroke-width="3"/>
<line x1="1440" y1="379.908" x2="-1.2337e-07" y2="379.908" stroke="black" stroke-width="3"/>
<line x1="1440" y1="388.918" x2="-1.2337e-07" y2="388.917" stroke="black" stroke-width="3"/>
<line x1="1440" y1="397.927" x2="-1.2337e-07" y2="397.927" stroke="black" stroke-width="3"/>
<line x1="1440" y1="406.937" x2="-1.2337e-07" y2="406.937" stroke="black" stroke-width="3"/>
<line x1="1440" y1="415.947" x2="-1.2337e-07" y2="415.947" stroke="black" stroke-width="3"/>
<line x1="1440" y1="424.956" x2="-1.2337e-07" y2="424.956" stroke="black" stroke-width="3"/>
<line x1="1440" y1="433.966" x2="-1.2337e-07" y2="433.966" stroke="black" stroke-width="3"/>
<line x1="1440" y1="442.976" x2="-1.2337e-07" y2="442.976" stroke="black" stroke-width="3"/>
<line x1="1440" y1="451.986" x2="-1.2337e-07" y2="451.985" stroke="black" stroke-width="3"/>
<line x1="1440" y1="460.995" x2="-1.2337e-07" y2="460.995" stroke="black" stroke-width="3"/>
<line x1="1440" y1="470.005" x2="-1.2337e-07" y2="470.005" stroke="black" stroke-width="3"/>
<line x1="1440" y1="479.015" x2="-1.2337e-07" y2="479.014" stroke="black" stroke-width="3"/>
<line x1="1440" y1="488.024" x2="-1.2337e-07" y2="488.024" stroke="black" stroke-width="3"/>
<line x1="1440" y1="497.034" x2="-1.2337e-07" y2="497.034" stroke="black" stroke-width="3"/>
<line x1="1440" y1="506.044" x2="-1.2337e-07" y2="506.044" stroke="black" stroke-width="3"/>
<line x1="1440" y1="515.053" x2="-1.2337e-07" y2="515.053" stroke="black" stroke-width="3"/>
<line x1="1440" y1="524.063" x2="-1.2337e-07" y2="524.063" stroke="black" stroke-width="3"/>
<line x1="1440" y1="533.073" x2="-1.2337e-07" y2="533.073" stroke="black" stroke-width="3"/>
<line x1="1440" y1="542.083" x2="-1.2337e-07" y2="542.082" stroke="black" stroke-width="3"/>
<line x1="1440" y1="551.092" x2="-1.2337e-07" y2="551.092" stroke="black" stroke-width="3"/>
<line x1="1440" y1="560.102" x2="-1.2337e-07" y2="560.102" stroke="black" stroke-width="3"/>
<line x1="1440" y1="569.112" x2="-1.2337e-07" y2="569.112" stroke="black" stroke-width="3"/>
<line x1="1440" y1="578.121" x2="-1.2337e-07" y2="578.121" stroke="black" stroke-width="3"/>
<line x1="1440" y1="587.131" x2="-1.2337e-07" y2="587.131" stroke="black" stroke-width="3"/>
<line x1="1440" y1="596.141" x2="-1.2337e-07" y2="596.141" stroke="black" stroke-width="3"/>
<line x1="1440" y1="605.151" x2="-1.2337e-07" y2="605.15" stroke="black" stroke-width="3"/>
<line x1="1440" y1="614.16" x2="-1.2337e-07" y2="614.16" stroke="black" stroke-width="3"/>
<line x1="1440" y1="623.17" x2="-1.2337e-07" y2="623.17" stroke="black" stroke-width="3"/>
<line x1="1440" y1="632.18" x2="-1.2337e-07" y2="632.18" stroke="black" stroke-width="3"/>
<line x1="1440" y1="641.189" x2="-1.2337e-07" y2="641.189" stroke="black" stroke-width="3"/>
<line x1="1440" y1="650.199" x2="-1.2337e-07" y2="650.199" stroke="black" stroke-width="3"/>
<line x1="1440" y1="659.209" x2="-1.2337e-07" y2="659.209" stroke="black" stroke-width="3"/>
<line x1="1440" y1="668.219" x2="-1.2337e-07" y2="668.218" stroke="black" stroke-width="3"/>
<line x1="1440" y1="677.228" x2="-1.2337e-07" y2="677.228" stroke="black" stroke-width="3"/>
<line x1="1440" y1="686.238" x2="-1.2337e-07" y2="686.238" stroke="black" stroke-width="3"/>
<line x1="1440" y1="695.248" x2="-1.2337e-07" y2="695.247" stroke="black" stroke-width="3"/>
<line x1="1440" y1="704.257" x2="-1.2337e-07" y2="704.257" stroke="black" stroke-width="3"/>
<line x1="1440" y1="713.267" x2="-1.2337e-07" y2="713.267" stroke="black" stroke-width="3"/>
<line x1="1440" y1="722.277" x2="-1.2337e-07" y2="722.277" stroke="black" stroke-width="3"/>
<line x1="1440" y1="731.286" x2="-1.2337e-07" y2="731.286" stroke="black" stroke-width="3"/>
<line x1="1440" y1="740.296" x2="-1.2337e-07" y2="740.296" stroke="black" stroke-width="3"/>
<line x1="1440" y1="749.306" x2="-1.2337e-07" y2="749.306" stroke="black" stroke-width="3"/>
<line x1="1440" y1="758.316" x2="-1.2337e-07" y2="758.315" stroke="black" stroke-width="3"/>
<line x1="1440" y1="767.325" x2="-1.2337e-07" y2="767.325" stroke="black" stroke-width="3"/>
<line x1="1440" y1="776.335" x2="-1.2337e-07" y2="776.335" stroke="black" stroke-width="3"/>
<line x1="1440" y1="785.345" x2="-1.2337e-07" y2="785.345" stroke="black" stroke-width="3"/>
<line x1="1440" y1="794.354" x2="-1.2337e-07" y2="794.354" stroke="black" stroke-width="3"/>
<line x1="1440" y1="803.364" x2="-1.2337e-07" y2="803.364" stroke="black" stroke-width="3"/>
<line x1="1440" y1="812.374" x2="-1.2337e-07" y2="812.374" stroke="black" stroke-width="3"/>
<line x1="1440" y1="821.383" x2="-1.2337e-07" y2="821.383" stroke="black" stroke-width="3"/>
<line x1="1440" y1="830.393" x2="-1.2337e-07" y2="830.393" stroke="black" stroke-width="3"/>
<line x1="1440" y1="839.403" x2="-1.2337e-07" y2="839.403" stroke="black" stroke-width="3"/>
<line x1="1440" y1="848.413" x2="-1.2337e-07" y2="848.413" stroke="black" stroke-width="3"/>
<line x1="1440" y1="857.422" x2="-1.2337e-07" y2="857.422" stroke="black" stroke-width="3"/>
<line x1="1440" y1="866.432" x2="-1.2337e-07" y2="866.432" stroke="black" stroke-width="3"/>
<line x1="1440" y1="875.442" x2="-1.2337e-07" y2="875.442" stroke="black" stroke-width="3"/>
<line x1="1440" y1="884.451" x2="-1.2337e-07" y2="884.451" stroke="black" stroke-width="3"/>
<line x1="1440" y1="893.461" x2="-1.2337e-07" y2="893.461" stroke="black" stroke-width="3"/>
<line x1="1440" y1="902.471" x2="-1.2337e-07" y2="902.471" stroke="black" stroke-width="3"/>
<line x1="1440" y1="911.481" x2="-1.2337e-07" y2="911.48" stroke="black" stroke-width="3"/>
<line x1="1440" y1="920.49" x2="-1.2337e-07" y2="920.49" stroke="black" stroke-width="3"/>
<line x1="1440" y1="929.5" x2="-1.2337e-07" y2="929.5" stroke="black" stroke-width="3"/>
</svg>
